<mxfile host="app.diagrams.net" agent="Mozilla/5.0 (Windows NT 10.0; Win64; x64) AppleWebKit/537.36 (KHTML, like Gecko) Chrome/135.0.0.0 Safari/537.36" version="26.2.13">
  <diagram name="Страница — 1" id="PMjJbiUkPYFjoIW1wXn-">
    <mxGraphModel dx="2612" dy="2150" grid="1" gridSize="10" guides="1" tooltips="1" connect="1" arrows="1" fold="1" page="1" pageScale="1" pageWidth="827" pageHeight="1169" math="0" shadow="0">
      <root>
        <mxCell id="0" />
        <mxCell id="1" parent="0" />
        <mxCell id="7uYCRFYfAggiPKC4b9fa-1" value="Users" style="swimlane;fontStyle=0;childLayout=stackLayout;horizontal=1;startSize=30;horizontalStack=0;resizeParent=1;resizeParentMax=0;resizeLast=0;collapsible=1;marginBottom=0;whiteSpace=wrap;html=1;" parent="1" vertex="1">
          <mxGeometry x="160" y="140" width="140" height="270" as="geometry" />
        </mxCell>
        <mxCell id="7uYCRFYfAggiPKC4b9fa-3" value="UserId" style="text;strokeColor=none;fillColor=none;align=left;verticalAlign=middle;spacingLeft=4;spacingRight=4;overflow=hidden;points=[[0,0.5],[1,0.5]];portConstraint=eastwest;rotatable=0;whiteSpace=wrap;html=1;" parent="7uYCRFYfAggiPKC4b9fa-1" vertex="1">
          <mxGeometry y="30" width="140" height="30" as="geometry" />
        </mxCell>
        <mxCell id="7uYCRFYfAggiPKC4b9fa-5" value="NameF" style="text;strokeColor=none;fillColor=none;align=left;verticalAlign=middle;spacingLeft=4;spacingRight=4;overflow=hidden;points=[[0,0.5],[1,0.5]];portConstraint=eastwest;rotatable=0;whiteSpace=wrap;html=1;" parent="7uYCRFYfAggiPKC4b9fa-1" vertex="1">
          <mxGeometry y="60" width="140" height="30" as="geometry" />
        </mxCell>
        <mxCell id="7uYCRFYfAggiPKC4b9fa-7" value="NameI" style="text;strokeColor=none;fillColor=none;align=left;verticalAlign=middle;spacingLeft=4;spacingRight=4;overflow=hidden;points=[[0,0.5],[1,0.5]];portConstraint=eastwest;rotatable=0;whiteSpace=wrap;html=1;" parent="7uYCRFYfAggiPKC4b9fa-1" vertex="1">
          <mxGeometry y="90" width="140" height="30" as="geometry" />
        </mxCell>
        <mxCell id="7uYCRFYfAggiPKC4b9fa-29" value="Email" style="text;strokeColor=none;fillColor=none;align=left;verticalAlign=middle;spacingLeft=4;spacingRight=4;overflow=hidden;points=[[0,0.5],[1,0.5]];portConstraint=eastwest;rotatable=0;whiteSpace=wrap;html=1;" parent="7uYCRFYfAggiPKC4b9fa-1" vertex="1">
          <mxGeometry y="120" width="140" height="30" as="geometry" />
        </mxCell>
        <mxCell id="7uYCRFYfAggiPKC4b9fa-9" value="PhoneNumber" style="text;strokeColor=none;fillColor=none;align=left;verticalAlign=middle;spacingLeft=4;spacingRight=4;overflow=hidden;points=[[0,0.5],[1,0.5]];portConstraint=eastwest;rotatable=0;whiteSpace=wrap;html=1;" parent="7uYCRFYfAggiPKC4b9fa-1" vertex="1">
          <mxGeometry y="150" width="140" height="30" as="geometry" />
        </mxCell>
        <mxCell id="7uYCRFYfAggiPKC4b9fa-10" value="CreatedAt" style="text;strokeColor=none;fillColor=none;align=left;verticalAlign=middle;spacingLeft=4;spacingRight=4;overflow=hidden;points=[[0,0.5],[1,0.5]];portConstraint=eastwest;rotatable=0;whiteSpace=wrap;html=1;" parent="7uYCRFYfAggiPKC4b9fa-1" vertex="1">
          <mxGeometry y="180" width="140" height="30" as="geometry" />
        </mxCell>
        <mxCell id="7uYCRFYfAggiPKC4b9fa-11" value="PassportId" style="text;strokeColor=none;fillColor=none;align=left;verticalAlign=middle;spacingLeft=4;spacingRight=4;overflow=hidden;points=[[0,0.5],[1,0.5]];portConstraint=eastwest;rotatable=0;whiteSpace=wrap;html=1;" parent="7uYCRFYfAggiPKC4b9fa-1" vertex="1">
          <mxGeometry y="210" width="140" height="30" as="geometry" />
        </mxCell>
        <mxCell id="7uYCRFYfAggiPKC4b9fa-12" value="IsVerified" style="text;strokeColor=none;fillColor=none;align=left;verticalAlign=middle;spacingLeft=4;spacingRight=4;overflow=hidden;points=[[0,0.5],[1,0.5]];portConstraint=eastwest;rotatable=0;whiteSpace=wrap;html=1;" parent="7uYCRFYfAggiPKC4b9fa-1" vertex="1">
          <mxGeometry y="240" width="140" height="30" as="geometry" />
        </mxCell>
        <mxCell id="7uYCRFYfAggiPKC4b9fa-13" value="Companies" style="swimlane;fontStyle=0;childLayout=stackLayout;horizontal=1;startSize=30;horizontalStack=0;resizeParent=1;resizeParentMax=0;resizeLast=0;collapsible=1;marginBottom=0;whiteSpace=wrap;html=1;" parent="1" vertex="1">
          <mxGeometry x="1220" y="-180" width="140" height="180" as="geometry" />
        </mxCell>
        <mxCell id="7uYCRFYfAggiPKC4b9fa-15" value="CompanyId" style="text;strokeColor=none;fillColor=none;align=left;verticalAlign=middle;spacingLeft=4;spacingRight=4;overflow=hidden;points=[[0,0.5],[1,0.5]];portConstraint=eastwest;rotatable=0;whiteSpace=wrap;html=1;" parent="7uYCRFYfAggiPKC4b9fa-13" vertex="1">
          <mxGeometry y="30" width="140" height="30" as="geometry" />
        </mxCell>
        <mxCell id="7uYCRFYfAggiPKC4b9fa-16" value="Name" style="text;strokeColor=none;fillColor=none;align=left;verticalAlign=middle;spacingLeft=4;spacingRight=4;overflow=hidden;points=[[0,0.5],[1,0.5]];portConstraint=eastwest;rotatable=0;whiteSpace=wrap;html=1;" parent="7uYCRFYfAggiPKC4b9fa-13" vertex="1">
          <mxGeometry y="60" width="140" height="30" as="geometry" />
        </mxCell>
        <mxCell id="7uYCRFYfAggiPKC4b9fa-19" value="Email" style="text;strokeColor=none;fillColor=none;align=left;verticalAlign=middle;spacingLeft=4;spacingRight=4;overflow=hidden;points=[[0,0.5],[1,0.5]];portConstraint=eastwest;rotatable=0;whiteSpace=wrap;html=1;" parent="7uYCRFYfAggiPKC4b9fa-13" vertex="1">
          <mxGeometry y="90" width="140" height="30" as="geometry" />
        </mxCell>
        <mxCell id="7uYCRFYfAggiPKC4b9fa-18" value="DataImage" style="text;strokeColor=none;fillColor=none;align=left;verticalAlign=middle;spacingLeft=4;spacingRight=4;overflow=hidden;points=[[0,0.5],[1,0.5]];portConstraint=eastwest;rotatable=0;whiteSpace=wrap;html=1;" parent="7uYCRFYfAggiPKC4b9fa-13" vertex="1">
          <mxGeometry y="120" width="140" height="30" as="geometry" />
        </mxCell>
        <mxCell id="7uYCRFYfAggiPKC4b9fa-17" style="text;strokeColor=none;fillColor=none;align=left;verticalAlign=middle;spacingLeft=4;spacingRight=4;overflow=hidden;points=[[0,0.5],[1,0.5]];portConstraint=eastwest;rotatable=0;whiteSpace=wrap;html=1;" parent="7uYCRFYfAggiPKC4b9fa-13" vertex="1">
          <mxGeometry y="150" width="140" height="30" as="geometry" />
        </mxCell>
        <mxCell id="7uYCRFYfAggiPKC4b9fa-20" value="CompanyReps" style="swimlane;fontStyle=0;childLayout=stackLayout;horizontal=1;startSize=30;horizontalStack=0;resizeParent=1;resizeParentMax=0;resizeLast=0;collapsible=1;marginBottom=0;whiteSpace=wrap;html=1;" parent="1" vertex="1">
          <mxGeometry x="1360" y="-190" width="140" height="240" as="geometry" />
        </mxCell>
        <mxCell id="7uYCRFYfAggiPKC4b9fa-22" value="CompanyRepId" style="text;strokeColor=none;fillColor=none;align=left;verticalAlign=middle;spacingLeft=4;spacingRight=4;overflow=hidden;points=[[0,0.5],[1,0.5]];portConstraint=eastwest;rotatable=0;whiteSpace=wrap;html=1;" parent="7uYCRFYfAggiPKC4b9fa-20" vertex="1">
          <mxGeometry y="30" width="140" height="30" as="geometry" />
        </mxCell>
        <mxCell id="7uYCRFYfAggiPKC4b9fa-26" value="CompanyId" style="text;strokeColor=none;fillColor=none;align=left;verticalAlign=middle;spacingLeft=4;spacingRight=4;overflow=hidden;points=[[0,0.5],[1,0.5]];portConstraint=eastwest;rotatable=0;whiteSpace=wrap;html=1;" parent="7uYCRFYfAggiPKC4b9fa-20" vertex="1">
          <mxGeometry y="60" width="140" height="30" as="geometry" />
        </mxCell>
        <mxCell id="7uYCRFYfAggiPKC4b9fa-23" value="NameF" style="text;strokeColor=none;fillColor=none;align=left;verticalAlign=middle;spacingLeft=4;spacingRight=4;overflow=hidden;points=[[0,0.5],[1,0.5]];portConstraint=eastwest;rotatable=0;whiteSpace=wrap;html=1;" parent="7uYCRFYfAggiPKC4b9fa-20" vertex="1">
          <mxGeometry y="90" width="140" height="30" as="geometry" />
        </mxCell>
        <mxCell id="7uYCRFYfAggiPKC4b9fa-24" value="NameI" style="text;strokeColor=none;fillColor=none;align=left;verticalAlign=middle;spacingLeft=4;spacingRight=4;overflow=hidden;points=[[0,0.5],[1,0.5]];portConstraint=eastwest;rotatable=0;whiteSpace=wrap;html=1;" parent="7uYCRFYfAggiPKC4b9fa-20" vertex="1">
          <mxGeometry y="120" width="140" height="30" as="geometry" />
        </mxCell>
        <mxCell id="7uYCRFYfAggiPKC4b9fa-25" value="PhoneNumber" style="text;strokeColor=none;fillColor=none;align=left;verticalAlign=middle;spacingLeft=4;spacingRight=4;overflow=hidden;points=[[0,0.5],[1,0.5]];portConstraint=eastwest;rotatable=0;whiteSpace=wrap;html=1;" parent="7uYCRFYfAggiPKC4b9fa-20" vertex="1">
          <mxGeometry y="150" width="140" height="30" as="geometry" />
        </mxCell>
        <mxCell id="7uYCRFYfAggiPKC4b9fa-28" value="Password" style="text;strokeColor=none;fillColor=none;align=left;verticalAlign=middle;spacingLeft=4;spacingRight=4;overflow=hidden;points=[[0,0.5],[1,0.5]];portConstraint=eastwest;rotatable=0;whiteSpace=wrap;html=1;" parent="7uYCRFYfAggiPKC4b9fa-20" vertex="1">
          <mxGeometry y="180" width="140" height="30" as="geometry" />
        </mxCell>
        <mxCell id="7uYCRFYfAggiPKC4b9fa-27" style="text;strokeColor=none;fillColor=none;align=left;verticalAlign=middle;spacingLeft=4;spacingRight=4;overflow=hidden;points=[[0,0.5],[1,0.5]];portConstraint=eastwest;rotatable=0;whiteSpace=wrap;html=1;" parent="7uYCRFYfAggiPKC4b9fa-20" vertex="1">
          <mxGeometry y="210" width="140" height="30" as="geometry" />
        </mxCell>
        <mxCell id="7uYCRFYfAggiPKC4b9fa-30" value="Cars" style="swimlane;fontStyle=0;childLayout=stackLayout;horizontal=1;startSize=30;horizontalStack=0;resizeParent=1;resizeParentMax=0;resizeLast=0;collapsible=1;marginBottom=0;whiteSpace=wrap;html=1;" parent="1" vertex="1">
          <mxGeometry x="170" y="500" width="140" height="240" as="geometry" />
        </mxCell>
        <mxCell id="7uYCRFYfAggiPKC4b9fa-31" value="CarId" style="text;strokeColor=none;fillColor=none;align=left;verticalAlign=middle;spacingLeft=4;spacingRight=4;overflow=hidden;points=[[0,0.5],[1,0.5]];portConstraint=eastwest;rotatable=0;whiteSpace=wrap;html=1;" parent="7uYCRFYfAggiPKC4b9fa-30" vertex="1">
          <mxGeometry y="30" width="140" height="30" as="geometry" />
        </mxCell>
        <mxCell id="7uYCRFYfAggiPKC4b9fa-32" value="CompanyRepId" style="text;strokeColor=none;fillColor=none;align=left;verticalAlign=middle;spacingLeft=4;spacingRight=4;overflow=hidden;points=[[0,0.5],[1,0.5]];portConstraint=eastwest;rotatable=0;whiteSpace=wrap;html=1;" parent="7uYCRFYfAggiPKC4b9fa-30" vertex="1">
          <mxGeometry y="60" width="140" height="30" as="geometry" />
        </mxCell>
        <mxCell id="7uYCRFYfAggiPKC4b9fa-33" value="BrandId" style="text;strokeColor=none;fillColor=none;align=left;verticalAlign=middle;spacingLeft=4;spacingRight=4;overflow=hidden;points=[[0,0.5],[1,0.5]];portConstraint=eastwest;rotatable=0;whiteSpace=wrap;html=1;" parent="7uYCRFYfAggiPKC4b9fa-30" vertex="1">
          <mxGeometry y="90" width="140" height="30" as="geometry" />
        </mxCell>
        <mxCell id="7uYCRFYfAggiPKC4b9fa-36" value="ClassId" style="text;strokeColor=none;fillColor=none;align=left;verticalAlign=middle;spacingLeft=4;spacingRight=4;overflow=hidden;points=[[0,0.5],[1,0.5]];portConstraint=eastwest;rotatable=0;whiteSpace=wrap;html=1;" parent="7uYCRFYfAggiPKC4b9fa-30" vertex="1">
          <mxGeometry y="120" width="140" height="30" as="geometry" />
        </mxCell>
        <mxCell id="7uYCRFYfAggiPKC4b9fa-35" value="FuelTypeId" style="text;strokeColor=none;fillColor=none;align=left;verticalAlign=middle;spacingLeft=4;spacingRight=4;overflow=hidden;points=[[0,0.5],[1,0.5]];portConstraint=eastwest;rotatable=0;whiteSpace=wrap;html=1;" parent="7uYCRFYfAggiPKC4b9fa-30" vertex="1">
          <mxGeometry y="150" width="140" height="30" as="geometry" />
        </mxCell>
        <mxCell id="7uYCRFYfAggiPKC4b9fa-34" value="TransmissionTypeId" style="text;strokeColor=none;fillColor=none;align=left;verticalAlign=middle;spacingLeft=4;spacingRight=4;overflow=hidden;points=[[0,0.5],[1,0.5]];portConstraint=eastwest;rotatable=0;whiteSpace=wrap;html=1;" parent="7uYCRFYfAggiPKC4b9fa-30" vertex="1">
          <mxGeometry y="180" width="140" height="30" as="geometry" />
        </mxCell>
        <mxCell id="IzzC9dgS2pSmTyTQ_v0N-1" value="CarName" style="text;strokeColor=none;fillColor=none;align=left;verticalAlign=middle;spacingLeft=4;spacingRight=4;overflow=hidden;points=[[0,0.5],[1,0.5]];portConstraint=eastwest;rotatable=0;whiteSpace=wrap;html=1;" parent="7uYCRFYfAggiPKC4b9fa-30" vertex="1">
          <mxGeometry y="210" width="140" height="30" as="geometry" />
        </mxCell>
        <mxCell id="7uYCRFYfAggiPKC4b9fa-37" value="CarBrands" style="swimlane;fontStyle=0;childLayout=stackLayout;horizontal=1;startSize=30;horizontalStack=0;resizeParent=1;resizeParentMax=0;resizeLast=0;collapsible=1;marginBottom=0;whiteSpace=wrap;html=1;" parent="1" vertex="1">
          <mxGeometry x="380" y="500" width="140" height="90" as="geometry" />
        </mxCell>
        <mxCell id="7uYCRFYfAggiPKC4b9fa-38" value="BrandId" style="text;strokeColor=none;fillColor=none;align=left;verticalAlign=middle;spacingLeft=4;spacingRight=4;overflow=hidden;points=[[0,0.5],[1,0.5]];portConstraint=eastwest;rotatable=0;whiteSpace=wrap;html=1;" parent="7uYCRFYfAggiPKC4b9fa-37" vertex="1">
          <mxGeometry y="30" width="140" height="30" as="geometry" />
        </mxCell>
        <mxCell id="7uYCRFYfAggiPKC4b9fa-39" value="Name" style="text;strokeColor=none;fillColor=none;align=left;verticalAlign=middle;spacingLeft=4;spacingRight=4;overflow=hidden;points=[[0,0.5],[1,0.5]];portConstraint=eastwest;rotatable=0;whiteSpace=wrap;html=1;" parent="7uYCRFYfAggiPKC4b9fa-37" vertex="1">
          <mxGeometry y="60" width="140" height="30" as="geometry" />
        </mxCell>
        <mxCell id="7uYCRFYfAggiPKC4b9fa-41" value="CarClasses" style="swimlane;fontStyle=0;childLayout=stackLayout;horizontal=1;startSize=30;horizontalStack=0;resizeParent=1;resizeParentMax=0;resizeLast=0;collapsible=1;marginBottom=0;whiteSpace=wrap;html=1;" parent="1" vertex="1">
          <mxGeometry x="390" y="600" width="140" height="90" as="geometry" />
        </mxCell>
        <mxCell id="7uYCRFYfAggiPKC4b9fa-42" value="ClassId" style="text;strokeColor=none;fillColor=none;align=left;verticalAlign=middle;spacingLeft=4;spacingRight=4;overflow=hidden;points=[[0,0.5],[1,0.5]];portConstraint=eastwest;rotatable=0;whiteSpace=wrap;html=1;" parent="7uYCRFYfAggiPKC4b9fa-41" vertex="1">
          <mxGeometry y="30" width="140" height="30" as="geometry" />
        </mxCell>
        <mxCell id="7uYCRFYfAggiPKC4b9fa-43" value="Name" style="text;strokeColor=none;fillColor=none;align=left;verticalAlign=middle;spacingLeft=4;spacingRight=4;overflow=hidden;points=[[0,0.5],[1,0.5]];portConstraint=eastwest;rotatable=0;whiteSpace=wrap;html=1;" parent="7uYCRFYfAggiPKC4b9fa-41" vertex="1">
          <mxGeometry y="60" width="140" height="30" as="geometry" />
        </mxCell>
        <mxCell id="7uYCRFYfAggiPKC4b9fa-45" value="CarFuelTypes" style="swimlane;fontStyle=0;childLayout=stackLayout;horizontal=1;startSize=30;horizontalStack=0;resizeParent=1;resizeParentMax=0;resizeLast=0;collapsible=1;marginBottom=0;whiteSpace=wrap;html=1;" parent="1" vertex="1">
          <mxGeometry x="390" y="710" width="140" height="90" as="geometry" />
        </mxCell>
        <mxCell id="7uYCRFYfAggiPKC4b9fa-46" value="FuelTypeId" style="text;strokeColor=none;fillColor=none;align=left;verticalAlign=middle;spacingLeft=4;spacingRight=4;overflow=hidden;points=[[0,0.5],[1,0.5]];portConstraint=eastwest;rotatable=0;whiteSpace=wrap;html=1;" parent="7uYCRFYfAggiPKC4b9fa-45" vertex="1">
          <mxGeometry y="30" width="140" height="30" as="geometry" />
        </mxCell>
        <mxCell id="7uYCRFYfAggiPKC4b9fa-47" value="Name" style="text;strokeColor=none;fillColor=none;align=left;verticalAlign=middle;spacingLeft=4;spacingRight=4;overflow=hidden;points=[[0,0.5],[1,0.5]];portConstraint=eastwest;rotatable=0;whiteSpace=wrap;html=1;" parent="7uYCRFYfAggiPKC4b9fa-45" vertex="1">
          <mxGeometry y="60" width="140" height="30" as="geometry" />
        </mxCell>
        <mxCell id="7uYCRFYfAggiPKC4b9fa-49" value="CarTransmissiona" style="swimlane;fontStyle=0;childLayout=stackLayout;horizontal=1;startSize=30;horizontalStack=0;resizeParent=1;resizeParentMax=0;resizeLast=0;collapsible=1;marginBottom=0;whiteSpace=wrap;html=1;" parent="1" vertex="1">
          <mxGeometry x="360" y="840" width="140" height="90" as="geometry" />
        </mxCell>
        <mxCell id="7uYCRFYfAggiPKC4b9fa-50" value="TransmisstonTypeId" style="text;strokeColor=none;fillColor=none;align=left;verticalAlign=middle;spacingLeft=4;spacingRight=4;overflow=hidden;points=[[0,0.5],[1,0.5]];portConstraint=eastwest;rotatable=0;whiteSpace=wrap;html=1;" parent="7uYCRFYfAggiPKC4b9fa-49" vertex="1">
          <mxGeometry y="30" width="140" height="30" as="geometry" />
        </mxCell>
        <mxCell id="7uYCRFYfAggiPKC4b9fa-51" value="Name" style="text;strokeColor=none;fillColor=none;align=left;verticalAlign=middle;spacingLeft=4;spacingRight=4;overflow=hidden;points=[[0,0.5],[1,0.5]];portConstraint=eastwest;rotatable=0;whiteSpace=wrap;html=1;" parent="7uYCRFYfAggiPKC4b9fa-49" vertex="1">
          <mxGeometry y="60" width="140" height="30" as="geometry" />
        </mxCell>
        <mxCell id="7uYCRFYfAggiPKC4b9fa-53" value="RentContracts" style="swimlane;fontStyle=0;childLayout=stackLayout;horizontal=1;startSize=30;horizontalStack=0;resizeParent=1;resizeParentMax=0;resizeLast=0;collapsible=1;marginBottom=0;whiteSpace=wrap;html=1;" parent="1" vertex="1">
          <mxGeometry x="-60" y="490" width="140" height="330" as="geometry" />
        </mxCell>
        <mxCell id="7uYCRFYfAggiPKC4b9fa-54" value="RentContractId" style="text;strokeColor=none;fillColor=none;align=left;verticalAlign=middle;spacingLeft=4;spacingRight=4;overflow=hidden;points=[[0,0.5],[1,0.5]];portConstraint=eastwest;rotatable=0;whiteSpace=wrap;html=1;" parent="7uYCRFYfAggiPKC4b9fa-53" vertex="1">
          <mxGeometry y="30" width="140" height="30" as="geometry" />
        </mxCell>
        <mxCell id="7uYCRFYfAggiPKC4b9fa-63" value="ContractStatusId" style="text;strokeColor=none;fillColor=none;align=left;verticalAlign=middle;spacingLeft=4;spacingRight=4;overflow=hidden;points=[[0,0.5],[1,0.5]];portConstraint=eastwest;rotatable=0;whiteSpace=wrap;html=1;" parent="7uYCRFYfAggiPKC4b9fa-53" vertex="1">
          <mxGeometry y="60" width="140" height="30" as="geometry" />
        </mxCell>
        <mxCell id="7uYCRFYfAggiPKC4b9fa-56" value="UserId" style="text;strokeColor=none;fillColor=none;align=left;verticalAlign=middle;spacingLeft=4;spacingRight=4;overflow=hidden;points=[[0,0.5],[1,0.5]];portConstraint=eastwest;rotatable=0;whiteSpace=wrap;html=1;" parent="7uYCRFYfAggiPKC4b9fa-53" vertex="1">
          <mxGeometry y="90" width="140" height="30" as="geometry" />
        </mxCell>
        <mxCell id="7uYCRFYfAggiPKC4b9fa-57" value="CarId" style="text;strokeColor=none;fillColor=none;align=left;verticalAlign=middle;spacingLeft=4;spacingRight=4;overflow=hidden;points=[[0,0.5],[1,0.5]];portConstraint=eastwest;rotatable=0;whiteSpace=wrap;html=1;" parent="7uYCRFYfAggiPKC4b9fa-53" vertex="1">
          <mxGeometry y="120" width="140" height="30" as="geometry" />
        </mxCell>
        <mxCell id="7uYCRFYfAggiPKC4b9fa-58" value="StartDate&lt;div&gt;&lt;br&gt;&lt;/div&gt;" style="text;strokeColor=none;fillColor=none;align=left;verticalAlign=middle;spacingLeft=4;spacingRight=4;overflow=hidden;points=[[0,0.5],[1,0.5]];portConstraint=eastwest;rotatable=0;whiteSpace=wrap;html=1;" parent="7uYCRFYfAggiPKC4b9fa-53" vertex="1">
          <mxGeometry y="150" width="140" height="30" as="geometry" />
        </mxCell>
        <mxCell id="7uYCRFYfAggiPKC4b9fa-59" value="EndDate" style="text;strokeColor=none;fillColor=none;align=left;verticalAlign=middle;spacingLeft=4;spacingRight=4;overflow=hidden;points=[[0,0.5],[1,0.5]];portConstraint=eastwest;rotatable=0;whiteSpace=wrap;html=1;" parent="7uYCRFYfAggiPKC4b9fa-53" vertex="1">
          <mxGeometry y="180" width="140" height="30" as="geometry" />
        </mxCell>
        <mxCell id="7uYCRFYfAggiPKC4b9fa-60" value="DepositAmount" style="text;strokeColor=none;fillColor=none;align=left;verticalAlign=middle;spacingLeft=4;spacingRight=4;overflow=hidden;points=[[0,0.5],[1,0.5]];portConstraint=eastwest;rotatable=0;whiteSpace=wrap;html=1;" parent="7uYCRFYfAggiPKC4b9fa-53" vertex="1">
          <mxGeometry y="210" width="140" height="30" as="geometry" />
        </mxCell>
        <mxCell id="wSm0zEwbOU0qCLXST5qM-35" value="TotalCost" style="text;strokeColor=none;fillColor=none;align=left;verticalAlign=middle;spacingLeft=4;spacingRight=4;overflow=hidden;points=[[0,0.5],[1,0.5]];portConstraint=eastwest;rotatable=0;whiteSpace=wrap;html=1;" parent="7uYCRFYfAggiPKC4b9fa-53" vertex="1">
          <mxGeometry y="240" width="140" height="30" as="geometry" />
        </mxCell>
        <mxCell id="7uYCRFYfAggiPKC4b9fa-61" value="CreatedAt" style="text;strokeColor=none;fillColor=none;align=left;verticalAlign=middle;spacingLeft=4;spacingRight=4;overflow=hidden;points=[[0,0.5],[1,0.5]];portConstraint=eastwest;rotatable=0;whiteSpace=wrap;html=1;" parent="7uYCRFYfAggiPKC4b9fa-53" vertex="1">
          <mxGeometry y="270" width="140" height="30" as="geometry" />
        </mxCell>
        <mxCell id="7uYCRFYfAggiPKC4b9fa-62" style="text;strokeColor=none;fillColor=none;align=left;verticalAlign=middle;spacingLeft=4;spacingRight=4;overflow=hidden;points=[[0,0.5],[1,0.5]];portConstraint=eastwest;rotatable=0;whiteSpace=wrap;html=1;" parent="7uYCRFYfAggiPKC4b9fa-53" vertex="1">
          <mxGeometry y="300" width="140" height="30" as="geometry" />
        </mxCell>
        <mxCell id="7uYCRFYfAggiPKC4b9fa-64" value="ContractStatuses" style="swimlane;fontStyle=0;childLayout=stackLayout;horizontal=1;startSize=30;horizontalStack=0;resizeParent=1;resizeParentMax=0;resizeLast=0;collapsible=1;marginBottom=0;whiteSpace=wrap;html=1;" parent="1" vertex="1">
          <mxGeometry x="-230" y="550" width="140" height="90" as="geometry" />
        </mxCell>
        <mxCell id="7uYCRFYfAggiPKC4b9fa-65" value="ContractStatusId" style="text;strokeColor=none;fillColor=none;align=left;verticalAlign=middle;spacingLeft=4;spacingRight=4;overflow=hidden;points=[[0,0.5],[1,0.5]];portConstraint=eastwest;rotatable=0;whiteSpace=wrap;html=1;" parent="7uYCRFYfAggiPKC4b9fa-64" vertex="1">
          <mxGeometry y="30" width="140" height="30" as="geometry" />
        </mxCell>
        <mxCell id="7uYCRFYfAggiPKC4b9fa-66" value="Name" style="text;strokeColor=none;fillColor=none;align=left;verticalAlign=middle;spacingLeft=4;spacingRight=4;overflow=hidden;points=[[0,0.5],[1,0.5]];portConstraint=eastwest;rotatable=0;whiteSpace=wrap;html=1;" parent="7uYCRFYfAggiPKC4b9fa-64" vertex="1">
          <mxGeometry y="60" width="140" height="30" as="geometry" />
        </mxCell>
        <mxCell id="7uYCRFYfAggiPKC4b9fa-68" value="CarImages" style="swimlane;fontStyle=0;childLayout=stackLayout;horizontal=1;startSize=30;horizontalStack=0;resizeParent=1;resizeParentMax=0;resizeLast=0;collapsible=1;marginBottom=0;whiteSpace=wrap;html=1;" parent="1" vertex="1">
          <mxGeometry x="140" y="820" width="140" height="120" as="geometry" />
        </mxCell>
        <mxCell id="7uYCRFYfAggiPKC4b9fa-69" value="ImageId" style="text;strokeColor=none;fillColor=none;align=left;verticalAlign=middle;spacingLeft=4;spacingRight=4;overflow=hidden;points=[[0,0.5],[1,0.5]];portConstraint=eastwest;rotatable=0;whiteSpace=wrap;html=1;" parent="7uYCRFYfAggiPKC4b9fa-68" vertex="1">
          <mxGeometry y="30" width="140" height="30" as="geometry" />
        </mxCell>
        <mxCell id="7uYCRFYfAggiPKC4b9fa-70" value="CarId" style="text;strokeColor=none;fillColor=none;align=left;verticalAlign=middle;spacingLeft=4;spacingRight=4;overflow=hidden;points=[[0,0.5],[1,0.5]];portConstraint=eastwest;rotatable=0;whiteSpace=wrap;html=1;" parent="7uYCRFYfAggiPKC4b9fa-68" vertex="1">
          <mxGeometry y="60" width="140" height="30" as="geometry" />
        </mxCell>
        <mxCell id="7uYCRFYfAggiPKC4b9fa-71" value="Data" style="text;strokeColor=none;fillColor=none;align=left;verticalAlign=middle;spacingLeft=4;spacingRight=4;overflow=hidden;points=[[0,0.5],[1,0.5]];portConstraint=eastwest;rotatable=0;whiteSpace=wrap;html=1;" parent="7uYCRFYfAggiPKC4b9fa-68" vertex="1">
          <mxGeometry y="90" width="140" height="30" as="geometry" />
        </mxCell>
        <mxCell id="wSm0zEwbOU0qCLXST5qM-2" style="edgeStyle=orthogonalEdgeStyle;rounded=0;orthogonalLoop=1;jettySize=auto;html=1;exitX=1;exitY=0.5;exitDx=0;exitDy=0;entryX=0;entryY=0.5;entryDx=0;entryDy=0;" parent="1" source="7uYCRFYfAggiPKC4b9fa-57" target="7uYCRFYfAggiPKC4b9fa-31" edge="1">
          <mxGeometry relative="1" as="geometry">
            <Array as="points">
              <mxPoint x="160" y="625" />
              <mxPoint x="160" y="545" />
            </Array>
          </mxGeometry>
        </mxCell>
        <mxCell id="wSm0zEwbOU0qCLXST5qM-3" style="edgeStyle=orthogonalEdgeStyle;rounded=0;orthogonalLoop=1;jettySize=auto;html=1;exitX=0;exitY=0.5;exitDx=0;exitDy=0;entryX=1;entryY=0.5;entryDx=0;entryDy=0;" parent="1" source="7uYCRFYfAggiPKC4b9fa-63" target="7uYCRFYfAggiPKC4b9fa-65" edge="1">
          <mxGeometry relative="1" as="geometry" />
        </mxCell>
        <mxCell id="wSm0zEwbOU0qCLXST5qM-4" style="edgeStyle=orthogonalEdgeStyle;rounded=0;orthogonalLoop=1;jettySize=auto;html=1;entryX=0;entryY=0.5;entryDx=0;entryDy=0;" parent="1" source="7uYCRFYfAggiPKC4b9fa-56" target="7uYCRFYfAggiPKC4b9fa-3" edge="1">
          <mxGeometry relative="1" as="geometry" />
        </mxCell>
        <mxCell id="wSm0zEwbOU0qCLXST5qM-5" style="edgeStyle=orthogonalEdgeStyle;rounded=0;orthogonalLoop=1;jettySize=auto;html=1;exitX=1;exitY=0.5;exitDx=0;exitDy=0;entryX=0;entryY=0.5;entryDx=0;entryDy=0;" parent="1" source="7uYCRFYfAggiPKC4b9fa-33" target="7uYCRFYfAggiPKC4b9fa-38" edge="1">
          <mxGeometry relative="1" as="geometry" />
        </mxCell>
        <mxCell id="wSm0zEwbOU0qCLXST5qM-6" style="edgeStyle=orthogonalEdgeStyle;rounded=0;orthogonalLoop=1;jettySize=auto;html=1;exitX=1;exitY=0.5;exitDx=0;exitDy=0;" parent="1" source="7uYCRFYfAggiPKC4b9fa-34" target="7uYCRFYfAggiPKC4b9fa-50" edge="1">
          <mxGeometry relative="1" as="geometry" />
        </mxCell>
        <mxCell id="wSm0zEwbOU0qCLXST5qM-7" style="edgeStyle=orthogonalEdgeStyle;rounded=0;orthogonalLoop=1;jettySize=auto;html=1;exitX=1;exitY=0.5;exitDx=0;exitDy=0;" parent="1" source="7uYCRFYfAggiPKC4b9fa-36" target="7uYCRFYfAggiPKC4b9fa-42" edge="1">
          <mxGeometry relative="1" as="geometry" />
        </mxCell>
        <mxCell id="wSm0zEwbOU0qCLXST5qM-8" style="edgeStyle=orthogonalEdgeStyle;rounded=0;orthogonalLoop=1;jettySize=auto;html=1;exitX=1;exitY=0.5;exitDx=0;exitDy=0;entryX=0;entryY=0.5;entryDx=0;entryDy=0;" parent="1" source="7uYCRFYfAggiPKC4b9fa-35" target="7uYCRFYfAggiPKC4b9fa-45" edge="1">
          <mxGeometry relative="1" as="geometry" />
        </mxCell>
        <mxCell id="wSm0zEwbOU0qCLXST5qM-9" style="edgeStyle=orthogonalEdgeStyle;rounded=0;orthogonalLoop=1;jettySize=auto;html=1;exitX=0;exitY=0.5;exitDx=0;exitDy=0;" parent="1" source="7uYCRFYfAggiPKC4b9fa-70" target="7uYCRFYfAggiPKC4b9fa-31" edge="1">
          <mxGeometry relative="1" as="geometry" />
        </mxCell>
        <mxCell id="wSm0zEwbOU0qCLXST5qM-10" value="Users" style="swimlane;fontStyle=0;childLayout=stackLayout;horizontal=1;startSize=30;horizontalStack=0;resizeParent=1;resizeParentMax=0;resizeLast=0;collapsible=1;marginBottom=0;whiteSpace=wrap;html=1;" parent="1" vertex="1">
          <mxGeometry x="620" y="660" width="140" height="120" as="geometry" />
        </mxCell>
        <mxCell id="wSm0zEwbOU0qCLXST5qM-11" value="UserId" style="text;strokeColor=none;fillColor=none;align=left;verticalAlign=middle;spacingLeft=4;spacingRight=4;overflow=hidden;points=[[0,0.5],[1,0.5]];portConstraint=eastwest;rotatable=0;whiteSpace=wrap;html=1;" parent="wSm0zEwbOU0qCLXST5qM-10" vertex="1">
          <mxGeometry y="30" width="140" height="30" as="geometry" />
        </mxCell>
        <mxCell id="wSm0zEwbOU0qCLXST5qM-12" value="Email" style="text;strokeColor=none;fillColor=none;align=left;verticalAlign=middle;spacingLeft=4;spacingRight=4;overflow=hidden;points=[[0,0.5],[1,0.5]];portConstraint=eastwest;rotatable=0;whiteSpace=wrap;html=1;" parent="wSm0zEwbOU0qCLXST5qM-10" vertex="1">
          <mxGeometry y="60" width="140" height="30" as="geometry" />
        </mxCell>
        <mxCell id="wSm0zEwbOU0qCLXST5qM-13" value="Password" style="text;strokeColor=none;fillColor=none;align=left;verticalAlign=middle;spacingLeft=4;spacingRight=4;overflow=hidden;points=[[0,0.5],[1,0.5]];portConstraint=eastwest;rotatable=0;whiteSpace=wrap;html=1;" parent="wSm0zEwbOU0qCLXST5qM-10" vertex="1">
          <mxGeometry y="90" width="140" height="30" as="geometry" />
        </mxCell>
        <mxCell id="wSm0zEwbOU0qCLXST5qM-14" value="UserRoles" style="swimlane;fontStyle=0;childLayout=stackLayout;horizontal=1;startSize=30;horizontalStack=0;resizeParent=1;resizeParentMax=0;resizeLast=0;collapsible=1;marginBottom=0;whiteSpace=wrap;html=1;" parent="1" vertex="1">
          <mxGeometry x="820" y="665" width="140" height="120" as="geometry" />
        </mxCell>
        <mxCell id="wSm0zEwbOU0qCLXST5qM-16" value="UserId" style="text;strokeColor=none;fillColor=none;align=left;verticalAlign=middle;spacingLeft=4;spacingRight=4;overflow=hidden;points=[[0,0.5],[1,0.5]];portConstraint=eastwest;rotatable=0;whiteSpace=wrap;html=1;" parent="wSm0zEwbOU0qCLXST5qM-14" vertex="1">
          <mxGeometry y="30" width="140" height="30" as="geometry" />
        </mxCell>
        <mxCell id="wSm0zEwbOU0qCLXST5qM-17" value="RoleId" style="text;strokeColor=none;fillColor=none;align=left;verticalAlign=middle;spacingLeft=4;spacingRight=4;overflow=hidden;points=[[0,0.5],[1,0.5]];portConstraint=eastwest;rotatable=0;whiteSpace=wrap;html=1;" parent="wSm0zEwbOU0qCLXST5qM-14" vertex="1">
          <mxGeometry y="60" width="140" height="30" as="geometry" />
        </mxCell>
        <mxCell id="wSm0zEwbOU0qCLXST5qM-22" value="Password" style="text;strokeColor=none;fillColor=none;align=left;verticalAlign=middle;spacingLeft=4;spacingRight=4;overflow=hidden;points=[[0,0.5],[1,0.5]];portConstraint=eastwest;rotatable=0;whiteSpace=wrap;html=1;" parent="wSm0zEwbOU0qCLXST5qM-14" vertex="1">
          <mxGeometry y="90" width="140" height="30" as="geometry" />
        </mxCell>
        <mxCell id="wSm0zEwbOU0qCLXST5qM-18" value="Roles" style="swimlane;fontStyle=0;childLayout=stackLayout;horizontal=1;startSize=30;horizontalStack=0;resizeParent=1;resizeParentMax=0;resizeLast=0;collapsible=1;marginBottom=0;whiteSpace=wrap;html=1;" parent="1" vertex="1">
          <mxGeometry x="1020" y="655" width="140" height="90" as="geometry" />
        </mxCell>
        <mxCell id="wSm0zEwbOU0qCLXST5qM-19" value="RoleId" style="text;strokeColor=none;fillColor=none;align=left;verticalAlign=middle;spacingLeft=4;spacingRight=4;overflow=hidden;points=[[0,0.5],[1,0.5]];portConstraint=eastwest;rotatable=0;whiteSpace=wrap;html=1;" parent="wSm0zEwbOU0qCLXST5qM-18" vertex="1">
          <mxGeometry y="30" width="140" height="30" as="geometry" />
        </mxCell>
        <mxCell id="wSm0zEwbOU0qCLXST5qM-20" value="Name" style="text;strokeColor=none;fillColor=none;align=left;verticalAlign=middle;spacingLeft=4;spacingRight=4;overflow=hidden;points=[[0,0.5],[1,0.5]];portConstraint=eastwest;rotatable=0;whiteSpace=wrap;html=1;" parent="wSm0zEwbOU0qCLXST5qM-18" vertex="1">
          <mxGeometry y="60" width="140" height="30" as="geometry" />
        </mxCell>
        <mxCell id="wSm0zEwbOU0qCLXST5qM-24" style="edgeStyle=orthogonalEdgeStyle;rounded=0;orthogonalLoop=1;jettySize=auto;html=1;exitX=1;exitY=0.5;exitDx=0;exitDy=0;" parent="1" source="wSm0zEwbOU0qCLXST5qM-17" target="wSm0zEwbOU0qCLXST5qM-19" edge="1">
          <mxGeometry relative="1" as="geometry" />
        </mxCell>
        <mxCell id="wSm0zEwbOU0qCLXST5qM-25" style="edgeStyle=orthogonalEdgeStyle;rounded=0;orthogonalLoop=1;jettySize=auto;html=1;exitX=0;exitY=0.5;exitDx=0;exitDy=0;entryX=1;entryY=0.5;entryDx=0;entryDy=0;" parent="1" source="wSm0zEwbOU0qCLXST5qM-16" target="wSm0zEwbOU0qCLXST5qM-11" edge="1">
          <mxGeometry relative="1" as="geometry" />
        </mxCell>
        <mxCell id="wSm0zEwbOU0qCLXST5qM-26" value="BlockchainContracts" style="swimlane;fontStyle=0;childLayout=stackLayout;horizontal=1;startSize=30;horizontalStack=0;resizeParent=1;resizeParentMax=0;resizeLast=0;collapsible=1;marginBottom=0;whiteSpace=wrap;html=1;" parent="1" vertex="1">
          <mxGeometry x="640" y="150" width="140" height="180" as="geometry" />
        </mxCell>
        <mxCell id="wSm0zEwbOU0qCLXST5qM-27" value="BlockchainContractId" style="text;strokeColor=none;fillColor=none;align=left;verticalAlign=middle;spacingLeft=4;spacingRight=4;overflow=hidden;points=[[0,0.5],[1,0.5]];portConstraint=eastwest;rotatable=0;whiteSpace=wrap;html=1;" parent="wSm0zEwbOU0qCLXST5qM-26" vertex="1">
          <mxGeometry y="30" width="140" height="30" as="geometry" />
        </mxCell>
        <mxCell id="wSm0zEwbOU0qCLXST5qM-28" value="RentContractId" style="text;strokeColor=none;fillColor=none;align=left;verticalAlign=middle;spacingLeft=4;spacingRight=4;overflow=hidden;points=[[0,0.5],[1,0.5]];portConstraint=eastwest;rotatable=0;whiteSpace=wrap;html=1;" parent="wSm0zEwbOU0qCLXST5qM-26" vertex="1">
          <mxGeometry y="60" width="140" height="30" as="geometry" />
        </mxCell>
        <mxCell id="wSm0zEwbOU0qCLXST5qM-29" value="ContractStatusId" style="text;strokeColor=none;fillColor=none;align=left;verticalAlign=middle;spacingLeft=4;spacingRight=4;overflow=hidden;points=[[0,0.5],[1,0.5]];portConstraint=eastwest;rotatable=0;whiteSpace=wrap;html=1;" parent="wSm0zEwbOU0qCLXST5qM-26" vertex="1">
          <mxGeometry y="90" width="140" height="30" as="geometry" />
        </mxCell>
        <mxCell id="wSm0zEwbOU0qCLXST5qM-36" value="TransactionHash" style="text;strokeColor=none;fillColor=none;align=left;verticalAlign=middle;spacingLeft=4;spacingRight=4;overflow=hidden;points=[[0,0.5],[1,0.5]];portConstraint=eastwest;rotatable=0;whiteSpace=wrap;html=1;" parent="wSm0zEwbOU0qCLXST5qM-26" vertex="1">
          <mxGeometry y="120" width="140" height="30" as="geometry" />
        </mxCell>
        <mxCell id="wSm0zEwbOU0qCLXST5qM-34" value="ContractAddress" style="text;strokeColor=none;fillColor=none;align=left;verticalAlign=middle;spacingLeft=4;spacingRight=4;overflow=hidden;points=[[0,0.5],[1,0.5]];portConstraint=eastwest;rotatable=0;whiteSpace=wrap;html=1;" parent="wSm0zEwbOU0qCLXST5qM-26" vertex="1">
          <mxGeometry y="150" width="140" height="30" as="geometry" />
        </mxCell>
        <mxCell id="wSm0zEwbOU0qCLXST5qM-30" value="&lt;font style=&quot;font-size: 20px;&quot;&gt;UserService&lt;/font&gt;" style="text;html=1;align=center;verticalAlign=middle;whiteSpace=wrap;rounded=0;" parent="1" vertex="1">
          <mxGeometry x="130" y="60" width="200" height="50" as="geometry" />
        </mxCell>
        <mxCell id="wSm0zEwbOU0qCLXST5qM-31" value="&lt;font style=&quot;font-size: 18px;&quot;&gt;AuthService&lt;/font&gt;" style="text;html=1;align=center;verticalAlign=middle;whiteSpace=wrap;rounded=0;" parent="1" vertex="1">
          <mxGeometry x="790" y="580" width="60" height="30" as="geometry" />
        </mxCell>
        <mxCell id="wSm0zEwbOU0qCLXST5qM-32" value="&lt;font style=&quot;font-size: 19px;&quot;&gt;ContractService&lt;/font&gt;" style="text;html=1;align=center;verticalAlign=middle;resizable=0;points=[];autosize=1;strokeColor=none;fillColor=none;" parent="1" vertex="1">
          <mxGeometry x="630" y="103" width="160" height="40" as="geometry" />
        </mxCell>
        <mxCell id="wSm0zEwbOU0qCLXST5qM-37" value="ContractStatuses" style="swimlane;fontStyle=0;childLayout=stackLayout;horizontal=1;startSize=30;horizontalStack=0;resizeParent=1;resizeParentMax=0;resizeLast=0;collapsible=1;marginBottom=0;whiteSpace=wrap;html=1;" parent="1" vertex="1">
          <mxGeometry x="810" y="310" width="140" height="90" as="geometry" />
        </mxCell>
        <mxCell id="wSm0zEwbOU0qCLXST5qM-39" value="ContractStatusId" style="text;strokeColor=none;fillColor=none;align=left;verticalAlign=middle;spacingLeft=4;spacingRight=4;overflow=hidden;points=[[0,0.5],[1,0.5]];portConstraint=eastwest;rotatable=0;whiteSpace=wrap;html=1;" parent="wSm0zEwbOU0qCLXST5qM-37" vertex="1">
          <mxGeometry y="30" width="140" height="30" as="geometry" />
        </mxCell>
        <mxCell id="wSm0zEwbOU0qCLXST5qM-45" value="&lt;div&gt;Name&lt;/div&gt;" style="text;strokeColor=none;fillColor=none;align=left;verticalAlign=middle;spacingLeft=4;spacingRight=4;overflow=hidden;points=[[0,0.5],[1,0.5]];portConstraint=eastwest;rotatable=0;whiteSpace=wrap;html=1;" parent="wSm0zEwbOU0qCLXST5qM-37" vertex="1">
          <mxGeometry y="60" width="140" height="30" as="geometry" />
        </mxCell>
        <mxCell id="wSm0zEwbOU0qCLXST5qM-40" value="DepositProcessing" style="swimlane;fontStyle=0;childLayout=stackLayout;horizontal=1;startSize=30;horizontalStack=0;resizeParent=1;resizeParentMax=0;resizeLast=0;collapsible=1;marginBottom=0;whiteSpace=wrap;html=1;" parent="1" vertex="1">
          <mxGeometry x="891" y="130" width="140" height="150" as="geometry" />
        </mxCell>
        <mxCell id="wSm0zEwbOU0qCLXST5qM-41" value="DepositProcessingId" style="text;strokeColor=none;fillColor=none;align=left;verticalAlign=middle;spacingLeft=4;spacingRight=4;overflow=hidden;points=[[0,0.5],[1,0.5]];portConstraint=eastwest;rotatable=0;whiteSpace=wrap;html=1;" parent="wSm0zEwbOU0qCLXST5qM-40" vertex="1">
          <mxGeometry y="30" width="140" height="30" as="geometry" />
        </mxCell>
        <mxCell id="wSm0zEwbOU0qCLXST5qM-43" value="BlockchaintContractId" style="text;strokeColor=none;fillColor=none;align=left;verticalAlign=middle;spacingLeft=4;spacingRight=4;overflow=hidden;points=[[0,0.5],[1,0.5]];portConstraint=eastwest;rotatable=0;whiteSpace=wrap;html=1;" parent="wSm0zEwbOU0qCLXST5qM-40" vertex="1">
          <mxGeometry y="60" width="140" height="30" as="geometry" />
        </mxCell>
        <mxCell id="wSm0zEwbOU0qCLXST5qM-44" value="ProccessingStatusId" style="text;strokeColor=none;fillColor=none;align=left;verticalAlign=middle;spacingLeft=4;spacingRight=4;overflow=hidden;points=[[0,0.5],[1,0.5]];portConstraint=eastwest;rotatable=0;whiteSpace=wrap;html=1;" parent="wSm0zEwbOU0qCLXST5qM-40" vertex="1">
          <mxGeometry y="90" width="140" height="30" as="geometry" />
        </mxCell>
        <mxCell id="wSm0zEwbOU0qCLXST5qM-46" value="EvidenceDocuments" style="text;strokeColor=none;fillColor=none;align=left;verticalAlign=middle;spacingLeft=4;spacingRight=4;overflow=hidden;points=[[0,0.5],[1,0.5]];portConstraint=eastwest;rotatable=0;whiteSpace=wrap;html=1;" parent="wSm0zEwbOU0qCLXST5qM-40" vertex="1">
          <mxGeometry y="120" width="140" height="30" as="geometry" />
        </mxCell>
        <mxCell id="wSm0zEwbOU0qCLXST5qM-47" style="edgeStyle=orthogonalEdgeStyle;rounded=0;orthogonalLoop=1;jettySize=auto;html=1;exitX=1;exitY=0.5;exitDx=0;exitDy=0;entryX=0;entryY=0.5;entryDx=0;entryDy=0;" parent="1" source="wSm0zEwbOU0qCLXST5qM-29" target="wSm0zEwbOU0qCLXST5qM-37" edge="1">
          <mxGeometry relative="1" as="geometry" />
        </mxCell>
        <mxCell id="wSm0zEwbOU0qCLXST5qM-48" style="edgeStyle=orthogonalEdgeStyle;rounded=0;orthogonalLoop=1;jettySize=auto;html=1;exitX=1;exitY=0.5;exitDx=0;exitDy=0;entryX=0;entryY=0.5;entryDx=0;entryDy=0;" parent="1" source="wSm0zEwbOU0qCLXST5qM-27" target="wSm0zEwbOU0qCLXST5qM-41" edge="1">
          <mxGeometry relative="1" as="geometry" />
        </mxCell>
        <mxCell id="wSm0zEwbOU0qCLXST5qM-49" value="RefreshToken" style="swimlane;fontStyle=0;childLayout=stackLayout;horizontal=1;startSize=30;horizontalStack=0;resizeParent=1;resizeParentMax=0;resizeLast=0;collapsible=1;marginBottom=0;whiteSpace=wrap;html=1;" parent="1" vertex="1">
          <mxGeometry x="790" y="980" width="140" height="180" as="geometry" />
        </mxCell>
        <mxCell id="wSm0zEwbOU0qCLXST5qM-50" value="SessionTokenId" style="text;strokeColor=none;fillColor=none;align=left;verticalAlign=middle;spacingLeft=4;spacingRight=4;overflow=hidden;points=[[0,0.5],[1,0.5]];portConstraint=eastwest;rotatable=0;whiteSpace=wrap;html=1;" parent="wSm0zEwbOU0qCLXST5qM-49" vertex="1">
          <mxGeometry y="30" width="140" height="30" as="geometry" />
        </mxCell>
        <mxCell id="wSm0zEwbOU0qCLXST5qM-51" value="UserId" style="text;strokeColor=none;fillColor=none;align=left;verticalAlign=middle;spacingLeft=4;spacingRight=4;overflow=hidden;points=[[0,0.5],[1,0.5]];portConstraint=eastwest;rotatable=0;whiteSpace=wrap;html=1;" parent="wSm0zEwbOU0qCLXST5qM-49" vertex="1">
          <mxGeometry y="60" width="140" height="30" as="geometry" />
        </mxCell>
        <mxCell id="wSm0zEwbOU0qCLXST5qM-52" value="AccesToken" style="text;strokeColor=none;fillColor=none;align=left;verticalAlign=middle;spacingLeft=4;spacingRight=4;overflow=hidden;points=[[0,0.5],[1,0.5]];portConstraint=eastwest;rotatable=0;whiteSpace=wrap;html=1;" parent="wSm0zEwbOU0qCLXST5qM-49" vertex="1">
          <mxGeometry y="90" width="140" height="30" as="geometry" />
        </mxCell>
        <mxCell id="wSm0zEwbOU0qCLXST5qM-53" value="RefreshToken" style="text;strokeColor=none;fillColor=none;align=left;verticalAlign=middle;spacingLeft=4;spacingRight=4;overflow=hidden;points=[[0,0.5],[1,0.5]];portConstraint=eastwest;rotatable=0;whiteSpace=wrap;html=1;" parent="wSm0zEwbOU0qCLXST5qM-49" vertex="1">
          <mxGeometry y="120" width="140" height="30" as="geometry" />
        </mxCell>
        <mxCell id="wSm0zEwbOU0qCLXST5qM-54" style="text;strokeColor=none;fillColor=none;align=left;verticalAlign=middle;spacingLeft=4;spacingRight=4;overflow=hidden;points=[[0,0.5],[1,0.5]];portConstraint=eastwest;rotatable=0;whiteSpace=wrap;html=1;" parent="wSm0zEwbOU0qCLXST5qM-49" vertex="1">
          <mxGeometry y="150" width="140" height="30" as="geometry" />
        </mxCell>
        <mxCell id="wSm0zEwbOU0qCLXST5qM-55" value="ProcessingStatus" style="swimlane;fontStyle=0;childLayout=stackLayout;horizontal=1;startSize=30;horizontalStack=0;resizeParent=1;resizeParentMax=0;resizeLast=0;collapsible=1;marginBottom=0;whiteSpace=wrap;html=1;" parent="1" vertex="1">
          <mxGeometry x="1110" y="220" width="140" height="90" as="geometry" />
        </mxCell>
        <mxCell id="wSm0zEwbOU0qCLXST5qM-56" value="ProcessingStatusId" style="text;strokeColor=none;fillColor=none;align=left;verticalAlign=middle;spacingLeft=4;spacingRight=4;overflow=hidden;points=[[0,0.5],[1,0.5]];portConstraint=eastwest;rotatable=0;whiteSpace=wrap;html=1;" parent="wSm0zEwbOU0qCLXST5qM-55" vertex="1">
          <mxGeometry y="30" width="140" height="30" as="geometry" />
        </mxCell>
        <mxCell id="wSm0zEwbOU0qCLXST5qM-57" value="Name" style="text;strokeColor=none;fillColor=none;align=left;verticalAlign=middle;spacingLeft=4;spacingRight=4;overflow=hidden;points=[[0,0.5],[1,0.5]];portConstraint=eastwest;rotatable=0;whiteSpace=wrap;html=1;" parent="wSm0zEwbOU0qCLXST5qM-55" vertex="1">
          <mxGeometry y="60" width="140" height="30" as="geometry" />
        </mxCell>
        <mxCell id="wSm0zEwbOU0qCLXST5qM-59" style="edgeStyle=orthogonalEdgeStyle;rounded=0;orthogonalLoop=1;jettySize=auto;html=1;exitX=0;exitY=0.5;exitDx=0;exitDy=0;entryX=1;entryY=0.5;entryDx=0;entryDy=0;" parent="1" source="wSm0zEwbOU0qCLXST5qM-56" target="wSm0zEwbOU0qCLXST5qM-44" edge="1">
          <mxGeometry relative="1" as="geometry" />
        </mxCell>
        <mxCell id="wSm0zEwbOU0qCLXST5qM-64" value="" style="shape=image;verticalLabelPosition=bottom;labelBackgroundColor=default;verticalAlign=top;aspect=fixed;imageAspect=0;image=data:image/png,iVBORw0KGgoAAAANSUhEUgAABVgAAAJPCAYAAACJjr98AAAAAXNSR0IArs4c6QAAAARnQU1BAACxjwv8YQUAAAAJcEhZcwAADsMAAA7DAcdvqGQAAOuESURBVHhe7N09cttMm+j9S14L6VOj0rOAoVYgagJHCo8zKhQncKaJxpmDIUMx84SKHByTKxBnAaPy1DG5iFPvBvj2B0A2QAB9AWxSlP3/PYX7sUiw0d9oNIHmxcaQPQu5v/h3+afVUsa97KWY9UQG/1vkP5dj6YX/zt5Oy8ZvKLPsr6J/lv9oE++z1aEM3oX9shvNN/J0k/1xcmuZDPryr/+V/fnP/yGro9VbAAAAAAAA/Gk+ZP+fsZNNF3LhJsD+S/61b/99L4vs3Ua9sfzn3bP0L8xn+v8q//i3Y09S2YnUjdj54d02l1H27vt1QBm8G0HZrf5D/nv4RumzXwRc9OV//i2oQ/8p8n/+rMwGAAAAAADAEQUTrP5Ovue7VTZRmU2CzUWGygm+3ni5nah6uzsS37PDy+Dd6f0v+Yf8t/zfdfb3yZi8/t//Kv8o3z3bG8uYugsAAAAAAACl3QTr+v/I83+N5N/Kz6PfPMl8NJN/n/gZsMW9vaMy2+7zKT/72PdAsl1kPRmY93d/+4nD4HOF944li9PC3qXojzsIDlqfjuD1wcTEPH89j3O2T/aZ6nA6UpaBv/Nyd9zdYZvSnMV7myavXFb76SmXnd3u/c4pLH7IbPRv2TIIYT7vx22bBreFr3eQ5fWn2snU8FjlYzbls3n3HOsWAAAAAAAAjmI3wbr6H/mvf/4n6Wd/1rl5yh6ltndYzv69YpJrId+e7UPgZflj4ad8jP+/5F//XeQ/bXxX/yHyr/97G9/6dATx/K//kVX2qmcnG4cic/N+dttjPD9aUJXBQu7tEgw2Dlm6/nsYTjbWp9mm7Z/lWf7P9u+1/J//KZbVfnp6Ml5mf2/z5inbu6t86QOz2eysvN25ph7ZNVJdXBKI5nWe3jz9oXdWtwAAAAAAAHAUuwnW/j/JP+9N+lhr+b//LfKP/5XdVbm4z+6qq/6RqcX9UOTf/k3+kf3treR//usfkgdxOv8s//Gf2VqwvbH82+i/5H/yBNamI5/8czN/Ek79Pf9v//h+YT4wkh+taMpg/X/lvyW487KcrqY0G3d3/5B//ZbdDbn4Js//dFcsq5TpqRVMXK7+Sf694m7Uynpk73b9x/9Kt7ZvZV5rvbO6BQAAAAAAgKPYTbC6SaLgMfTc4pv8a/4otX003d1kZyfHVvIf5dsLVxP5d5nvr79qJ8YUd8cel5+k9P9sSkc++beSf/r34p2h9r3/CmcrY/nRlqYMWgnSnPuXL/If//1D7BTr4sd/y92//C//upU6PRq9f5G7fy5OAtfVo8WPmYzaZ0I1d9yZ/Ejy5P07qFsAAAAAAAA4iuBHruwjySu5e+5nd8xld9u5SZ7sbrvwEXa3hqX9R87sP3yWuy/7E2B2Yuyf7/4l3Z2Hav8lz/nz8OGam43pCBXvDL37z6XMZbhbb1Mdjl60DNyPQgUTg+uJ/PssnHytSfNWT/7l7r/l3ycT+SH52qeZI6Qnyh3nn+WftrPvdfVoIT8K6TxUT8b/NpLZMFzD1jD5OVFNur6/ugUAAAAAAID0ChOsbtKpYr3N7ZzWzRf5D/lX6dvHlv/3/8g/SnfV/fN//Gdxwk78DyQN//s/5D/LP9x0Ev8s//if/+0fs3brlmZpaUxH/hh3X/71H/t3UW4nQO2PFEXyo5tIGZh/Pbl1V20cbbqe5W4Vvl+T5kBv/G/yj3/9V9mbrTxKeqrkeZzHf1moN/v1yP74k51wnsnQfmY7+Xzgj23dPGVr2GZxcekW+ZdyhlV6j3ULAAAAAAAAqV1s7EKYfyQ7Kffv8k+lybs/25+aZpuuH/KpMNHsX3syr53e31i3AAAAAAAAUKV0BysAAAAAAAAAQIsJVrwDN+5O1eIT9f41AAAAAAAA4C39wUsEAAAAAAAAAMBxXfx//9//xwQrAAAAAAAAAHRw8f/+3/9jghUAAAAAAAAAOmCJAAAAAAAAAADoiB+5AgAAAAAAAICOmGAFAAAAAAAAgI6YYAUAAAAAAACAjphgBfDnWNzLxcXFdruerrM3ADSi7QBAWn9qv8r5AgCAStkE61qm17sT5cXFtXCuBPCeLO5N3zV8lclqI/a3++z28tDL3gVQ57zajh+PbC/Y3YX8vSz8Xwkt5D6YIChujIEAHOZPHZMw1gIAoN4Hf5HRl7FMZJWdKDeb7yLfpuYyBwDegcW9DGcDM+B/Ecb5QAtn13Z68vA4kuW47yc7hzMZzZ/kJns3tdF8N0ngtvkoewcAOvpTxySMtQAAaHRhriU2w9eJrF4ezGUNALw/9o6Kocxl83SsaRjgz/T3th375fJQZL6RQtLtHbPu7iwmEAB086f2q4y1AABo9uHHTGRwdxudXF1Pr4uP0N0HD+ytp3LtXg8f49stO1DctSEclfJyBsG2DWv3iGHheNfFu3LdYy6F17JHBstx2qYv2Er71KerFKYLa/f4oYtDmG/24q4yHCtLe+nYLozgNXW6Go+lka4sHE18yvvU7OfzNd+Cxz2rPh9sYVDNdbUu7RWPsirqjypdTfnTIl0x8fpTk/aqMlWqLa9cU9rNUX+/mn7ssl8MR1PH7NYmcwKHxjneLnR1LF5eO9E4K2jaxeHtPUt7KQ0u/uV0NZWpe6/q8XKfR9vH0JUO7hOq4hpsYXCNx0p2ztW1HXUd69LXld5vU59PpTkPM5G0V9bdgpr6U9F2Dq6HmcZwWtTVWJk6mvw5tNyTtQsrO355y+LoP1/Rh2ZxaBPtNml3+27jUzy+i1NVOKX4pCj3eH3Way4L+tVdvIIt2KdN/TmMJl0+vzRjAFW5l9JQrnfxtCeOT/i+247Tr5bT2VU0fyrr/C4NbcdIAACRD+ZcKVcfI9Or5oTwWb4Hj9HNZTQb7jre1S9ZykAGg5n8yHvoxTcZL7N/Z2yH3R9fybwUTqeTyGgexGcjVU/12UcM+8932dIHK5nIWPoNx1rcD2WW/bsgS1++3lD5WM3pupGn1UQG5u+9Q5t8Hc5G5nPZ44/2xOtuqKkKp7vKdKU8VoqyUMZnbUd3YvMsC2fgX9/xgwd3V/Y2rO8iP7Nwbp6y18xmyyUoV7ttv5SP1flcIe02PjMZlgdukfrj024fgw3Dyd7LxfJHm64O9utPTx5edmH7zcRnOZbPrQdjkfKyonVjJb9MX2PrmLuzwu1TV8ci+aySIs6eqo/S1LFAdT+miLOGSZemXaRq7xrxPiERZdoby0vZTqPnymTnXGXbKel6ruxS7rXHOhH1uCWW9ihdv6qOT6zfiNXnFudKVZm2zJ9O5Z6sXezsLSGRPe3Ve3g0vc5Snn8W2//i21iWg4l8SXrOtdr24XZ/E46Ji91fPbY54liiEv3qVud+teR4faY+XbExQJs22EZd2pPF51T96pHs5U/vQV5cPGbyNY/jeiqfTaUfTFasrQsAHXwojRuqmRNCsZO9kU/mBL/8tcr+tq7k7s500V/9iWbxY2Y657m72H397V6Rb6bDLq6ldiNPdqQw+9rpTqooO7DcLn3Qk1sTP5n9MDGpYE6Kw8YRyZVUz0Mr0mVPYObv2TD8htAMfgtry61l+tXm2ZdCOF9sBtbFWaMyXUc6VpPGsmgZn8Gl9LN/lq2nX80wYSTzwpIX5sL1YReyiqrO17j6GBw7V1d/TJyzCaJPtVF8g/LKRdvFYeLl1SLtduC7HZ36dRzDviWezzpJ49ymjwpV1jGjprxO3i5StneNhj4hmeR9Qh3tuTLhOTfSdgo6nys7lPuR+5+4tuOW+n4+jQPHUWE9PKQ+b7UtU2X+HFTupxqLZvn1/NMdx1uIfSps9Bj2sy0l6cODydXC/kaSck+IftXr3K+WnKLP1KSrcQyQqg2WNKX9mPFJ3q8eSV3+ZNeoy/Fnk1bTd/THsjRlXEwHAEDrQ/b/UYXHQey36OVO2lzg3t7eyWD5LD8XU/k6G8jdbXDJu/hhBocDuSxfBfcvzatLOcq5pzT46n28Mv99FTdGKsgvEvwgqsxNzNRdwGvTZU6689FMhvbEZf437pvBrzmB7b6t3H0zHOZz35z099hvVYN96gdTdelqcaxUGstCH5+V3bGBe3/0KRgkdRet81ahLPoyvgoHnl5j/TF8XgR3TOx5g/JymtqFea/wuJS7han1gCxeXvq028fWCkptMJ7POinjrOqjFHXMqy+vk7eLRO1d09fF+gRb5sNtGN2WRcil6hMaac8pCc+5sbaz09QnxPq6tv1Y87FOokUexvp5p1Sf9x8vNWlu6lfbjKMU9VBVnxvpy1SVP86B5Z6wXcTcfJmY44zlW16ILuxDvsSrT7u6Dzfx6ddNrmYOL/dMtD7r0K821/mTtR0lVbqaxgCd+7GmuhpJ+1Hic6x+NZOofXmR/HHXqNm1qf0ip03bAgAUfLD9rP9Wtp49WfhH2XePMdgv9nLu5G/1HuTRdtBD++3X47v5gYjV9LOMZSLfH6qHL25gWzo5t5etXTQamRP2QEYjk/Ovv82rRXuPo7kt/FbVsN8eB++HZRGKpUt1rBOKx8fnYX1ZZO8nEKvzW+WyEDsgKg6CovXHDGzso0Kvw3wQZQZt+9enJy+v5vrTKz3OOhex8W/1eJe+vJrT3pdLzcWEMp+bpYpzC4o6ZtWX1xu0CwVV/kT7ulifYO3ia4rfXEB0nwRI1SccKt05V9l2MinOldp2ETvWuVGNE/bqs538D+tGin41E6mHp27L2nHUIeV+8rFo71b8jXA+V/3djuHdvO0k6cMHE5nbGZRw4jeQstzj9TmOfjVe50/RdnTapSuJvTqWvV5ysvPFCfvVFO0rF8+fdONEAPjbfbCDw+IjTmX+kSft3U/uG33zv4lbgKon9ktC92hE3Te3bm2hwx/b1fCDp9JjNmYQOhybGNQ+0uVPOnvf2OaU6VrnJ7cvl+7vyy+PpbXV/MAlH6gfrDFdiY/VQbEstPHxd8uMaiuLr28moAMH3e3qfOjGPgtUuAMxUn+c3SM5fiBl13XK3nLeoLyi7aLMPwZV9aVBPU15adIe9DOB9c/nUt8Sy2eNVHGuVtlHlezXMaOxvN6+XXRr7xqxPqGo8g5hlZR9QkTLc+Vh51xt2zEOPVe2KffW/c+RqMtC08/vi9eNUr96wDiqeKzu9blIW6bK/ElY7qcZi+aPR9u+1ebpSB67zuYm7MP7Dy+yMie32bD4w0zpyr1a677ugPjQr5acpM9ska6SwhggaRs0OqQ9VXyO069Wa9++Mor8cdeoSzsxPDcpnjWu8w8AaPbh4bt/xKm4QPlapvd55+oH0OHEif+GLvvDKHy7atdy2bzsf+PrvhE248OKdUgP+cZfbbtod8WxRuGj+iVugXv7iFDNaUmTruzYxZObX9/Hr3lj/87XBKr4MayuatN1hGO1sVcWuvj4xdkjgx03KDaDg3J9nrZJaLzO11m40VUwQRarP4ZfWy0fyFd5o/Jqahd7soGl4i6LULy8dGl34YT7VLT3eD7rpIrznqY+KrBXx3IN5fWm7aJje9fQ9Amh2ryLStgnxCjOKSnPuZq2s3XIubJtuSv6H1sG7m70QytSHe24RdHPV3F1Y3An9R8r9ava+FQo1sPu9blIWaZt8qfVeafoTcaiN5/8hIR9LP/QiZWEfXjv4cXdOVecZE1V7tXi9bmMftU5qF8NtOgz935ETKlVunLlfVK3QatNv5EwPsfpV6u1b1+Bxjp275Z1Gbk1aLO1Z5fVP1qb15+jnXMB4E+wceYb051u7J9+G2wmK/+Os5pszDlj+/7AvLmaDDamN3Zvm754++8y995gssmDc3+XwmpntZkM9o9XjEO2T3Acu5Wj6OMyMqnPFcPO41qOY/FYXn26srzN93d5ucvfchxcvgbhuK2crqpjB6+Vw6z7XPOxNNKVhVUfn+owClshwEh9zpXKoiBS52vjVFHXG+tPfpxC/A8sr6Z0KcTrT03aq+KiEi8vVdrno8L7hbdb5LPOoXGuzsNiVGryOahjlra9a+Ic1bFdVGWxKn9KH9y1nZq8CTe7X6lO7NLs86LcNhsl6BMKIu007z/yLYxroQ8pce+1Pec2tR3Dh5HmXBlry7Fj7QT5vfeehq8Dex91eVEsl6Y81Ka9HIbbCnWjpv5UpK0pPrXhlOthtD4HInW1qUzb5Y+m3OuVwwy591q1i5r6UcGnv0N/mtGnvbkPd/EolXOezm36EpV7Of/cVq5jGtH4KOtzLlJXm8rdvZes/hgn6ldj4YR2bTXcv6XGdFWXV0VUtunLt2I6q9PQPu2J4xO877ZyPTyz9hXNn7wsS/HLj198OciDqvQAAJwL+x/TWf5h1jK97rAIPo4gRVk0h+G+IRbKGu/Jn9pHnSpd9AkAzsN6ei3957vaH5UCzsdC7iM/gnaYcxvb/KljLQDAufqQ/T9wxrL1xwDAoU8AcAbc47Uik+9MruL8+aWS5MhrtQIA8PdighXvws3Tpvbb56b3APyZ6BMAvJXtWoTDV5msKtbqBM7JeirXpr66LwNWG/16pQAAoJU/dIkAAAAAAAAAADg+7mAFAAAAAAAAgI6YYAUAAAAAAACAjphgBQAAAAAAAICOmGAFAAAAAAAAgI7e9wTr4t7/imu2XU/X2RsAAACJMN4AAAAA0CCbYF3L9Hp34XBxcS3nfu2wuDfxHL7KZLWRzcZvLw+97F0AAIDDMd4AAAAAEPPBXDrI/UVfxjKRVXbhsNl8F/k2lbOdY13cy3A2MBc7L8I1DgAAOArGGwAAAAAULuYj2QxfJ7J6eZD3cu1g7yYZylw2TzfZKwAAAGkx3gAAAACg8eHHTGRwdxudXF1Pr4MlBMx2v8jeMdZTuXav38vu1d2yA8VdG8JRWcvvVxPny7678NmGcx3eceuPbddIKxyvsI/XHJ8sDaU4uuMGr5X/7qa8TEOwbcNOla4szoXP2TuZ9/ezCvkcLh9RWe67Y4dr1MXi45TWuCvvF41z1eeDreqQ1TRl4anSZdTmYYsy3Utf1bEieZirjY8qD+vyp1gPrMb8adFvNKuJT4d24d6vqmNmK+y6jXtFWC4Pd2kq5PU2EB9ueR3H/TpuNJZ7lvZSOlw4wWv74da0d2X90aitY8nOF/4zjW1HVZ91tHVDE+dynhbKq0UbTHEuiKarRR7GjpXOLo6FbZuOeP741yuWQ8rqZ57P8fGGlybtsXR5zcfataXi1rJ/zsLpdG6yW4f0q9JVCrfc11mqsmjqwzPxcFKUVwuKfI4dy71fiF+xvfvPR9pFiz58L86FNxVl+hb9T4J8DvO1sJ15W06WhwAA/KU+mGsHufoYmV41g43P8n279thmM5fRbOhO1s7qlyxlIIPBTH7k5+LFNxkvs3/nYuGorOSXCXc57vu7Slw4K5nIWPqlgYDdp/98ly19sL+PHUj0x1cyL8XnTQcUozxNfpuPstcDx0jX4n4os+zfO36A6O5w3ob1XeRnFk7vQV5WE1PyM/mal6EZeH82BT+YrLZr1Gnjs7ZXsjLK9jPpGvjX6+zF+eYpC99sLl72sc78mBtpfQNSpCx06YrkYSZWpm7AP5QEeRiJT5s8LOSPPdZMhsGAPZo/2n4jqicPL/kxgmMtx/I57Fta9z82r0wdG/i8KqQ9i3ueN1Xt1DHH9I8X745XKrJmynJvq7K9u2PNTLHmx4q3wWqROpb4fNHYdlL3CVvVdSPJOaVFnDX9xsF1Xhuf1sc63K6uZlvpSZym/Ok9PJqecinPP4vxW3wby9Kk/4tLl268kaTcA03pUh/r0P45ozs3Jeg3UtUfbTiRPrxNmTbWw4TtInZ+b18P99u7ql206MMPPn+9Qf+TMp/fW1s+dR8OAMCf5oNqLsMMcIo/6HAjn8xgdPlrlf1tXcnd3UBmX/1Jf/FjJoPJ3A1MXn9nJ2dVOEp2wLEdWfXk4dEENPta/NbdDhq3g5me3Jr4yeyHGVJaC/lmRoOj+ZOJRe5GnuwouxzOuUmdLjOoMtdHe9bTr2Ium2QeXiyYfz087EJ2k6wm7OX4swnbDNb7ZhBuymZXzi3jM7iUfvbPRjVxPh1dulR5aDWW6VqmX217+lI41hfbuLb7BBryUB2frq4+ZuFqy13Rb6TSqv8JLjwLeRW6kuh3U/4RAbl1+/njzbZXpDEty12rrr1nF5WfDqwKujqW8HzR2HaOoa5uvME5JZb25HW+QcrzeyqN+ZPF7/mnq4PeQmyTHT2W0t843jhluR94rNb9sxGpY6n6jWT1p1U4dX14wjJN3S5qz+9t41zX3rXtItaHH+n8Veds87nO+bXls+zDAQB4Zz5k/x9VfNzzYv8C3QxGbm/vZLB8lp+LqXydDeTudn94Eg1HyT6yV9C/lIEspTAO2A5AvN7HK/PfV3Fjv8UPMUM/KQdTGY79JjgW59I+VY/wJJMqXU4+CPYD49DK3roz+hQM2mqYQdl8tJRx3wzW7cTK9kLUaBEfdzyV+jifjDJd6jxsKtPgLqqwjvXNoLoslofq+GgU6nxfxlfBJIS23JX9RpypE4VH6dxtM6WLBRMtTf+zHEs/MtHkJhUaJrJN5sgwD79Utl524TL+1tBP6Mtd1Uc59W3H17ngjqSOVHUs5fmise1oleuP3Soek22qG6nPKRqKtKeq8xqpzu/JRPLn5svE1MGxfMvrvCvD/cnCxvFGm3I/VOc61rF/tiJ5mKrfsFT1R9F2NOE09uGJyzRVu2g8v7eJc6S9q9pFtA8/xvmr2dnlc5M24ZyoLVtn14cDAPDOfLDX2LE7xewJdzgbBY+fFB+n8ncwGL0HebQTbUN7F+Pj3i/uxsLR6cvlqSfVCo/n1MR5bx87wXLESdZEVtPPMpaJfH8oj8782nM6bfatk4VRGgBWqY/zuUmRLzt7j5q5LbxrIZaHaeOzV+fFXgTo67y239DplZYJmItpgIVH5NT9j7nonNvZx/ACs8RdgDXWVX+cpv7t5invJ5ovZuLlbmj6KKOx7dw8uUcwX22+ufiYC7mG68xq8Tp22vOFVrn+2K3iV+MVdUNFWV6HSlnnY05bXon0bsXfxOUT7e/CC++4e4PxRioH9s9qSfqNFvUn0na04cT78DTStQv9GCkq1t4j7aLNuTvl+avJWeZzKidqy++yDwcA4Mx8sIOo4qNAZf7RIO1db+6bb/O/iVuoqSf2C1L/eEm7cOqFYe6sfz7LMvKYmh8UZo+E1X3b7NaWOvxxtxt7e1rru6i66ZwuM7gemiuhvcchHZ/PhceHaqztpM3SDsrm5gjFtaH08fF3O4xiGd8Y5xNSpUufh2WFMs0u8uOPlsfysHt8NAp1vmX7qu83uvJ3iMrr76wutut/+g8vsjIXoLNh6Qc7HH8BtndXW4W+LbhtHLzwc3aStXDhVLiY0Za7UrTt7Jb48PHpspZiuzp2jPNFse2kV1s3jnxO0SimPWWdj0l1fj+u/bqRP+5v66tNw0geC7NE1X1RYbxxynI/4FiH9M+h/TxM0W+kqj/acCJ9eLIyTdkuIuf3lnFubu+xdrFT34cnPn81Ot98rnV2bTllHgIA8Pf68PDdPwpUWOjcDD6n9/kkWXYHRzBJ4L/lzP4wCncC2DU5q+78UYSj5QZ0s+DHYrY/rBTeeVJS3sd9824Gf8PwW2BzoWAi1BiOkv3Gf7f24hEdmi5zURQ+0R/yA+eZDMt1Yxr8vbh3j3yN3PpP2bpPpj5tf1xIGR//ozvKwWlDnE9GmS5VHpbt1ed8razmH0jS5GGn+Ci5Op8P1hX5o+s3usouFrZ3obTvf3rmAtRW570LUPdjHvZxyHhk3SN4y1/mks3ycYr+qOCWrtxbaWg7fu3U/EK5u1gdO+r5QnMuSKCybij7hKPZS3vCOh/V7lj2PXu340l/PKWubtx8Mr2mqa/2kemKyYXoeOOU5X7Asdr2z5Uq8jBNv5FqfKgMJ9aHJyvTVOmyn4uc3zvEubG9N7QLXR9+hPNXrfPO50oHhHOcttytD2/1g2UAAPwNNs58Y87PG/un3wabycq/46wmG3Pe3b4/MG+uJoONuVh3b5sB2vbfZe69wWTjgouE08p8tA3HbsUgVpvJYPde9T6ei1+wj43TThZO6YPl9JbDcFueZjXNsVKlK39/ZEo+V318s2d93cjLoCrO5vXw5fr4VKepsGUB6eNsuLpWqsdqmrLw6tMVampf+jJ1baW0n4+PPg+9SHvP1eZhzfEq6nxT/lTlZ869p25DNfEph63of9zfpePmabD7h/8OFdLi2sWunuafcVtNenNV6a4vd/euqq76ODS0nTxvCuFUh61TX8fKcQsV0h8tr+pyr43uQX2C/Xhz3cjlr+Vbsa7oymurZRvcCyJBnS9oykPFsXLudbdfWCfb8PWrKsu8dnXDx6ehbjSON7zmcteKpctT1bHgfbeVytjqEk4hbnmZF1+srONR0fpTHe5e24mEU1e398IxmvPHUpRXi3ZRraY8wy0IKxZnd2xle69rF1V5lXPvBeH7MHbxcdv2s8oyzbm8PLz/qZY2n80e76stW+o8DMJT5y8AAH+HC/sfc5L8w6xlel1aCP6P8CemqzlN7ht0+dPKMZSiTP/2PMTf6U/t5zXee9oXNb9gnkq7/FlPr6X/fHekuLxXf3P7Oidvd37/u9rF2+Xz8dGWAQA4lQ/Z/wNvJFuzEQcgDwG8H/6xcnn7tbQtt8yNyOQ7k6s4R290fv/r2gXjKAAAcDgmWPHm3A/91Hyr3vQedshDAGdvPZXriws/cbPavOla2ts1BIevJi4p138G0jrl+f1vbheMowAAwKH+0CUCAAAAAAAAAOD4uIMVAAAAAAAAADpighUAAAAAAAAAOmKCFQAAAAAAAAA6YoIVAAAAAAAAADpigvVvt7j3vxibbdfTdfYGAAAAAAAAgJgPsp7KdTDBdnFxL4vsTfzZFvemvIevMlltZLPx28tDL3sXAP4Ea5leB18euS+VOM8BAAAAANK5mIwmm9unB8mn1eyk23AmMppv5OkmexF/HjvJ4CZXX4Q5VQB/NNffmRNbhvMbAAAAACCli429bbHA3u3Tl7FMZPWym3jFn8VNpMtcNswyAAAAAAAAAJ1VrMHak9u7gcjyWX7aJypLa3SWt/vgOcv19Lr4fvhmi3Bi3HGup7JbLXQh9xXhNMYne2y0+JqfeNy+porz7vHTwvEK8fOa46NIV7I8XMvvV5HBZd+nNw8jOLaP67XsLcmaLSlROFZVvMqRKe8Tvp8wXa5MK8LYHU9XXi5fqsqiFE45nYX6Y0TD2S7RET6yvEtHGHxj/VHmYTl+hyrUn6C+qOqPJu2KfVrVVaW6dGnz2WosL+NkdSNwaLqicVbZpaG4VT+2XxvnXFPfYqSJs9eczz5dmnNBc5yz/KlKRznOVeWW7+Peq8pTn/42620ftdwr8kdVn7fto36/eDhZOspbVZlFvKu6kWmMc9Xngy3cNVXam8NJTJE/Kcqismz2xOvhWbZBhVR1I0VZOA3l7uNworFEi7Rr8rDwvt2CcNKlq+ZYdovlc0WcDy/36nNZua20aTv15ZVRnHf24hzuU/VesO12M39XxK8tl79VaQ+OZTXWMdVYVF83VPW59JlyfmjKtE25A0BKlT9y1ft4Zf67lF8r8383T9v1OTeriQzM/8I1O/MbIG2H2R9fyTzfdzOX0Wy468iU4bRnO8yhzAYTWQXhROOj0SLOy3Ff+s93Lg6bzUomMpZ+eCxzUv0s33fhZfEpDwx2KtKVLA9X8mvp4+zuYnWfL8a59/AoI1MHnt0s+87i21iWJk5fgmOt7Wyt2dvntQln4F/fsgOKoZyubozyNPltPspeD0TLq2Rxb8oi+/ch9sJZ/TK5bFI8mMmP/PCLbzI25VMQqz9Ha191/EBl+Orrpz/Od5GfLeqPJu2KfdrU1bjmdGnzuUv/07Vu6I6VJl1lB7WLQju1/cZMhhWD4do4W7G+pULnOCv7cM25oG2c60T73iPploc9eXjJ0xykfTmWz2EeKvM5bx95PS33823aoF0yYnc8s7V9euc91o1YnBP3denHSIc5eNxyBG3q4Vm0wRhlOOfSLk46lsgc3i7iZZo2XUZsjK0sr1OWe6i67ejKK3be8XGeBW251LecfKwesmk0aTdlbtOo7sOVY1FHUTeO0c9r+sPOYz8AaKniR67MFqxVp7OQb6anHc2fZHduuJEn27POvu5/A5hMcLIoDETfID6FOGR3Ac9+mJhkzEm1+ANSN/LJRGfpZrHL6tKVmD0Rbs/mZpD2GOZPFr/nn4UJjx+maoweK+I0uJR+9s+itUy/zkz2fCmUxRc74gjz59Ri5RUyA4LWTaJKbThXcmeOP/vqJ5cWJpMHk7kblL3+znK/Vf05vvX0qxmomIuUQv00deghL2Vt/VGkPbpPy7raIJ4ujQ79T+e6oTtWmnSVpGoXoauP2/jF49yhbzkkzto22Ni3dIhzTG3feyTHKPdQq77uSj6Gu26deAzwHutGknNKi3xOOkZK5L2NW3Jn1QYbvLt2kcXvlGOJk7SLdOmKa1Fepy53q6bttBsj1Z13TDjZBP6nqo+9qUOvlzVjdYVj9POa/vDYfSYABD5I70Fegm+b3Oa+VWth8cOcmAZyWR6x9C/Nq9mdsKktx9Kvm4RsEx/7LV0wudy5Aw4mBix/F/CrhOed4qMnNcdqSldidomAglL+3Hwx9cDE51s+knH5uj9wWNnbYWvt7pYN0943J/Q3pSgvLx/k+YHEHnX9aQjHDPZvb+9MXj/Lz8VUvs4Gcne7P/xX1R+NUpzrHs1u4sp89CkYkO1T1R9N2hX7aOtqjCZdUa37wwPqhvJYSdJV0BBnrUI97Mv4KvzCRxPntn3L4XFWtcHGvqVFnBV9S3Pfa81kuA2j4nHH1g7NQ/P5wmOE7vak0gWXLp/dhWzdREnrNni491c3lHFu0iafU42REmnOn7RlkeKcu3M+bVDjvbWLk48lkrSLeJmmSldci/I6uNyzybnxN2V7qm872vJqPO8YPg3BnZ6HSNVvmHI/+HpZM1ZXUvUJmn7VqS/THc0+AJBO5RIB5kxjutWKDvecmBPF3PaU4YChC8Xj5CnYE8pwNgoewag5Vqp0NerLpeYk07sV/4Wyj4j/xjL8Ntny67mWB0ple4++uS38xvQ8raafxf7g2/eHmsagrD914fhvu43egzyOljIejmU5epTStY6+/mjsxdlOwrQZuGVlHhOpP5q0a/NHV1djlOlK7NC6EZc+XdF2oVGuh2IH1Hk91MdZ27ccGueUbVAV52jfoul7d/FdTUTG/UMmdlKUe6/0OOtcTOdTeORTm8/ugjhy3jmV91g3kp5TEjhtfDRtJ1VZGAefc3fOqQ3GvMd2cW5jCV0exss0Tbr0tOflmFg4N095e4pPxtW3HX15Rc87N0/uJqVXm/8uPv3qR+k1UvUbB15XphuLtugTNP2qoekPD+8zAaCdyglWe+KVwZ3cajvPurtC3ETtMb4h9foPL+aicSAzcyIrLMnzRvEJ+RNS/hiJfxRHewdZbbqS6Yn9krX8SMb653Mpf8ygzS0bYB/HsWkYyePeGdV/yzyqzVQ/mZsP6s5VsbwyZjAyNCOjgx+hUobj7jAw/5u4BbHCMmpXf9q6sbcAlO6YaObj5utFE0398erTvtO8j/5Y9bTpimjT/xxaN1THSpSuXKp2UVKsh5o4t+hbDo5z9zZY7FtS9oexvreo6s6oVo5S7v4OJHn9bS5xLW0++wvivacwcicdA7zHutE9zgUH5PMhY6TDve24pf05N3NWbTDmPbYL623HEmnaRblMrRTp0uheXl3L3U6yRifjGtuOtrwi5x1nIfd9OwGZTxCW1mA9QOd+w0h1vawZq9dL1bdkNP3hUfpMAGj2YXrv11PJ2cWuhzPTeX5v0Rm5b7XMuWkYfrNmTjLD435DavXMScOeTAsnjTeMj7OeymfToe+O5QcK4WDHf4uX/VGhMl0JuZPkbLgLey/OmZtP5hRrvzUdyqzipOgXDW+6kMrXVQqOdW7q0m6ZQVKSRedrwil8G27q7cvmpeJb4fb1p42FHfG0+ULF8IMsUy8KhbqW6bRUyA31R5N2Xf5kInVVQ52uJm37n0PqhvJYSdIVStUuAq4ebi+uNHFu2bccFOeObXCvb0nXH8b73qJy/naSvNyzC67tHUHKfHY/sGEfUaxJTNs2eJD3WDcSnVO65vOBYyT7nr07rOsPo7z1uKXLOXfrXNpg1HtsF5m3Gksc2C52ymWaSZCuuI7ldcRy32poO6ryip13DL+Waz4BmdZB/YbR9Xq51Ti8Uaq+JaDpDxX7HHpOAYCCzWqyMf3dxv7Tb6PNfFPD7TvYTFbZ3yWm4w7Ckc2gbsdIODGryWBjev5N+PH82OExm+Oz2kwG5vVRMbXuM6XXnNo4Z+EEx7HbXhClfLZxcekIdtSmyzkwD535aBsfu1Ul23Lx2jtWdboLWzltDe9vHZQuTZnqysvne9gWymFrjhUPp7x/yL2X1wdF/dlqyEMfn9JWqnN6840ZlwVhVR+zuv7o0j7R5k+m7ljt6NLVlM9WOa/Lbdi/n6Bu5H83HMs7PF2xOOtknynExWyV9TAe51jfkibORrQNVqer6jDNca6O364+1ORfuNn9Sv37Lu98nlbXkWpHLfdyGJF8zut6ZXsqhZXvG4ZV5POiVTKqvLe6YUXjHGjoE6zmfFamvUV8dnkU1kmNFvljHFYWXjlv3LbX18XroQ/nPNqg2ntsFxl/vPo6r9N0/lKmvWMeltOTOyxdsXzeUZVX6f2qKDeHU83FZ298pGk79eXlwyj3baW052VVCLfuWIbbv7os8uMVtsoxUjOXf6XPVaWlfLy992ry3L3nwlfWDW19joTj49tcppp9crt61vacAgD77CMMOEjDyfMPUXWCjqV776R6Nv788jo31fXnOE55LKDoVH3Le+17/2Z/c904RtqziZDWfT1t57ycb7s4/ljiVGkvOo8x0tukHajX9ZwCAPuqf+QKyC3upT+WiiUjsjWLgCa19ecITnks4M3Q96LO31E3/GO40mFdPdrO36lluf+pYwnGSECl7ucUANjHBCsq5evRXAxfZbKqXm/HLSxfs7BN03v482nqTyqnPBZwDuh7UeePrhvrqVybvt5NEq02ndYipe38nTTl/qeOJRgjATUSnFMAoOzC3saa/RsAAAAAAAAA0AJ3sAIAAAAAAABAR0ywAgAAAAAAAEBHTLACAAAAAAAAQEdMsAIAAAAAAABAR0ywAgAANFnc+1/izrbr6Tp7AwAAAACYYAUAAKi1uL+Qi+GrTFYb2Wz89vLQy94FAAAAAJELc6Gwyf4NAACAnL1z1U2uvghzqgAAAADqMMEKAABQwd69OpS5bJ5uslcAAAAAYJ9bImA9vS6sLXZxv3Bv6q1leh18Pt+up+adItWx1lO5Dvep2C8ezkLuw/fzrSJO9RKla5ueexOr3C7s4q5N6fKfsWu/FfZrFZ8sX/K/XdyuJV9Ozj0KmcXT/bsQdumzQRqKW5hOrzFdpbXtylu+q4tP+LlDVB2zFHZzWSgo0+WU9w3frKw/u/jp1wKsKy+ztUq7vh42SxWf7P2qumq2YlY2h6OVLH+ayj3Pn1IcK9vBKerzIfHpeqwwDLu16us89/7BdUOTdh9uuT2W+9Hy39v45OG06TcMF972/V1fvqWoGzHROOci5251OI1OWw9/v4oMLvs+/DycIA2+3lTke5YXhUNqyqIpzi3rRr2a9hWeY1qMW+JxzsIojDd82Ye7NrbBNmlvik9OU1erPlehUDcKdUGRzy3VH8uL9Ydt1B6rRVlo+tXDxrSWok8I62FBdb+tcVBZqPIwnj/+9f1jmzda9j+KPDTc35E+3MWpah+zhcE3lykAAO/TB3vC/Szft+uKbTZzGc2GLQcbPXl42a1Ntg1nOZbPYTjaY61+yVIG2/XO5qPs9Yw9KffHVzIvhVN1ch7N832y7eXBxFYrUbqy9AwGM/mRR3HxTcbL7N8ZbbqW4770n+9k5fZZyUTG0g/3aYzPjTytJjIwf+9ll/nccDYyx38ye+1b3A9llv27YDQPjmXiY9I5DAdXsfy5edq9Z+MWlL3djnHj0NpeNYtNqz2GjbN/PdemjtXSpsvkz8VQ6o/Ve5AX9/mZfM3zzAyeP5sKNJis2q8FWCiv7u0rWg+1EsVnxw7mTV0dTFzcwnw+vK8zlOFo2mljubcQq8/J0q6RJF2Jzylb1XUjSXvvaK9fVfeH/qJ1+OrT4t//LvKzXMdmwXmwom50UHsuiJy7y2rDSSFJPVzJL3Oetm3Z3cWa52HQlnsPj6blLeX5Z7HOLb6NZWnq2Zfg/KVpp41xTn2ubDp3K8ctafLZiLXlVOfTXMu6Wk3RBq3YGEklfqx0/VjkWMqySDWWeMv+uVqCsmjRlpvyJ2n/00G8D7d5tX/OjbZ3AADeqQ/2JF+coLmRT2agufy1yv5OqNWxruRj5bzRQr6ZEf5oHk4C3siTHR3Pvu5/i3sKqnRdyd3dwETRD6oXP2YymMzdAOf1t3tFny47UNlOFPfk1oQrsx8mhEwsPnbCzoQ7G4bf5ptBkLsQr55ctYMh87be1cfdRPYp61gbg0vpZ/8sOmUdW8v0q60LXwrH+mIrRlimWZktx5/N8U1Z9c3g2Vy0FfM1hYT1MIm2ZREM5stfpqSqh9pwGvNHWe5t1NZn42Rt8AjpatIqXXV14w3PKW371cB6+tVc2JqL5UJaevLwsEtFfkH9affS4aJxrjt3lxyQ9rjE9dBOkG1nBkweP4Z1I6tzzz/dud1biDnFy+ix1AdZte30xG2nTnjujo5bEsY5SR/VNj7KulpD0wZrFfI5Ln6sdP3YQenaSjWWeMP+ucYpy8JpzJ9U/U8H0T78BOMxAADOjFsioPiYy0XHix4zsC08CuVuISidQHXHcheFdYOAxQ8zsBnIZfnN/qV5dSnpz82J0mXSc3t7J4Pls/xcTOXrbCB3t0Ei2qSrNDDvfbwy/30Vd72TicbHDG7mo5kM7USd+d+4bwZB5iIy/NZ8J79o8RdWe+y38ttj9WV8FV6MemnqmFE4lt26PWq3srcl1TlpHdvdIRWmq28G53tcmWVlZQf31YV1mMT18GBt4rMcS79uMJ9JVQ9V4TTmT4tyL9X5qmM11ufMsdpgMZwW6YpKd05prBtt6lhj2rMLxPE3ZZ8U6VcjXJmPPgUX8Pt8nQvuQDxYc5wbz90Fh6XdOVk9tEkqpahUN26+TMy5fSzf8nx2dWp/Yru5naaNs0ohDyvO3bFxS+I4H95H6eOjqqulOlYeb2jaoBPLZ4XosRKOW9TpapJqLJGsf7bMmHf7fsVj9UqnLAsnMtZK0/9konmYi/ThJxyPAQBwTj7YE5x/LDx/TKPro1K90iOdczEjmcIjPNpjuUFAaUDxdg5Pl7+LyOg9yKOdIBvauw8fj/aLxLp8ztaWG43MgG8go5EZIb3+Nq/uW00/y1gm8v2h5lKk8PibOZbYAdruQiRdHTPKx7KTxK0nWX3az6eO2WTt0rTbwrsfrCzeqGYG8nM70g8vNAKp6mHK+qwq9706n72+Fa/Px22D2esBXX2OSXdOidUNtUjab57sa+FFvI1f9mZJtF9tpOwLbp7c46evNt9cfPr7j3i3EIuz9tx9WNozJ6mHfbnUTAD3bsXfVOYrl7/TM7yL0tKdd9K0HaVyHgbn7jbjlhRxPnW/qqqre3UsHG+0OB835LPOKc/9pzxWYtE+YVe/TLco437bsaN1hvmTsP+J56EX7cNPNB4DAODcfLCPkRz8TXUlfzfPbtLOP7ISP5YfBOzdMZKr+wbYraeV+FHISl3T5blvms3/Jm5hpJ7YL6LdIzEHpMtfCOWPuunis84HR18u3d+XXx731ze0zGtDc0Ve+ahRjRufQdm36+3yp63isbT8XS6jukw9aR3zF/D5wLiJK7OlHZDOTSzMhV7rNdwUktXDRFrGp//wYi6cBjIbln7cIVk97B5OMX/05R4Xqc9HboNFKdNVdljfW1s3Erd3O8kavUDt0K8W+XOHyWiTC012y4n4+Byw7l40zpFzd+7gtGukqofBOTqw/vlcqhu9bNkAWx62Xo7kcW8mMtZOj9l2dOrOp7XjlmRxTtVHaeOjrKslxfzRtsF97cctimMl68e6p6sg1Vgicf+c6/7EzSnLotr+WCtF/9OCsg8//ngMAIDz88EORsM7F/23itkfB8lOoNtvS/3AN3os9yMK9jG0mtO2u5vCjCMq1g/d/8b2GNqnq3CnhF1Lc/OyfxdI13Rtf+wo30eRz9lnioMjvz6UX+MzeylnLs7bPM228BlUmEg6Th3LjjW4k7rqUsUvyt8wyD1pHcvX06r40bHQ4t495ujX9MrW8jKD3L0J8UMlq4eJdIhPzwzqbfYUB/Wp6mHHcPbyR1nuCtH6fOQ2WJQuXfs6nlMClXXjpO090LJfLfOTXjMZFjJ6LdPp7m+/VmA+MZZAU5xj5+7QgWmPS1cPXT6H4dT1dTefTCu0dzia9lgxcRBvp8dsOzrhuVs1bkkW51R9lDI+bepqoDze0LTBKsUxkk70WAn7sa7pKkg1ljhS/9ylDHKnLIs9R+t/WlL24SnGY/Y99wRGIb8BADhTm9VkY85zG/tPuw0mK/PSYGNOnhu91WYy2IWx3cphRI5lTsLb10Pu9VJY+b5hWEXzjTmnb1olY0/CdNVExL03mJgjBX+Xwtqpjs9e0I3x8fmyjY/bd7DJD+OPPzJ7Ff/tZcffHrAmf4L0OG3qWCk+oXLeuK18rEY18Q23IE7NZdFSQ7oslx/BsdyWx2U+Kv6dyeNXlY3VyuXnuXBqws63TvUwKlV8svwr1YX8M9t929TDJtFw9PnTWO7R/Kk+TmHLP5sk7fryak6XRk3aymEo0uX+jtUNo7mO6dNe5vbZ6+Ob+tVApN8wofn+fLsF++Z5Uwi34VgNYnHO866YZ9nrwbFapb2WviwOr4eZvA/Otrog/PHK5ZXFN/j83hYEqI5ztG40qYlTuZ7WJNS9F+zbGOdS3pW37SHa9FGRtDfFx9dBbV0tbaV+xGtog4p8bqfpWF453uV06sWP5UTKojk+1flTVeSqcEofLJTpXj3M4+zT2T6fEpZFbR7q88c6rP9R5KHh09Tch7t4lOp4nhfbPFC39yD+e+8BAHB+Lux/zIkL78JaptfdfiABVnP+uW/QhbyNox42O1X+UJ+Bc7KeXkv/+a70oy60U6AaY4lm7fKH/gcAgLf3Ift/4C+QrZ0F/BGoz8DZcMu4iEy+l9clpJ0CODL6HwAAzgITrPiruB+gqfmmvuk94BxRn4G3tV0fcPgqk1XVOqW0UwDHQf8DAMB5YYkAAAAAAAAAAOiIO1gBAAAAAAAAoCMmWAEAAAAAAACgIyZYAQAAAAAAAKAjJlgBAAAAAAAAoCMmWM/R4t7/Kmi2XU/X2Rs4OcoCAAAAAA7HtRWAP9iH6o5tLdNr0+ndL7K/z42P3zberqO+l3ONbRuLe5Pvw1eZrDay2fjt5aGXvftevc/y+jPLAgAAAABOi2srAH+6i8lANuPlSOabJ7nJXpT1VK77Y7mab+Rp++KZsZN0w1n2h8jonOOq5dJkTzov8seda95bef3JZQEAAAAAp8K1FYC/wMVmPtrYia/BZLX9Bsl+uzR8ncjq5UHo/07H5bvMZfPuZ4rfP8oCAAAAAA7HtRWAv8EHuXmS+Uhk+fxT/APcC/kxExnc3e5Nrrrb+rdrplzLdmUB+43U9vX9za80sHtMfD293r1/Pc2Ou1N4326lpQpcPAqfW8h9xX5Wijjvv7//eHssznFr+f1q8v2yX4xzRf64O4zDY9mtdLxYfNz7VXloNr+r/7u8fMR+3hvlvCwdK15e1UtSuM9VxbvhWFrN4bQoi0jac4VwwnqYpz0MI9/KYTUeS1de6rIIj+O2jnW+Kc6qNqihSHuLY6WqY5XHLIUVq4fxdqHYx8WjakmOinxrKi8VfVs+/FhZuF3qc/iZbX8a5tHuc4VoNcb5DcrrUOX0lLYwmkdrFzXhuDzZ7tf23J19vmsct3x52TwvpL9Q5zxVWw7ft1shnJp9quqCoh42xzleD/1nw3NVJmsvfrcWcY5wx6tqy2YLo6nK54Z06eqPJg+95vgo0tWiDTZLVxa52jaYa6qHbdppVf7oE95OY9uxduVT2EplHyv3OEVdzUXjHBfP55r6E37mpOdKRZzb1LHSsY6iRf7U159SGl2Yu7bn0uLC19efVHU1xXlQe23VGI6y3K0U4SSpP6ninNvWter9NHF2x6lqX2ZrHR+lQrlXnVOapOp/UpdFVXil/RrDUabL5V1Tf4iz4n7k6ubLRAbLsXy2NX3xQ2YykLvbcHrVF6K7qzVbL2Wz+S7yMyvUm6ftOiqblQnL/C9cWyX8omo57kv/+S4LZyUTGUs/qBy2EvbHVzLPw9vMZTQbNlagxf3QxLksXZxlNN/ta+M8mMkwqORd4rxvJb+WPn/ct3v5sUr546x+yTKIr50gD7WPj80rk4cDn1etvli0HctQEpSXgjnWZ/meHWd3rLYTDvH8UZaFKu2Repgr1LH9Mu2Szxq1ZRGp86qyiMW5TRs8lPJYadqyt7YjSbHLr9hwbB7617cS1edkjlTHKp2sPvfk4SU/RnCs/HxnZf3pwNTxH/nhF99kbPqAglPmz6mcul2o8jDhuTuR2LjFpqu5LSvqYU7R92rqYTTOEb2HR9N7LeX5ZzF+i29jWZqxwpcwn2Nxbq16TJKkHraoP4eXe1lFulLX5yRloRi3xOphx3R1Hh9qKNuOZZex2sbfbsETfSnHCVEt4tzGezxX7sX5Dc4FjZT501x/buTJpsX8vZddJl+Hs9KSfhEp6+rh/aHu2ioaZ225x+JzyvqjPJa6vCLzAO0d8ZzrKM4pMan6n8RlcfC1njZdJUc9V+JgboLVjKTl0d7FOv4s119NcY0eC2ujrKdfTSGaylNYMsCcjB869D628W7D6cntnamJsx+m6VkL+WZq1GgenjzMycb2HLOv1d90uBNO9u9A0jhXufqYhdshzk3s4Hjbq5v42oKpDOdKPgZltNM2PkGn2npJiLVMTX0ZTL4UjvXF9i7bMi2pKS8V0ykWF0K/kU+23v5aZX9rtMifxrLQpT1NPeyQzxpty2Jb541oWRwpzkeVuC1bg0vpZ//ck6Q+p3LK8jqT+lxwJXfmXDT76iciFj9s/OZuoPT6277yHutzKqnahS4Pj37u7qJx3GIcuy1v+94W9TAW56gsDdunmyz/hNPoUTFWCM8XrdSNSY7QP8ckLfdDxloHalkW8TZ4jn14TKo4n7IenmM+v9G58qh1I6VY/ijqj7kmfzF/z4bhHW2m/zAZUPxcTOK6mqo/bLy2Shjnsxpja7RNe908QFvHP+emG9edqv9pmfaDr/Vi6Sp5N/3h38tPsBruLlZZynJp+r5PxQq/sl85jT4FlewApYFe7+OV+e+r+POOv3v2slxL+5cubvt9Yt6QfCUMJY2z/cbiwt+qfXHRl/FVcHJoHedm9tGJgopw3LcldY25TXyWY+nXDvizDmD8raFD2n0bucufC+mbTqlafXk5hXy+qOw8io8XVO/TqEX+NJeFLu1p6qHmWJryCrUpi1KdzzSXRdu6cYi2aa+RuC27so9Q1WdFu4jvM5Ph9v2qx3ISl1djfI5RN5rqs3kve9TGb+6r7eKAx/Snt7d3Mlg+y8/FVL7O7FMcYUVoEeeTlNcJJWsXujw83rnbbuEFawtN45ZMvC0r6qFViHO5721RDxVxjtXD/Ommb3mmubowktIQMRLnFprGJG3qYbR9KSUpd6NxrJVYgrKIt8FT9+EpJIpz4nFCc109dT4r+qhTnyudBHWjdKzO54KYWP5o68+NXb7PjAP6Y/PqUsZ903+M5vt3VTblYeq6mqg/bLy2ShxnVf+scYr60yLtjfMAOU2cU51zI5KN61L2P01apD3JtV40XaEE/SGObjvBmt/FalpAafDs10w5R6vpZxnLRL4/lCth4jgXHrnayFxsp5W6c+3LpbKhuMZcOtF1YjrUuW2d4QVU4ObJPnYQXuhXn5z2HqVyW/itj1dfXplyPrv6uGM7KP94TP0+aejLojntaethLJ+15WW1LotSndeWhbZuHKpN2k8jK/uGdqquz5F24UT32R1nNREzWK/uv5KVlyLOKetGc33ulR59nIupKNvHfPzjPYY7B5oLmaG5oCk9xZFTxfmE5fUeNefhkc/dro9In5e6ttxcD7fKca4Yb5ysnfZuxd+k5I/u76oI7wzJKOKsEhmTqEXbVxrqPjxVujQOLgt9GzxdH55Oyjgnoairp8vnMzxXGknqxt6x0p8L2uRPnG+Hg9FI7CPMo5HpP15/m1dLTtTXacT7Q/21VQrq/lnjBPWnDdU8gCbOJzk3pRnXJe9/kjj8Wq9tv3GqcyUOs5tgNU3OjJ0rBs89cV9SHfJoRwNfsbLb3Ou+FXHrU5Qmfk1nMBybVysfVTtunG/s7XL5t3Zt4tzIx7n86ML653MpnOyku/e1SqZlfPoPL+YCfiAzM4gqX+dZduIq7KCqTpb5xVejxvLS8PXz4G/AVPmjKQtN2lPVQ30+N5dXpkNZFOq8qixa1I1EVGlvkqwtW/5b1PLTADuJ6nMHlXeynbS8Eh+rdX32dzxXXaz4JzkGMnELTIb9wOnrc666vE4oWbvQ5OEJz90HKIxbOrfl+noYKsa5ez0sxlkrf3zTlodN50geFbMFh+Rz7Zgkaf/czSHlHhtrHUv7stC0wbfuw7tIFOeT1sO3zuczOFceqW6kOhfUqc0fZf1Z55MoXy7d35dfHqvX7G5y5Lravj8M68lO4doqWZyPO8Y+Sv1Rpz0yD1CjLs7HP+emH9cdvf9Rpz3ttV59ujInOVcihe0Eq18st3rw7At8JsNCy1vLdHpgBV5P5bOpKNtJXTd7bxpGxbozdXdN1D35dLQ4GwvXWrKTSts4N3BxngULm5fzx3ILH9tbx2uaVof49Eznaiej2g/88zV4KhZjr9JQXnG+0wwHev5boewPLWX+xMtCl/Y09bBlPmu0LItCnVeVxRHifGwJ23Len9YPQBLV5w6KZZk7ZXm9dX3OBjzZN86FOwFMHXjZvFR8c/x29bm6vHZsvbF3bNf/sM6BkrULXR4e/dw9uJO606fK3rmga1su1sM6xfLvWA+rxhJaN59MT2bvfLGPqOouEmJ1NqZyTJKwf+4kQbl3H2t116Us4m3wbfrww/q6RHE+aT18m3zeOZNz5UHXDtXqzgWH1DFV/mjqT9bXFCdR/PqP9rdS1FE7Zl3t2B9Gr62Sxfm4Y+wkY4kybdpj8wA1muJ87HNuinHdSfsfZdpTXOvp0hVoca7ce0IKp2Ma1Mb8n9kGm8lq02C+MXUt27dh/9VkM6h8b7WZDMLP+200z94O7OLkt0EpMP/+yMQol4W9F9hx4mxal3mnKBZntfmoEE6YpPwYlflRSnssPqvJYC8ddeGH3D6lz7mwgmO5LYiPD7epvKrLby9drpxsWH6z8XTHLn1OI5Y/TkNZ5GJp95rqoTLthu5YReXyUpdF+TjlOq8sC3Wca9tgd+W0b0WOpaobtWryL9zy9EfzUFM3FPuU6vGu/vl6GaavSx0r0sTZO/xYWbhd6nNwnKq45dx7QR1qjvPpy8vaxSnMhw6O2i52dOV+6Ll7P75uq+oPGlXXn73oattysI/bCgHV7FMRZ1U9LL1fjLOiHgb88aryWR/nGHeM0ufyMgzrWnM9bJcuX276dO0FES13fbqcSBtslq4svHgbbK6HgWg71Yznw+N17+vicfbprkpGqLkeaujrqjqfG8Tzuab+BMepilvOvRfUteY469Iej3MgWsdKW027OKSOtcmfcpx29Sdrd3k4pXTt8kRff+qPpVVdN/aSqugPHcW1lTrOTX2mNj5Wovqj0hRnoynt+Xvl/HCvB+nSxNnlRem1qvCb4tOOclxXo5zGkHsvSEtz/xPoXBY1/WW45ceL1ENtunxcNP1hELeacHF8F/Y/phBOYC3T6wN+/AAAzl5zP+e+uRT6QKS0eLtfJ//jvcdxS/o4r6fX0n+++4vqF+PV80Rfh2Ojju2jPwSKuNZDs2ANVgDAYbK1hoATWU+/in3aiDWZcBSLe+mPRSbfqV94W/R1ODbqGIA4rvXQjAlWAEjI/dhWzbeWTe8Brayncn1x4Se/Vpvka9Th77Zdw2v4aupXZE0w4Jjo63Bs1DEALXCthyYnXCIAAAAAAAAAAP4s3MEKAAAAAAAAAB0xwQoAAAAAAAAAHTHBCgAAAAAAAAAdMcEKAAAAAAAAAB0xwXqOFvf+13uz7Xq6zt4AgL/MKftD+l7gz0BbBgAAwIl9kPVUroNB6MXFvSyyN3F6i3tTBsNXmaw2stn47eWhl70LAH+PU/aH9L1/mrVMr4OJNTfhxvjmb0BbBgAAwFu4mIwmm9unB8mHnnZgOpyJjOYbebrJXsRp2AtAd1HwIlwLAPirnbI/pO/9M7lyNQOaDOOavwBtGQAAAG/kYmO/2i+wd330ZSwTWb3sJl5xfG5yW+ay4QoQwF/ulP0hfS/wZ6AtAwAA4K1UrMHak9u7gcjyWX7aJ+vs3QCFJQSK2332vJ0d1F5cT2W3ytVC7u0++Q4a2+UKwsf4/GN+4bGccrzCN5VxttbT6+L7VfGtCi/fz71X9dihT79+3a+1/H4VGVz2fV7mxwny1Mf1WvaCzPKtMX/slu2gCqdFHjbbld/etg1k9yhnoTwK9SlTjldVRJrKK6Mqd6NQFmGetcif5mPV5U9FndpbzsNs5Xg35k92rNJnXBrz19znU9Tnndo8zDTmjyqf4/XHv35421HloeH+jvSHLk5V+5jN7tYqzhqN6cp0qWNV+yg0lrvJlVh/aPfR9huHH8trDEdVV7MwGsrdvaKoP20U0lWqU9FjKdLl80VXV2Nlsd++9l/T5E+qPNSUl9WcLmv3ucJWCNtQtK/4sWKyPA3DsFs5LobqWIp+I1n+NDrdOGqrvE/4vrJPiKspL7ttA9H3h41xziWsh7X9T4v8aT5WXf680ThKyaWpUD4d+pZtepqumzT1x1Plc+kz5bRr+l7NPgAAvEeVP3LV+3hl/ruUXyvzfzdP2zWsNquJDMz/wnWt6m4SWNwPZfdgntLqlzmqOcJgJj/yc+zim4yX2b9zdvAzFJnn8drMZTQb7k7MyjjbgUR/fFUfTmZtR+wyyvZbyWTgX09rJb9MOpfjvr/7Ij+WjKWfxaf38GhisZRnN/O9s/g2luVgIl+CsmiKsyqcjuVea5SnyW/zUfZ6wKa9/3wnK7dPMe1OrNwzsfLSlbsf7A1fJ1l87PZd5Ge2jzZ/TJw/y/fdvtmx9iYqC/lj4zyTYfnCKGsf+XH28lCZP6cTyUMjWhYt6mFT/UnVdrqK94c2r8w+Ji42/jZdbeKsoUqXqo7N3KPWvgy65U+8Dcb7w5ym32hug7pjpayrO/vlXqXT+dSJt8GyvWMp0qWuq9r+sCVN/nTPw1B1eWnHEtau7WRb6UmhaDtNkoc9eXjJPx+EsxzL5zAc7bEi/UbK/Gl2unGU4/rDw8eiaoyjsq2mHr7rcVTHvkV73WTF6o82n1s6Xf8MAMDbq/iRK7MFa5Z1Yk7S3YO4kru7gcy++kHR4sdMBpO5G9y9/ravrGX61b72RXZj0xv5YneY/TBDFK2FfDMjkNH8qRDOkx1xzL7u390wuJR+9s+jsgOg7ajSXAQ9hvG5kU/mz+Xzz8K3viaLZPRYcRFSG+eW4ZyKHVhuL6ayO6m3Zdqy3GvTriv39fSrGeyZi4vCxZ0pj4fdp1TMBUTxxzWyvHffXkRcfawoiyv5WFlAqdpFOvE8bNkGYxrrT6q200G0PwwurAp5dYR2qkpXXR0zZZpddH9q2QyKWpR7Y3+YaSx3Q9sGG4+VuK46deVecsD5tHU/1vlYyrp6SH9YRxPng8YkubryOkLdaGqnx8jDOq2OVddvHKPtRJxkHHV+51ynsT9kHOWd2zjq0L4ldt2k9K77ZwAAzsMH6T3IS/CNptvcN8ld5QMUf3JvzQzobm/vZGCXKFhM5etsIHe34RBvd4dCOCncN4OQVhY/zMBvIJfl0WP/0rya3b2bWdkDNprJcBuXikfPWrCPthWU4nPzxZTNcizf8pGeS8f+hEcsztpwTqo0EPZ3Ur+KHx/qy70x7cpyd2GMPgWD2u6Kj8ddVA8k7R0J2336Mr4KLxA9N7lVe8HTol0UjlUVnzT1OZqHLdqgSmP9Sdd2nGge5iL9oYlPv2GSLWU71aSruY7leRrcKdNFi3KP9YdOpNwtTRtsPFbquhop953Dzqft+rHDjqWtq6r+UE0T58PS5TSVV+K6oWmnafLQ5EvhsWF3215pgkV3rMZ+I3XbUTjNOCrRWDQ1xlHZ9tbjKKUUfUv0ukmvfT43pf1E/TMAAGekcokAMyoyp+6Kk7rCavpZ7A9kfX9o/2F/d5TRe5DH0VLGw7EsR4+VvwS79xiZ28JveVPxa3pVfwueyx+j2shqIjLuV61hGdOXS83goncr/oYEfwT/TXX4bbuliLMqnPMTL3dNecVkYSRgB6vD2a5+2M3efLCn/OiW2AFssR65i5VIulTtonysvfikqM/p8jCZVG3HiuahF+0PzUXV3F5VhBf7oWTtVJeuaB27eXJfwL0O84srcxFbce15OGV/qBBvg+mOpRYr98wh59O2bfCwYxmKuqruD5U0cT44XZayvA4Xb6fp8rBXWiZgLmLbdfAotPZYmnPTaZx4HGWcbiyaDuOoBGWqHANEHdi3tLluiumczzVpP1n/DADAGamcYLWDTRncyW3bE7QZIAzN1XaKx8zdHQbmfxO3IFZP7Jfw/jEVP4DOB8ad1d094SaXwzsZ/DfaI+UtY1V3T+mEadxZ/3wuxSd/3M0+rmQfaxvJ495IShNnTThvyw8c80e5tOUeSbuq3H1Z+Lw5hH/ssMsdHDf2uaxCPfIXK3t35mwlahclh9bnxjxUt8FuivXHStV2lJT9Yf/hRVbmAms2rPrRk1TtVJOuWB2zFnLftxdw+QVWxbqEMS3aYLw/3Fcsd00bVBzrCHW1udyNg8+nLfqxJOfuWF3t3h9W0sQ54ZiktryS1o1YO02chwX+cWB5/W16Akt7rEi/ceR+vkjbb6Q4FxznnJsa46i3H0fFpOpb6q+bNN53/wwAwLn4ML0vLgBvF1QfzswJ+nvHE5658C49kaNW+GbZLV3wUvEtbL6m1LD6olTLfdtrgwm/3V7I/bB4J4NfeF1/EbBwI5S69Z2aucFRmK71VD6bwcfenRU3n0yM7GPcJm4VgyF1nCPhvKm9tOvKPZp2Zbn7garJm8LB1jKdNhx8jx+s7y5YbfzsHQLZHw326pH70QL72FddxUrULkoOrs9Neagsi06O3Xa0lP1hz1xg2btAKifbErRTVbqidcxmq11TL7+A66hNG9T0h6G9fXRtMHqsI9XVxnK3DjifWq36sQOP5TTW1e79YS1NnFOkK1NZXgnrRrydHiEPt7IJlu3dfcpjxfqNY/bzFdT9xsHnguOcc5PaSzvjqLcYR2l07Vt0100a59s/23i4J2bOtqEBABDYrCYbc07d2H/6bbSZb2q4fQebySr7O2AGBqXPrjaTgXltVBvaHhdGzf7uvcHEhOqtJoMgztlW9dmGOFs+3rttsN0xi3/w3t5mjzcflV7PjzXfmHFREJ5SKby67PPpL6dLGedAdTglkTxsVl0PimVdHe+qtNeXe7u015d7yJfhbr+aPGjKn1L7ssdxaYikPazreVzLcSzmodfcLhRlkbo+K/JQVxZGbT7r6491WNtR5KHh09TcH7p4BOVs5XlRzoPqOGvo0lV33EK68rpcSHt1fmjkx8y3ynJv7A+r07YXlWgbzCj6XlWcrYY+QVPu/u/Dzqc7zW2w1bEa0pVrrKvRsojU12w/TZxT5aGmvKz8tXzbrxu+HKoPH0m33fIPautzo5rjlcOIHKsqHyz3eimsw/KnpROOo3wY9e9vKdpOveq6W8zn6nhXR6Uuzu3SHi9TKz4GcJryp2u/8VbjKCV3nAP7lqbjuvdc+Mo4a/M5Eo6Pb6r+OXvdxmnvPQAAzo99zBOV6k723t7A5MSqBmZd4lwdzqk1x1vnvMsLx9Su/qRqO6fUvZ3+ye0iRb+B1I5zTvnTy/pPbqfn6z2eC+qlaCPUQwAAgENU/8gVjGz9qHO0uJf+WCqWcWgZ59pw3qMzLi+cj1Rt55QOaqe0C5zQkc8pzesDv2e005N7j+eCo6MeAgAAHOLCzrJm/8aZ262HNJDJqus6S+nCSWct0+u+jK/mskm1WB7+IvH6c351Pu49xvm06DfOBXUV78WfW1fpDwEAAN4aE6wAAAAAAAAA0BFLBAAAAAAAAABAR0ywAgAAAAAAAEBHTLACAAAAAAAAQEdMsAIAAAAAAABAR0ywAvi7LO7l4uJiu11P19kbAAAAAAAA7X24DyYaitu1MO8A4E+yuDd92/BVJquNbDZ+e3noZe8CAAAAAAC05+5gHc13kw1um4/cmwDwx1jcy3A2kMnqRZhTBQAAAAAAqbBEAIC/wuLHTGT0yOQqAAAAAABISjHBupbptV+ncD293i0hcD017xQV3rfb/SJ7pz33KO82rP3lChqPtZ7KtXv9Xnav+nTYfdtEyx2nkNaF5MsqFA/ZlPbs2KUDuzTmr5XWhSxvfrd0ZRFNlyo+qezKZm+rinfD+862/Kv3K+R7pZr4tM7nunSF9dJrDKdNWZT3rUrnwfmjoSlTXX128amqq63iuJbfryKDy74Pr/JYuvhYqnIvxa+cr/F0JY5P+L7bWtbDZOnS7aPVGOcW/WrV+7uwTl8WJqDGdupUpS+2T/h+m76lUU26kuWP2bb7pSqLHVcft/t1XB5JUxapylQplq5OZVGRz5o4q45V+kyXvsVJkIcuvlXHMlsY1MHpUrXBdHU+mi5VfLzYsVKJxjnTHJ8/uyyapYpzlofh+3YrhFOzT8fxxuFx9nlqwwmV+5J435IqXZly2Yb7tCx3F/ft+xXnr6rwquIEAEhCfQfrctyX/vOdrNwyAiuZyFj6QQdtTyj98ZXMt0sNzGU0G3boxP1Jbfg6yY5lt+8iP4snn8/yPXtvd6ztCXT1S5YykMFgJj/yjy2+yXiZ/bszG7ehzAY+bk83/tUkab952qVnNbGxL6wTmR/LipVFNH/2VKSrRXySGc13xzRbeaUKdT5n5Z/Ht/2KFz15eNnFY3us5Vg+B3mojk8hXaa8TL0chgO5WHlpy8IOooZygvxpIVKmVrQ+lyzuTV3N/q23kl+m/dtjDSWPU/WxTtfXFdWlK1l8Dq2HHWnKq1uZKtLeph9LUVe1eRgrCyvWTl17n5mgwnCy93KxPiFZP6/rM7vlT7ey0LULxXhDaW2/wZFRdryKsrBSlKlKPF3x/FGWqRFNu7bcW6rsN5LlYYixX/7aNj5HKtM4yiJ/LYyPxuFx1vcJsXOctrzS57NO7ZgkxTjK7JPmvBzv5/2xUveHAIAm+iUC7En/5cGcXq2e3N6ZHnr2w3Tv1kK+jZemA3+S3fn+Rp7s1cPsa6u7QdbTr+akZgbq22NZ5qT+EIwkzMmn+MM0N/LJHGr5a5X9bV3JnYnj7Ks/8dnHgweTuTuxvP7ucuINBj+FuKVLu1pjWRiq/MnVpevctM3nK/l41MQcWO5XH3d53aq86qxl+tXW8S+F+HyxFT6sG1vHzp8WYvU5ZAaLZqzYnR0cb0enpl95rCivE/V1BU3pOmZ8ktfDEk15dS7T9973loRlsVXfTvNJrU+7xJe07RNOIGUdS9AuVOONNgaX0s/+We+QMtWJp+sIbacp7SfsW1Ll4Q5jv0rHKNMoyuIgSePcwfYc16K83iLObcckrcZR6c7LmvNX+v4QABCjn2AtXfz1Pl6Z/76Km6tc/DCd/EAuy6Pr/qV5dSltznMre5vZ6FNw4qlWfCTiYv9kaAb7t7d3Mlg+y8/FVL7OBnJ3G7/0qbQcS79u8NMm7fYbyqY4azWVRSaaP1ZTus5Ni3x2A4rYhW6pLPYf8yk/DuS+bt4NnDqXe1/GV+Ekn6cqr0a7OzTDcPpmEFuWJn8SUtRnLx+Y+i9KurBLBBRUlVeqvk7d3iPpOkp8DqiHqdLlaPap0SbtqaTqexVlEWun/tjBUxp79H1CGqYsm/rMzOF9XSZBu9CONzRcWBGHl6lONF3qtqMrU03aT9W3pMpDh7Ffo2RtWYOyOFySOOv6hMZzXJvyOjjO2QTn+JtyDFvftziKc3dzfNKdlzXnr6T9IQBA5cx+5MqvkxhjT17DWf44mt/sF585/42d0XuQx9FSxsOxLA/5cRsz8JnbM60ZCH075CSleOwxhVj+bKVK15lxg47SoGzPXlnMZFiYROyVHoWai9mh3eNmufKxxA7QdsdSl5fC7jGgcAvvEkiVP6e3mn6WsUzk+0Pd9ESTvly2ncA7lLK9H5auFlLVw4TpOlnaT6RzHpbKwoq205sn9/jgq+2X3EWaudiruEbT9AlpxPvMlH3d4XTjDZ0srEi/mqpMm6VMl+Y8GE/7SfuWJHmYYexX6+RtmbI4Ol2clWNjxTkuBU2cb57sa3YMm/cJ9jPZmyXRMUkkXdpyP/y8rOznU/aHAACVzhOsfhIze9St6ltHy6031ubRhJ74L9uaHpNYiP0xcO1dJzdfsvVrvti9ffhdHh3pP7zIygyCZuYkVRhHJEt7d4WyaJk/tek6N+p89oOOvTsVI27sV9ylb8WL/Lfg8vrbHME4oNyLx2pXXvX8BOIs+jX1sfInnWJ9zpiLj6EZFY4eu97hUd321z+fo+V1nL4u0yFdqeJznHqY0aTr0DJ9531vaL99adrpQu779svD/IKvvLaatk84llKfmbqOlbRvF5rxhpa/K2nUWOlSlKmGIl2d2065TK1Y2k/dt6TIwx3GflWO25brUBZppTl/VfUJ+wrnuAPKq2uc7STrbiKzetKzy5ik/Tgq1XlZe/5K2x8CAOK6TbCup/LZnIS2a8i4O0VNPz8Mv500nfrQPmYRrjMT5ydEZzIsjDLWMp3mf2d3ogUnc/+NYfaHUbhLxMTtZfPS/e7VQM8MguxJuTAISpj2Tsplocifssp0tWSPYb8dPdoPHGjz2f2YmV0Ool2BL+yoaHAn9R/LBk5Bvepa7u5Y2wFi+/Kqlq9NNWwuw6PlTyJ79TlgBoilJ7FacX1LmD9Nx8odsa/bapOuhPE5Tj0MaNJ1SJn+AX1vrlgWhqKd+vXX8i8Pqyj7hKMp9ZnHqGO5ju0iPt7Q8T+IEpnISVKmOtF0dW475TLVpP20fUuqPAwx9itrdyz7XqrxIWWRSLLz136fUKVwjutaXgnPubVajknaj6PSnZc15682/WHKdgoAfzVzjtuM5pui+WgjMthMVvaP1WYyEPN3cdv7jGEGB4V9Bj6ADuYbG69dWHlcMqvJxpyeCsdZTQYbc2J0b7t4VEXQcO8NJiZVOi7c0v55OsP0Nac9y8NSnGrj6dJXSrOjLItI/ljadDm18dlx4bnjjUzptaXPn6Z8rot/OZxyGG4r5EV1PleVVVN8asMp1z9FeW1FymJXDsGWhZMufzQ0Zaqrzz4+Yb2qDlvF9W11x9LFxyrnUWW5lz5Ync9N6Uocn+B9t7Wuh6nSpdtHqzntgdq2o0lXdR7uRVebh8E+bgvKIk9POR2F+OTHKUSgOh1NfUJBpG9pVpOu8nGS1DFlWRi6uhEZbzSqSXe4mYilLlOdeLqa8ydWprq0+11TlHse34Z+I2EeuviV+siqclTlYSRdW7VtsDqv94KI5rM+XU5tfAzFsXLudbdfWHZ6lIXRVBZRqeJcHU4x/2r2KaXTUpVX8L7duuRzFXfsIE4+Lu3HY3vpUsbHvRbs57aqOEfLvaGfz+NSCLecrp1dnLq1UwCAd2H/YzrUBmuZXlcv5I1TO+eyWJzmV1DxBzm3+kx8UIeyOB/nVBbNcXF3L8mfWmf+5rSf2nvvf/6k8eF7LAviDA2u4wAghTP7kSu8V/4xFOm+niIAAO9Ktg7eX+lvTjvaYHwInD/aKQCkwQQrDrOeyvXFhfTHIpPVpvt6igAAvDPux1NqTnxN7/0J/ua0Q4HxIXD+aKcAkJRiiQAAAAAAAAAAQBXuYAUAAAAAAACAjphgBQAAAAAAAICOmGAFAAAAAAAAgI6YYAUAAAAAAACAjphgBQAAtdbTa7m4nso6+zuZxb1cXNzLIvsTOI2F3F9cyD0VDwAAAAkxwQoAQJP1VK4vLvYmGRf35rUuEzVZeH/1BI/Ng+FMBpMvcpO9BJzGjXyZDGQ2ZJIVAAAA6TDBCgCAxvJZfm5nWBfyY5b9Ey0t5L4/luVoLi8Pvew14HR6Dy+ycpOs3EENAACANJhgBQCgyeqXLAcTmYyW8muVvbb4Ia+TuUwG2d9QW0+/ykxGMn/i3lW8nd7Do6mFMxlyGysAAAAS+DC99o847m2lAadbg63h/Vz+yKTfrmVaXrQtf9Qy3MphuXXZGt6P8utrXZcO7uJWXkcueiwfVmEfu5XC0eZPvbUkLYtIPru8aIxjTXwq1uFrjk9duvbvGmkMp1xOpa1wSE39OTh/4nx66tvA/SKrW/lx3Ou7/X1bCvLp4HbhHZ7Pmrrq97FtsHC8I9afPF8L+5XzqCp9sX3C91X50059n6nPw8Y45zRpN2rjo0p7ovbeUn0epnX7aSSzHz6eix+vcnfbd/9+/R0csKEstmm2d2+av+0jyrt9i3nUmD/2GLYe5Mey/97W/xbh5PbKtqJ9hbbH6pLXC/k2Xh60NIAr70I7KPWleT0spdV9Ln9NVZ8zDWWaH6u5nSrik2s6Vps4R7i4VuVhKZxoPczrSuH85cMqxKcxDzNd+vDS+9p0eX6pANOofRqSq+sPzdYqXZo6ltHkc3mfuv0a7fI13wpBVB0j2PJ9o225sl/b5as62i3Cqa/zVXHb9YH+PGTD17f3xvaloqlj+vrTHJ+6Y1WcLxLU52jdaFPHCsdvz8ez4nyX1aty8L4u5Fv958L4luOYoiyieZhL0Ce4+FYdy2xhUKp0lY5dKENVuaeq84p0KeuhFTuWWmP7snZxLGyl9KeITzR/MqpjJaiHwDnwd7CO5rLZbLbbfORe3bKNoj++kvl2n7mMZsNSpfcNavg6kdV2v+8iP0sNw94JJAOZrKqP5RrXUCLHSqTFsUbzfJ9se3mQ/MFGXf4oJSkLI5bPUT15eNnFY3us5Vg+ByMFdXwK6VrJZDCTYdghm7L4LN+DfXw49uTo3Dzt3ltNTMp2abPb9kYobZkenD9x/u6YpTzvnil2Ft/G7m64Lzc38mTTYuK3V1VMOoazkUnHk5+ESNQuouWlzWcrUlet5bgv/ee7rE8w5S5j6YdxjpV7LlZ/LFXfMgvasg0ney8Xy+c2+ROl6zM1eaipG+vfr+a/tk5l4ezdeRmJT+e6UVFe2nKPUp53Urn5ZOL5Qxbm4ujr653clp9uj5SFfSzZve7yz2ZTvp/dsrZuafLH9MX9r5eysmEtn+Xz51/y6MKdSTYHrAvHXugV2oXdgriU2f2zx/s3mxdp/YT/4oeJ4UDu9jKvu8X90ITZUuJzSrSdasSOlbT/Cdl2ZPLQnJds/PNwko1tlHmYfnxYna5Q7/bOHDFoM8cQO1emqmPKcOLngrjF/Q/5tD2O2UyiCmvadqyre205qxMDcw7Z9WvfZGy/oWpDGU5znW8xZlNI1r6sBOOxlOP5JPW5ZK9uHK0/3Bcfz2cvaMckkb4uWVmUVJ4rXXlFxsatHfGc0qLcNX1mu7FoRbpajCWSjHuV7cs62dzF1mHlnuLcBJwDxRIB/m6T0TwcNJhBhj0bzL5uv5XbPvIXNF43SfcQ9HRbV/Kx8tpqLdOv5R+9ONYdBqmOpcufNNoeqy6fUzkw7Vcfd3XFnKCKa/HdyCcTzHL7PK5G2zI9dv5kaXj+GQx2/LqNo8esnfQe5MXkV3EdOHOCcoOdPF/fY13N2JPstk/oye1dKc6HlHtYf7bqyzQ/cX/aJb7klP2POZq2z2zMw5ZxHlyKv+dyX7s+vIPk7f0Ecc74umPZvH2VH99+idzdBse0EtYfZf5s+xFzqSZ35ri9j6YFBDThZBd6l3UVIxROroZXMS34vEzY95qLDdNdHkmLMo31dVGn7X92gguiQjtKdb5om65U48O6dJX0bsUWVeEu9JNKVcda5k/DuUDj5imsF4bpa3zVqJ/ciapty1dyZ9Kah70wg6jBxC/P0q7cYuEo6rxqzKZxbuOxVOP5VPW55Kj9vIZiPG+kuRZOVRYlNXkYHxu3dexzSguxOtZqLKo8p9RJMu5t2c/XOkZZJCr3A89NwDmIT7Bmd5vsXXz1L82ru/XoVr/MBd7oU9B4qrmOvLbxrMQGY79xCm8P75uG2U7WaY2/NXQ2iY6lzJ8kWhyrOZ8z9tujIO37j/mYjrzwCIr7ymx3gmiT9sKx+jK+2r9ALz5Sc9FhMKUv0zT5E3fzZSKD5Vi+5R90eVYayLgLk5kM3WPDSxn3zQlqNA++hX2HdTVXGuj1Ptrpn1cpPlEd5nFNuSvqT6xM/bGb7lRK1f/oaPvM5jzUx9kdr4E6Phonae+J46xk73h7ndnlAWyp9MQWhx8gp60/8fwptuWrmhnLaDg3X2QysP2Ofb/hkX97x+yBk6tbyQbQ+cVGzVq4pT78mOcUTV/XHJ/T9j+OLdO6C8Zk5wt9upKND5vSVaPdRW5KqeqYPpzYuUCl4hFnV5+Xv0xMumhoy6ZO3No7je2PDC6m8nVm74Dv0IPEwtHW+eiYLdPU3s9tPNYmPo3n91T1ORTp5zVKZXGs8bx2TNLY1yUri1B9Hvp8T3QXf6pzSuO5sgVFHVONRTucU6ocPu5t0b6apO5/EpV7knMTcAYS/cjVWuy5QsM1nlKHV7Z3S7vbwm8+4m6e7CMXZgAUdEBVHVmKY50jTT6bxBfS7fMrHHT0SssEzMXs0O3xgfKxxJ48d8eyJx3/eFWwzyh7syVNmabJH4Xs7pjduo12gBN+82j59jMYjczJZiCjkfnA62/zatGfWFfV5R6pP1a0TM1FkX1853W77qUZjFacy0+Tz/o+UyMe5+x4tfmTNj6x8krT3hPHWcvewdTwaHyK+pOqP9SFk/fz9nGsholWO3C2HzYXPu2XcijpPAlTtJp+lrFM5PtD5WXqfj3skIdWsj5BEZ+T9vOmTOf2ajucNDgSTbqSjQ87pGuwd/V3WqnKPR5O7Fyg5PrB4nFWnWe/6tuym4iyzPEeR6Z/GtoveR5bL02SKhzP52FszGYKo5A/Xfufs6MYj6Xsx6L9vMZeWRxjPK8fk6iuQTQUZWE15qFybKyS6pxyorajHmslSFeqcZ2Vsn0lkaTcE52bgDMQn2Ct+zbDPVaYf3Pn7+KJ356eDUpqB7J9uQxOXoeyk6xh51PsyBIdS5U/iaiPFcvnajf2tt/Kb49z/s7g7UDygLQXj+Ufszn8TjRtmR4rf6r05OHRfM61DZvOkTyWRvTrfODz5dL9ffnlsbTW7TusqzX8RU7+WFT3ct8vC02ZLuR+u3ak7RPK6/uk7X+aafvMfcU81MbZf+s9qi3k7vHROE57P26c20tVf1LlT9twShOtVaNkcyFmJ1Hs3RNdl+mqv0upJdNHDs1VYPh4Znrdy7TYTjVO2f/s9B9eXJkW1s+0kp0vtOlKOz6sTVfZ+qc8u7mO49WiZqnqmDac2Lmgq7X8tBnZ5e50ZVt2dxCa/03cgpfh0wPt1IajrPPxMZvCuY3Hko3nU9XnzJH6+eOM57Vjkkhfl6wsMtE8jI2N2zn+OaW7Yh1rN0ZSn1MqpRrXdW9fBUcoi8PL/VjnJuD04hOs7tte05gr1hsKv7nzA5aZDAutai3TafC3W1C+6cct8vVRKhaQTy7RsZT5k4T2WNF8rma/jZVBxQ+3bGUniPzbpQPS7o5VujAI7wDw3/Rlf6gpy/Ro+VPD/jCObRv28YnyyXU9lc97Ax+/Ns1y/Dm7i+wd1tUqWVp3x+pe7sX6YyjK1K+NlV9UVTll/6PsM8v28lAXZ//DBpGBeZf4KB2nvR83ziHd3SYt6k+2Vmr1IDlV/nQNxw9y6y7+7A912S8ru11kGK4/3P+xkE7MBeGhqxU069gn7LVTjdP2P6HKMk12vlCm6wjjQ01dXf98brygtG3G3tV18F3btVLVMV04mnOBxuI+rBc2Op9N+Zkm2XUirKYtF/peUyebnh5oogpHU+dVYzaFcxuPHRCf4vk9VX0OHKGfP8p43khyLZysLAINeRgfG7d33HNKR3t1rP0Yqfv4J9W4rmP7KjtSWRxS7m3OTfl5+bAf5AKOaDKQjb3XPGQaR/VrstsGk1X2Tmi+MW0o2G+wyXfLP1/+XNWxVpNBEEa2lfbpwh1rMNmEMYgfy6cpdnhd/jRZbVKURf5eLJ/LYbitkDdZfMr7VGREU3xqwymVgymIjTllbN+3Ybiyqcp4t++ubpU1lWm6/GnHx6kc56y95MctpcvHYWT28lK1i+byCtTms6auVpf7XnSj5R6vP3l6Gss0P04hAtXpUOdzpB7q1PeZdWmvjkpdnGvyL9wKATbFJxCrG4UwzHZIe49SxvkAxbpd5N4L0teu/oT77dp6NH/mI/N6ls5sX/9W6XylyOeq+JbbktunUIa7cq5KWoxvs0F6W9r/fLktl//2asvR5VN9vWku0+o6XzyMPj7NxwpE4hyzX6Z5vhbLP38t3wp1w9XD4vvhFka7KV1Vx7W65I82XV51uYR2x+tSX1OVu6aOefXhVIdR2KoCrNWi322oq75s6ttyVV7l3Hvlc0uNNuH4OO22Xb3J0pyHU0qX/5xNi77c64+lpTmWvv40x6emDlWUQYr6vMvPXHVanWgdK23KelPFp62p761vG3lcNH1dirKI5qHLt+BvpyGfG7h8qTx+Me6qdFXlRVV8asu9On/2gsjTn202Li4dwY7adDkN9VBzLC1fB3dhua0QTmksWKO5LHQOL/eauhxuhYQE+3fIO+AULux/TCUFcETr6bX0n+8OWhz9fVnL9LppwX3EpcjD5jDcN+hCGeHUFv7XZu0jie++7tHXvVfuvDy+knnj2nVZXR0c9uMmh+FcgEOcWx/1vvvMv288/x5xXn4/ODfhz5PoR64A1Frcm4s4kcl3BmM4tWxNMOCs3MjTaiKDWYIfzAK6yM/Lq+YfBvGPz0ryNSBPj3MBcDDG80BinJvw52GCFTiS7Roxw1dzEddt3TDgUO7H/mq++W16Dziq3oO8zO26hd+CdbmAU/Drv43mDefl9VSuzfnbT8JujrzW72lwLgC6YTwPHA/nJvxpWCIAAAAAAAAAADriDlYAAAAAAAAA6IgJVgAAAAAAAADoiAlWAAAAAAAAAOiICVYAAAAAAAAA6IgJVgAAAAAAAADoiAlWAAAAAAAAAOiICVYAAAAAAAAA6IgJVgAAAAAAAADoiAlWAAAAAAAAAOiICVYAAAAAAAAA6IgJVgAAAAAAAADoiAlWAAAAAAAAAOiICVYAAAAAAAAA6IgJVgAAAAAAAADoiAlWAAAAAAAAAOiICVYAAAAAAAAA6IgJVgAAAAAAAADoiAlWAAAAAAAAAOiICVYAAAAAAAAA6IgJVgAAAAAAAADoiAlWAAAAAAAAAOiICVYAAAAAAAAA6IgJVgAAAAAAAADoiAlWAAAAAAAAAOiICVYAOHeLe7m4uNhu19N19gZOjrJIYj29LuTj/SJ4/Xoqb5KrrmzvJYsK8D7RR+HsLeQ+6PerafYBAOC8tJhgXcv0ejdgu7i4FsZsAHBci3vT3w5fZbLayGbjt5eHXvYuTun9lYU/b28nWDpNIGbn/tJVrsuLrhe/Jh79sRTy8ekme++trKdyPZzJYPJF3joqQFecL/A+3MiXyUBmw6ZziGYfAADOi3KC1X6L2JexTGSVDdg2m+8i397oLhMA+Bss7mU4G5iL5RfhGvmNvcuy6MnD40iW477/YnQ4k9H86fAJRJcXYsLqNjG6+GE+PLiT27PJRzPG6Y9lOZozGYX3i/MF3pHew4us3ARq/Zd+mn0AADgnqgnWxf1QZoOJrF4ezOVazly4PYV/AwBSchNRo0culs/Auy2Lm6ftnWx2O/xO0YXcuzs9V4eFdfXxbMYP6+lXmclI5m9+Gy3QHecLvDe9h0fT885k2HCLqmYfAADOhWKCdSH+ZpPbhouh8vIB+VbxjeOiuDaU27YnzZpwSuuxuUegDj3R2scBXfhhHHfHLwRfjvP2Tb8+0PZvF+Zu6QT/CGUQfkPa/Xp0FcsuZPFUJ1eZLhe3Qr6W0mLsr4WX7bMNx4drHz8trKdXsX5eeb29uvLLHzv1W0V+1JaFpYlPTR0r1VVN/uRicW5Me8LyiqtLu9lK4RxeXvq60VymmcZ+Y6c2PlWfDzYflK5uWCnKNG4tv19N33vZL6aroj6naIPu/ao6ZrbCrge3QS8WnzYOaoOZ5n0UZeHyJSvz8FwQ/junyMNyHN1xg9fc31Xl1XKfdmzchjKrudMzZZlubdtTMQ/THWsh38bLw5cGaCzTnVhd3aU32JKXqa6OOcp01fHlVJ/O/cMFxyp8Lovz9r1gaxPnsJ26P2v2S6Ecj9IWHu7w+hzvo1qVRVXcsx1U4bRIezNNuft9Oo037JaHs217DefuUv3Z8e3QxmGrfCx9ojN1aQ+Or4pPTTgV+dNcD1PFJ+SXAZDZj4rP5DT7AABwHuITrOvfYsZscvVR8ZW4ueja3SmzkslgJsPwBG5PvO4RxXCf7D2nJw8v+Xv5NpfRciyf907KB1r9EnNJJQMTxx/5GXvxTcx1VpGLs8g8jM9smA06buRpNZGB+Xtv3GQ+N5yNzOd2j2Ou7ejX3iXjwimm3X9Du5Tnn8V0Lr6NZTmYyBftlZ82XSXuLuXs39Xs4Ci7k9nEP7zRxz5+2n++y5aPMOmSsfSDDLEDtv74qiYPc37wNXwtLUPxM9insSx2YvFxYnW1pDp/dHH+LN+DY/k4bweZRyuvBoW0b2Q+yl7PJCsvI1oWyjJtajteJD7hXXy2zZr/1a7/GKkb0fzpWKb7VvLLfMbm4VDyOFXX5zRtMFTT3lO1wVi7UIvXQ03a4/voyyJKmYdtafqEg/oNYz39bFJs8rrqTs9Ymdp0m7Kym11eQGyas78rJ0IsO+GRPbq/2QSPPSerP8bih8mTgdwdsl6Bqkx1fWbef+T9U7l/Lju0TBslqKv6sY0yfyLnr1ZxNvv6R+p3+x3YDIuU5532/XOVeB/VZpx58Hi1zTlXI1buhua803gNkuzcbSRoO1uRMUmc7tpKXQ8Pjk9R7/bO5HqQ5xU0+wAAcA7iE6xuwHGA4DHAfMD2qe3A6miu5O7OnLK/+oGBfbxqMJm7Adfrb/vKWqZfyz96UfomtfcgL2akV1wfyFwouEFcxVp3g0vpZ/8supFPZsC4fP4ZDFL83cOjx7ZLMcTSVeIuMrJ/VwomWwrLRGQKr/fk1hx7902zvzuomBc38mRHx7Ov2zsgto9olpeheMg/pSiLXGN8GtQ9slqTP/E4G+Yio3inV1bOv1bZ31bq8jpEqvLKNJZFizK1attOi/h0ta0buvxpXaZN7MXM9mrUpOmxfCwjQRvcqWvvCdugql3Exctdk/YW+aMpi0Yt67yWpk84tN8wF9ruh6m+h3kdiJVpMOFis9blZX6RXii/TDi5Wp6NSVR/LD8uuRLNd8jVdGXaro9Sxueo54JUdVU3tknTh7eLs3ukfrsWsI/n7OQzOG3754jGPkpXFlsnGa8mFDnv6K5BUpy7j9TPh5IvsXJgPTwkPr1bsUXVmL+afQAAOAMf3EBg75GPikd/NOw3ndsw+jK+Kl4Y9T5emf/GvoEsx8d9Bbz/OGLhWHareiQlwgweb+23ostn+bmYyteZvYslHE7u7ggIj9U3g5ACc7E3H81kaC8Gzf/G/aF7hLJ8TbiygTW4+TIxcRnLtzwh7s6aDhPS0XSF8oGgH0DuMfHpN02uWqWBlS/nV3HjoOzuoMvy4fuX5tWl5NfDLm9Gn4KBXZmyLKym+OQidXWnPn/icfaKjzxmd2+FUpbXoZKVV6axLPRlGms76vhoNNUNZf60K9Nm9pHPgvKxrARt0Gls72nbYLRdKETLXZP2FvmjKotGLfKwdI6rzx9Nn5Cg3zDntPnInt/qz7UpytSx9bBucjWT7FhW7USShq5MtX2UmwRSxSdBmTbWsRZ1NUIztknTh2vjbMZr5nWX3lJfdXJt+meFWB+lHWfGzrnJxqspRc47/u/INYjq3O3rj69fVddL6dqOEx2vxuJjmf6i6dqqTT1MEp99mi/IunyJBgDAKX0wQ46KR0eCR/HcydUMUQqzUzXsxVAQzlzsSTi4GLN3sKwm8joMTsx7441yfOZiztSRR1TsHTH2hK6fZPXfZBu9B3m0F41DezFX/eMAu8eJwi38ljdb+2o0Mnk1kNHI5Njrb/NqyO/TOJjPvqHN76Dw35yH34DHtUmXtcoe+fz+UHM5N5jI3F69hQPp5LK8UYiXhVKsrmbq80cXZzsJ4JeKCI41yt40kpfXSejLS0PbvurbTtr4aOtGnbZlWq8vl10nTrpStPcUbTDWLnQSl3ujtGWhysO9c1z2eommT0jVb9w81T8OmqZMM3aC3905Vf3Yf9JjWctfcuhle3OZ6uuqm9hSTPolKVNFHUtyzo2ObU59TvF156A6c3aUfZRqnBk75xoJxqsnF7kG0Z+7d32PCa72S6ckbceKjkk08VFeW2kkic++vS8HKmj2AQDgLcWXCMgGUcVHgXRu7DNEhbuWFnK/XU/NnnxL6x9V8o8i7U9YFu0fS899E2/+N3ELR/XEfsntvyX1A9bYI2P5unTfv1y6vy+/PFasG+u/0R41fr2fP85lHyGyj1uN5LH9rMxWfboyJo5DM7qMPdLVf3gxg6SBudbV/TCBH6RmjzjW3YXhlp7I73bwcfPprqMriyqF+NSorD+N+aOJs39kTntXTqryOkiy8qpWLAttmcbaTvf4aBTqhip/dqJl2qh6//XP58pjhdq3wZ369p6qDbZrF/UU5a5Je4s636UsirrnYSVNn5C03zDnqO/+zrXi2rOpyjRw8+Tqob0LrFgP0x6r6u7qdjRlqu2j/MRWdBLhFOeCpHU1NrbR5k9Muzj37c6lseXJJ3Ba9s/1tH2UZpx5+vHqMeyP/fTXINpzd3X/kbifL2m63tH3Z6VrqwPq4cHxWf+UZ/e9UkP90ewDAMAZiE+w2kFU5QXVWqb3+3exhBbuKmg3uPFrbOUDFq3sYipyR4c71nYtrbjCXSK9B3kJ79rdytdwavjhg/VUPu9d6Ph1i5bjz9tHY/wPUSgGyzefzF72bly7zED7C0hdugJmoFnzBGZB7+HF3e0RnWTN8mN7J4O7E8B+LvwG269RG97t4AezJt3lOjbN/1aURZVyfGqU6+pWQ/7E4+wH2eEFnL/zKvvDOFZ5dZasvCrslYWuTDVtp1N8lAp1Q5E/rcu0gUtXmD+a+tyxDYaq23uqNhhvF1rRctekvU2db1sWezrmYRNNn5Cy37B12leO4O7SdGUaqq6HiY/lzrn7P9ijpytTVR/lflDHPpKs6DCOfS5IXVcjY5s0fXi7OLvJn+3dy36sWZ7AsXXL3u3Y6QfUNDr0z3XUfVSkLE41Xj2qirTHrkG6nLurx45H6OcDteNVo+m9otK11QH18ND4qL40bv1lJgAAb2SjNt+Yc+/GfsRvg81klb21WW0mg/C9bBtMzDuZ1WRjhhsbc1GQvWBln9u+VhNO4TMmJqOKfcJjKbgwSuHm3HtBeKvJYP947rNZnuThuDTu8sXHc7AZVKUp3Erx8McL81dPmy4ft5FJQa5cFlk8SvnqPyebgYtcdXlVHT7/XL75z5c11TGvvizcu4r41NSxynQ2548XiXNe77PNptulIQvHHacqwwz3Xovyiqv+TFUc/PF2W/vy0pSFV1+mNWUVboUA4/XHKbXTnZrjleqG1ZQ/VfmZc+9VhNdoPiocqxi0Pp9jZRpv797hbdCItIt24uUeS7ul2aexLErv7W+79qvKw1JeuPgFr/n4NvcJmn3iqj+Tp2GbTy3KtJyWkPtMoR7u6tT2I0nrT1U+tddcprn6uurjsF/vynl1zDKtKhddunR8WDX9sqM4pxwaZ9dOd/mX53thn8AurMPqhwmo5rzjFeJhtsr+R6PxfLFTXRa7tla7VeZ1U5kakbQ305R7dbwLH8n7jOKLhbCr6lLOvWf7pb1+Pk+Xr7thuTXWQ5Wa8gj7R1V8asKpiEtzPUwVn1CxDKpp9gEA4Dxc2P+YkyCOZi3T66pF4D13540U31tPr6X/fFf/o1Jnozltp3du8fmbpSiL9m3n70MbfBcW93Lx9fId9Ol/q4Xcu7vwqLfH9H7GNqGsbjT90Oc7VF0W7c+551GmnHfeK1d/xlcyb1ibVrMPAADnQrFEAA6TrS2mZS7E+2ORyXcuxPG3a9l2AKCTG3la+cerj/Yo+N/unY5t/GPlcuT1bk+stiwYr+KE8vqzapg41ewDAMAZYYL1BG6eNrXfqufv5et8XQxfzUCi+5qNwJ9E03aAs2d/vZq7V89btrbscvwtWIMQh3q3Y5v1VK5NvP3kzubI692ehqYsGK/iNPz6rqN5U/3R7AMAwHlhiQAAAAAAAAAA6Ig7WAEAAAAAAACgIyZYAQAAAAAAAKAjJlgBAAAAAAAAoCMmWAEAAAAAAACgIyZYgVPJfpX44noq6+wlAAAAAAAAvG+KCda1TK8v5MJODJW3+0W2D4CjyyZoaXbAufLny+tp9hXK4t6cK++FJgsAAAAAfzb9HayjuWw2m+L2dJO9CSCq9yAvtt28PEgvewnAn6QnD48jWY77/kvI4cycOp+EMyUAAAAA/NlYIgAAgFRungpfRPI9JAAAAAD8+dJOsLrHIeuWEKhZaqBiPcr19Lq4jyacvf1i4ews7oN9Lq4lf7pze6zS59z+qY9VzrvSlgdXdewuXDiFvF/IvT1WRdjR/Nm+F2xd8idfo7Rmv3ja43XMxyNMQ6bq8fuqMmk8/r69dNstiE9Tmtxnzb6LPIz+WJbm9dkwCKvN48fKOmbFyiuP2179KYWzd8zCm/r2dTh/LPvodiFthTR4sbQ7mrpalT+t0vX+2leuOT516dqvy43htKjPzfUwE8kfJxJOmnIHAAAAALw36SZY7YXnUGS+vXNnLqPZMLiw7MnDy+6unu0+y7F8Dma77AV1f3zVEE6mtGTBfJS9njPx+Szfg318ONu18Rx/8Tt8nchqu993kZ/tLoZ1cY4cK7zraTWRgfnfZJXvd/y7oBb3Q5ll/95R5k+kLNRluvolyyDde2UaFa9jvYdHGZmjPP8sTgktvo1lOZjIlzyfXX22j/fm4axkMsjea6H38BLEpSZNr7/3Jqis1a+lyNVHucnDcPXCZvcuvM2mxePHyjqmLq8tW09M/TH5Z+vJtq5G+4TTs49u95/vsvpsylTG0g/ic6y6Wt2+lN5R+7LU8Smky7avmQzDyclYH67tM7X1MJY/HerzQeUOAAAAAHg39BOs9kLS3omTb4W7dNYy/TqTweRLMNlzI1/sjNTsh9RffpYt5Nt4aa67w0mjG3myV7qzr/t3HTYxF98vD+FKlzfyyQSz/LXK/rYTAV/Nxe9I5oU1MXvy8LA7epwuzmmOdSSLexlWzAKcMn92ruTjURcozerB88/CXWY/TPpHj7t0rn+/mv+O5NORi6d/Gczaujvo8rtr12KjMLjsu7dOp215BZOrhXqSqk9IrBDPntzehfE5Ul2taV9pnFv7ahufkquPuzqk6MPj2tbDuvzpUJ+PWu4AAAAAgHPywV047j2uWfEIdfluI3vn1/aRzpXYm+22P+yRbX1zoV1UPpa7HWh3Eb34IeYSVvbmlPqX5tWltLquNtzjmkF8yhe77g7B0afggrlGaXK5EI4yzupjaZQnuw/6lep84mC+d4dmkji3KFM3qTm4lMYpxWjaI3XMuPkykcFyLN/yD7o4FidTex+vzH9n8qN7xqq44yx/mRZkYv7z2eTI/t21J9WmDZo87FdOrlraPsFoal+phRN4hi/nV/ltszx1XXXq21cS59a+2tSfwrH6Mr4y55jSrfqxPjxOXw+b86dFfXaOXO4AAAAAgLPywd2RuPfY54sUbhzaYz7zODL/X5yAKj66nG/hnUzlY81F7HqSDY9YdmUvzIezUfA4Z/mRT3+HoEpsOYKoFsfS2IvPzGRjt0nW1fSzjGUi3x/K0wqJ46yQPxLfWPWiaVfUsd6t+BsX/WuLH3YiJLwzzbCPH68m8rpd77QvtXMph3ATT36Cb/VLZDKfiLi7a/2EztVxbzc8zGAiczt7FE5Wl8T7BOPg9nV6qrpq1Lev0ztZ+9IqH0vshOvuWPE+XE9TDzX5o6rPxjmVOwAAAADg+BKtwdoX+6RzPmGl5x/53K5BWXWXk+XWxmvzuLZ/5Lv57sue+JsUD3xcWRXnRMeqceMz0d+F18ZyLMOxiWXwaPzOKfPH6vZIfDztpTrmZF8QuLTZujKSx71vFBZyb39UajsJ1G0N1qjeR7HZ7Ors653c3tzKnTyLv4m14k7AY2vZBvsPL7IyGWN/eKs4x9a1TzgtvxRE9lh46rra2L4SObf21bL+hIrH0vThGtp6GMufFvX5FOUOAAAAADgrHSdY/eOP9g42/6NA+VqGw9IkS0x2EZ3fNdR7EDfvNQzvmFrI/bDiDsNG/mI4nFTzd0Nlf2Tco+Iyk2Eh0iZt0xaJUMY5ybFq2DswZXAnt12u5kfz2h/QOmX+yOKbjJcDuWuZiHjaS3Usd/NJRjZt9hH3ikkcv/7sQCbbX706FltXl/L8+au83t2aONq2JDK2f5fXg8wmY486admhDdof8nJLbBYmWbv2CfXyx8WLP1R3gPVUPo+Xu3Qdo642tK8kzq19dag/OXesbZ3X9eFxynoYzZ+W9VlR7snrMwAAAADg7WyiVpvJQDZ218I2mmfv76wmg4b99OHMR8V9BpNV9o6VhVP6nPtM+NpqsjGXw4UwXPz2jjffjIL9RAab3eGUxzKa45xrOlbAxb36vfJx3DaYmJi248MZmRjlqtPaHOc0+ZO/V86zcjjlMNxWSLu+jlm+vlbkc153Cp+ry592XBpK5eXTFcQjP35VuZbqdbEMW2ioY1Y5r8tl4/KuMh3FfVV9QilPXTgV+bwLq0uaq+tGVXE2pb0qjVY5zn4/Tftqos+fdHEubR3bV1N8asMp1/dSXbdhVPfhRqQ+N9VDbf5YzfU5D0tX7ofVZwAAAADAObmw/zEXecBfZz29lv7zXcUPNB2PuwtP5ns/5gONhdzX/qhWzFqm19U/pAS8jUPqMwAAAADgnCRagxV4Zxb30h+LTL4fc2JjIffh88TrqdiVNUZNC1Gill+2weQfa1viD0B9BgAAAIA/BxOs+Kvk6x5eDF9lsnqRvd+2SupGnj798MezW38sV/PNcdfk/BOtp3Jt8s9NiK/IP7xz1GcAAAAA+OOwRAAAAAAAAAAAdMQdrAAAAAAAAADQEROsAAAAAAAAANARE6wAAAAAAAAA0BETrAAAAAAAAADQEROsAAAAAAAAANARE6wAAAAAAAAA0BETrAAAAAAAAADQEROsAAAAAAAAANARE6wAAAAAAAAA0BETrAAAAAAAAADQEROsAAAAAAAAANARE6wAAAAAAAAA0BETrAAAAAAAAADQEROsAAAAAAAAANARE6wAAAAAAAAA0BETrAAAAAAAAADQEROsAAAAAAAAANARE6wAAAAAAAAA0BETrAAAAAAAAADQEROsAAAAAAAAANARE6wAAAAAAAAA0BETrAAAAAAAAADQEROsAAAAAAAAANARE6wAAAAAAAAA0BETrErr6bVcXFzIxf0iewUAAAAAAADA3+7D9cWF7M0ZLu7l4uJapuvs7xPbTmZm2/VbRaTC4LKf/QsAAAAAAADA3+7s7mBd3F9IfywyWW1ks/Hbd/m8Pwl8Yr2HFxeXl4de9goAAAAAAACAv92ZTbAu5MdMZDD5LuE8pp3cfLrJ/gAAAAAAAACAM6GfYHXLBuwe27+4uJe9m0rL+5RvO7XvX09lbT55H+xX3m35a5X9q8Ghx3Kfr1gGYT0Vu2zCdlmC2HEC9u7b3b4VYbcICwAAAAAAAMD5002w2knH4UxG891j+5vNkxRuKrWTh0OR+fb9uYxmw/1JxOVY+n5Ht99qMpDZMJ+svZEv5m/zQvUEZS7FsW4+yUiWMv5W/Mz657N5dSSP+S20N0/ZMVZio1bNT+IOXyey2sbpu8jPIGxtnAEAAAAAAAC8G7oJ1tUvWcpA6n/faS3TrzMZTL4Ek675ZOmPbPJ0x07U5o/8927vTMiv8jubTHVrna4m5rWljPv+Ts/ij1ylOlbVZ9by83lpPvQpCDtuPf0qMxnJ/OVBdisb9OThIQ+lXZwBAAAAAAAAvA+6CdabLzIZ5BOeVXeWruTX0t4w2t89/m62/ti8uGckn8LZy96DvGxeCmuu+td2d43acHeTrOmO5SdcZ/Ijn+Fc/5Tn5UAmX9pMr9r559ikbJs4AwAAAAAAAHgvlGuw9uThJZ/wrJ9oLS4hkG+lpQRa8cedj+zk5LfCnZ5JjtV7kEcT9iybYXXLAwzu5Dac7I1ay+/X7J8R6fMHAAAAAAAAwFv6cGX+85o/n59ZuxnDK/m4N9FYmmjdrl/al0v3tPtxHnbv28C30h7r5pObYZVFtjzA6DF8zF+jJx9tJjY+6n/c/AEAAAAAAADwNj7Y+cXi3aEL+TZeltYLLfOPvA+2i7L25PbOziAOd7/S34X9Ma1yAOa1z4X4JDpWzv3Y1Ux+TO3yAKUlBZRuvtg1Y2cyLERoLdNp/nfiOAMAAAAAAAA4Cx9unuwj+DMZbtcGHcrrZCUvwaKo6+n1dt3Qun3sj1P5X+kP9zNbmxlFu0bqpx/Fz/fHcjXfpD/Wlv+xqdl4LFIxqbxLe1/ckqn2l//d38ESCW5t17mMtu/Z7bPI7S60tHEGAAAAAAAAcA4uNnYhUAAAAAAAAABAa8ofuQIAAAAAAAAAlDHBCgAAAAAAAAAdMcEKAAAAAAAAAB0xwQoAAAAAAAAAHTHBCgAAAAAAAAAdMcEKAAAAAAAAAB0xwQoAAAAAAAAAHSknWBdyf3Eh94vsT3S3nsr1xbVM19nfQGqLe7kw7TXfrqlsAAAAAAAAR7OdYF1Pr/2ETOUs6o18mQxkNqybZPUTsOGkzm5jMhE4lcW9aXPDV5msNrLZ+O3loZe9e2prmV4HE7xu4vfe9BYAAAAAAAB/jg/+jsoL+SyPMhlkr1boPbzIyk2y1k+QjOa7SR23zUfZOwCObnEvw9lAJqsXebM51YKePDyOZDnu+y9bhjPTRzzJTfYuAAAAAADAn+DDff9Z7lb2Lrd+9lK93sOjjGQmQ9YK6MDfzXfRH8vS/G/ct3f3cjcf0ln8mImMHs9kcjVz81T40uWJ2VUAAAAAAPCH+fC0aXO3m18qQGY/Ok8MbpciyLfSZK17xPl6KrtVBbLlByomdd2+27CKSxG441SFY7Y288Nt4lPPfqYv46u5bFYTGZj/2Ue456OZDINJVvWxsruOd2kv7uPCaYpfaY3O8uY/unu8u1Bmhfh5zWWaTSxHXlOnvSru5X0UVHEO33dbMCGuykOv8Vjbsgwn23fHV4djPvP7VWRw2fd5me9TKq9Udcwp50HpffWxAAAAAAAA3jHlj1zt9G7vZCAz+dFhjsROEPXHVzLf3tE2l9Fs2DjhsrgfmqOV+Yma4etEVtuwvov8rAvH7m/CGfj9D7mLrjo+zdbTr+YzI5mXDnzzZNJv3vlas0ht7bFWv2SZTdLatLdeiSG8qzCY8M1fC6NpH+/uP99l+bySiYylH5bX4l4+y/ddeFmZHvrDSpVptxN67jHz/FgmPg3LWtTSxnk0D/axx5rJMJ8wVOZhtM5nZTkwYW/b1OKbjJfZvzPxtrOSX+YztryGkse7orxKOtcxVxaSoC0DAAAAAAC8b60nWKV3K3cDkdffbSfQFvJtvCytwXgjT3bmZva1+oewFnZNyezfge2E5cuD7G6+7cnDQ9XMaTC5Wti/g5r4xKzszNfgUvYXYejLpcnL5a9V9ncgeqwr+XiKR8EL+daTW1v44R3MN0+lH1G6kU+mSCvTpFVX7vYWTVPun6qKuY1D4nz1sUUd0tb5K7kz+Tr76idv7aP+g8ncTR77dtai7dhJ4e0MuV8DtW372qmrY2uZfrVx/FKIT+Pd7R3bDgAAAAAAwLlrP8GaaT2BtvghMxnIZXmWsX9pXl3KfnD5JI6faAq5CcvRp2Byp8ZyLP1Uk6sN8VGpnJjrycer7J8FzcdyE42VE7YBezdh+Ph21/VeS/HuuQi/Sji/Xngk3WyHTaTVp90fu9vd02WqOBfyMFvioc3tz9o6b8ry1t4ZvnyWn4upfJ0N5O42+FCLtmOXCCjo0L6s5jq2u1s2zMN++bbbreZjAQAAAAAAvGedJ1j3JnISW00/y1gm8n3vx7f8WpMqg4nM7YzOcizfDpyUq4+P0utvE/Oy6rTEjuUmmGN3UhYeb99f7zUVO1E5nI2CR8U7LFkQaEy7fSx/NZHXYTDpWTen10Ad53Ieip1wTZuH/q5co/cgj6OljIdjWXb6oSp/N7RWijq2W6oh3MK7bL2D2w4AAAAAAMAZaz/Buv4pz27upeUMUN2ddG6tx9Jj38uxDO0j0Y9Vd51md30qf2ir//Aiq8lAZsN2P25V0BifuL5fB0D2biLM7gQchYmPHmv3Y0Zt3Nhn4Et3nnbhJwTzR8cXYn+4XnU3sUY07Qu579sJyGCN0dZ3RHaPc+s8bFPnjZsv2VquX+wbvp67O8VV4QT7B9Y/n1u2LytWx/xk7kxzK/GBbQcAAAAAAODctZ5grZyw0XB36NmnrsM7ABdyP7SPDodrOWZG89ofo/ITUTMZFmZM1zKdVk/49B5e3B2KB02yNsQnpvfwaHKsHF97J6VfvsDNp4WajuV+AMk+Qt5uumphZxUHd9LyY0XrqXweL4Pyyu6aDO7O9XeHZn900ZB2v/ZuPgHZVfc4uzxss/atos4X7hQ1+79sXvbvXlW2HdcuZsNdHd8rr8BBdSxfizc4VpMD2g4AAAAAAMC5+7BbizJ73Hq77uR1xQ/jrOWnvX214x2LN0/5o+r5MYfyOlmVfnDI2v/F/QI3EZX9avk2rM8it/Wf8cf2k6ztf+E+Ep+oG3nK42vvwDT/G/cvZPhatTZs/bFcWblJte/xR8gLeVN3LIUwHBP3q/kmKK+ePHyfyGBp17r1+3y9XLk7hvcU4hPUtcIMXUM+Z5OF0unx+VDXOGd5WPEIfBN9na+RTQSrwrHtwlRyW8fdPnvllTu8jtkvLfI7w318sm1vxvXQtgMAAAAAAHDeLjb2WWul9fRa+uMrmbecZEJgPZXr/rPcrSruVDwra5led/hhJ7Vjhw8AAAAAAAAcn36JgMW99McikxWTq0jn2D+WBgAAAAAAAByTcoLVr/c4mp/7XZd4P3ry8FL1+DoAAAAAAADwfrRaIgAAAAAAAAAAsKNfIgAAAAAAAAAAUMAEKwAAAAAAAAB0xAQrAAAAAAAAAHTEBCsAAAAAAAAAdKScYF3I/cWF3C+yP/H2FvdyYcok366n6+wNAAAAAAAAAKfiJlgX97uJOrvtT6TeyJfJQGbDv3GSdS3T62AC001s3stbZoMrr+GrTFYb2Wz89vLQy94FAAAAAAAAcCoX85FshjKXzdONf8VOIA5nMppvJH8pt55eS398JfPNk5Te+rNleZKrypuTcXGxk6svwpwqAAAAAAAA8LYuNvb2xwJ7x2ZfxlfBpOuWXSpgKLNR1Xs4BXv3amFCHAAAAAAAAMCbafkjV36pAJn96P6I/Hoq18FyBG4L1h1wj79fT2W3oqhf/3W3j/+7vOZo8XP+sf4wXMvtk79W+6h/Mfx4fHTs3b+V4ZgtDMrtl71ezhubrt+vIoPLvo9Xvk8hXE2cFfmTc/lkXs+38P3ye6WtHJRGIV0X19JladnmPFSUhTJd6nwufb5Y7xLV1W27qgjbvK6Ps06acGrypxCuF2sX8XzONNXnLBybn4XjhfEJy8LleV5HffoLwSmOVc6vQrlr9jnDumFpyqsxn3MH52GmHM5eWJE4v0EeAgAAAADej4oJ1pX8WvpJvCq92zsZyEx+dL1eXP2SpQkhXz90Psper7G4H5qjnY808bEX3SacwURWJg+2N6Mu7uWzfN+uq7rZzGU0G24ne/OyWY77/i5Wt89KJjKWfsMFfOc420mJoci8FJ/tZMHNU/a62VYTU6q7crVbu5ts/UTE8NXniQ/ju8jPlhUtmodlFWXRMV21+Wzv+M7Ds+U1mMmwajLpEFm7Gpiwt21z8U3Gpr40SdW+uoXTk4eXXb76zZTXciyfw/LSlmksn2P1OWPbV//5LquH8fZVSXmskzh13VCWVzSfE+bh2n4zJaMsLFs3/OtbsTi/cfsCAAAAAJy3vQlWf0E4kLvbmgU+e7dyZy5OX3+XJjdauZKPmvVDzUVvsPTp20sSn2BC7+VBCtlw81T6saob+TQSWf5aZX9nCks09OTh0ew0+1p9t2fnOK9l+tXUhMmXYL3dBHcw11hPv5p6N5J5IU9M2h5azdLq89BpKIu22ubz1cfDjlfpSu5M45x99ZOKix+2/OZuMqmyvaZqX8dup63KtGSbzy3qc6E+9OTWdnit6vxp247OCeuGtrwa8/kIeTi4lOqvDQ1VnN+ofQEAAAAAzl5hgtU+3mgvCAeT79EfUFJNblRwdxI1Xehu5RfY/gJ2J7vwHX+LX2Tbu53cY51+27/Ynclw+37scfS6+LSwHEs/MqHnHjFtjLPNvlLu9S9lIEvZL5JInBvzZ3e3bLhPP3bLVkcre7DRp2AypTtNHmrKQq9NPtesb5yirpp2dWvvMF8+y8/FVL7O7BcldS0tEme1Q8Mxn88es/abu2WxNNmlLNPGfG5Rn0uT372PV+a/r6L/TqnFsaLlbrzDuqEqr8Z8TpuHrn+JiMb5TdoXAAAAAOA92E6w2vXn7AXlYLLam9yoUreEQIy70FXcvbeafpaxTOT7w/5xbp7s0gLhpELNBXzhkeGq5QjyR0Y3spqIjPtVaxl6TfFRG0xkbq+2l2P5VnEge4E/nO3itB/nvly2uFiPxjmaP3aX3fu77SnJROiOX1s2hXgeZiJl0UbrfBY7IVSqawfWVf8ItNF7kMfRUsbDsSxHj7VflCSpz8bh4ZSXCZiLadiFx8DVZarI59PUZ091LEUbfG91Q11eCmnyMOtfGs47sTi/VfsCAAAAALwPfoJ1ce/vDDIXqtHJ1fVPeXZzpJH9Ku1+pKnRcixDE5/RY/2dhXaStfmiup3Gu9QU8dHqP7zIajKQ2bD0gziykB92krjxLs6e2GiW7x5e/3wWEzv5FH7w4Dj7ydxZ58V22/DpOvzxaU0e7tSXRQsd8vnG3oLd6o7IotgdlTdfsnVjv9hcqKgzqepzwnax4+9Ql9ffprew2pVpqJjP3euzn1xTLmvinLLtFL193eheXsV8TpmH/m7YUaGDDLWL88naFwAAAADg3fhgJ1cv7O2f9i6gul/vCVRO5mm5HwVpWN81ZOKjiE4yC3eF3TCJkjA+vYcXNyFcnNjL7k7dTiyZOLm7qrI/Mu7ifjbcfW49lc/mYr64VmHmoDjnayIGxzoiP2kxk2HhYGuZTtscXJeHoeqyaKllPkfrWkTV5wt3hvce5GXz0rzMR6r6nLydZpNd27sN25dprphPHetzU/uqddq2E3r7utGxvPbyOV0e+nXFm85Z8Ti/WfsCAAAAALwLH+w6cY65kA3Xn7Pb/oXtWn7a21c73J1kL1jtRK5mfVdzAJmf5Op0t8zAcGZ/Kb7uUeH08fHLHNhsv8h+qbonD98nMljatUF9nL5ertwdlgX24t580H7O7nPRH8tVxZqVKeJsJx/zOzzdsfLtGLNGbtIi+5Xw7bE+i9y2SYMyD0v2y6INRT6X2tbwdSKr1o+la+tqjWDyKF19PjScdWn9VbsNZTYKv+xpUaaRfFbX5zCcyvaVlYV5b2n+N+7bfe0k3s5J285Z1Y2O5VWRz4fnoa9ffqJ0l0dufV5zGnPHd2F16zcKjtK+AAAAAADvxcXGPl+vZNdp7Y+vZH6kNQsB4O3YCbmaHyFDQqfK5+bjuLtUhbIGAAAAABxu+yNXUW6dVml/dxQAACeXre0MAAAAAMCRKSdYF3I/nMloHll3DgCAM+F+DLHmDtWm9wAAAAAAaKPVEgEAAAAAAAAAgB39EgEAAAAAAAAAgAImWAEAAAAAAACgIyZYAQAAAAAAAKAjJlgBAAAAAAAAoCPlBOtC7i8u5H6R/Qn8CRb3cmHqdb5dT9fZGwAAAAAAAIDOh/Ik08XFtezPM93Il8lAZsO6Sda1TK/DMIKNWVmcocW9qZvDV5msNrLZ+O3loZe9e2q+/WwneF2bvBdaDgAAAAAAwPm72NiZpcB6ei39schk9SLl+Sb/3pXMN09yk73m2Qmivoyv5rJ5Kr4DnB07gekmV/fr+JtxcZplf4iM5huhKQEAAAAAAJy/vSUCeg+PMpKl/FplLwT8ezMZclcq3rHFj5nI6PF8Jletm6ftnbR2Y3IVAAAAAADgfdhfg3X9W16zf+7zSwXI7EeHx5d3j0HbO2G3SwhcT807RYX395YZyJYjKE3yuke+g9fc34Ww/Tqyu30Sxyd83237j3ifJl2Z8tIP5feVDk773hIUxS0MrvFY66lcu9fDfN0dXx2O+cxvU8EHl32fl/k+pXJX5/M2XsFW3idSFupjRZxXOInbRfi+3cL4JakbpTS6MHfLpfi6YsPPwi3lhXu/9FpzunZ82PkWLNGibDtVx26vrrzMtg3b76PpM/fiXhW/qvSV9jtVHlqd6mFFffZ1p7RfOd6N+aOrY+5vTTtV5LNKgvJy71fF2Wx2V//5imWKsjx1wbVo7wfn81vUHw1NmXaph1X7NKpLl9lK4cTqhtMQZ1XdyOpTeT31/bZiHFo3jNO1wZp8ruh7D83nXDycXdstbKU4qeIDAADwh9ibYF18G8tyMJEvNXfQ9W7vZCAz+dFxjLQc96X/fCcrd6feSiYyln4w4LKDMb8MQX4331xGs+HBg7LF/dDEel+y+Izm2ftZOIOZDMOBphlgf5bvwT4+nPKFQFuV6bKD+aEcnofaODelPbwzczUxdWdQWPc0v1Mzms+rX7K0nzZhb+ve4puMl9m/M/HyWskv8xlb7kPJ471f7mV19SePV56m+Sh7PdehLGqP1dJZhBNpF/Hy6snDS/5esM9yLJ/zepikbtzIk62f5u+9ojFlOJyNzOfKS6PU0/Ub/gJ1+DrJ+h+7fRf5me2jbDtJFcqroj4bsT5TW+fX9psOsfmahTPwr+dOmocp+rrcEfoEjfpzwcxEO4xz9l5LacorZMvOxNmMN2zZ2bLIn6B5/lnM98K4RNnek+RzqvNXTlN/FGJl4ajqYZq6Ees31PnTEGdV3dB6d21QcR60zLFU/VikbrRpy7t0ZdvLg4ltRhsfAACAP4SfYLUDwOzb5eHMDLq+BwOkst6t3JnB4evvigGSHYBl4bit6sLBXkxtB2A9ubWBbe+IXcg3c5U0mocTGTfyZEd/s6/7dy5omfQFy1sWHTM+Vx93+Wgu1Io/onQjn0wwy6q1GLQq07WW6deZSdaXQpw73Xl8SJzDtEdp8/lK7kz5zL76emUf9R9M5u5ixdfHFuVlLwi3syvm4uWxoUyb6o9zJR8rE9uhLKLHUjq3cELbupGyvSeoG70HeTF/z4bhXWULuTcZUPxcjC5d6+lXczE+knl4QWrr4oP+SG+isc9sWecHl9LP/ll04jxM3tcl7BM0atppPhH3KVWVOrC8doLJ1ULZZfn+/NO1Y28hflWXcL9Yez9SPlc6sB9rda4M1JZFqK4eHqFu1GqbP3Vx1taNmHfeBpu06sfq8vnA+hw6xrgXAADgjPkJVjMI2n7DvLqT5/7+I1ZllQOk8t0Z9s6m8iNwpYuJ3scr899X8XMgP8zF8kAuy1cN/Uvzamld2NJkbv0kUD6Y9hdfe44Sn+of/HKPk8XifHC6dndohuH0zYC5i/Zx7vBjZ9p8NheUt/YO6uWz/FxM5etsIHe3wYdalJddIqCgqkyd5vrjLp5qL3TblkXzsfTOKJymuqEuLxOPwuOR7taj4oVbqrph+sL5aCbD/ti8upRxfygz06/tVeemdqo81spWjtGn4CL2AKX4dH70WKOpz2xR513667xBHqbq65L1CU11rKC+nfqy6f7ESShFeTlLOy6omlz1br5MTDsey7c8zi7s0gRVrL0fJZ9rtEm7ov5oNJZFprkepq0bjVrkTyzO8bqRTeCNvzX0f++1DSrOg4amH2vM5zb1WUHVrwIAAPwh9tdg7T2IvZmveJfAvr0Jqj3ZXYHHGsBHHknLraafZSwT+f4Qi++ByvEROzDfTXLYQaZ/zDgS50Tp2ntsy23hHQlxneNcSnsK7oLAcvVzKePhWJadfqiqL5ctJgtj+ewudCN3IGnLIlVdPatwktSN8uORc5GhuVjLHldMVzesbI3e0chcTA5kNDKV5fX3fl+obKf1/HGS2YvPzGTRESdZI+J1Pkt/17v3nHR5mLKvS9YnKOtYYzu1X56uJvJq24ub4OjvP0qvkqK8MoOJzO0sVDhRFsqekpllAwd/d+rubsM27T1lPiehqD9xurKI1sNkdSOdaJwjdcO6ebJlaPu/PF3Vk3rvrw02nwctbT+m6aNSUPerAAAAf4j9CdaY9U95dmOzNEMzf7GUPapU9w25Wy+qwyNW5gJuaEaybR4fSxWfG3sbxfauLv8YW7K71RrT5ScQ8wuQ7rrHuZh2hZb57O5iMf+buEXXemJvEHF3VKvCCfYPrH8+7x8rWn/8hW79lw0tyqJDXa10buGUFOpG5/bl71Kqmvg8rG6YEs0vlL9cur8vvzzur3MX06IemspxlEnQ1m3wAIU+U13n/V1ko7pCPmkepuzrEvYJGtF2upB7ezf2dqKo6zqbKcprp//wIisTkdmw9KNUTvblrCtXWzYjeaz5tqS2vafO5yad+7Gu7TRSFk6sHlqp6kaEOn80cdbVDTvJmk/o7U/qvdc2WFY+D2r7sUg+H1Cfi7r3qwAAAO/V/gRrto5U3WCxciKqkn9kyt6tUvvjA+upfDYD0+0dCNnds1VrIJbvUlAzg1r1E3gJ47NwI8vipEM4IeS/2c/+6KI2XfmaiBU/1tNK9zgX066gyOfCHRdm/5fNy/4dS8rychflYf6Uyz3UVH/cD6vYR1PrEtqyLNrU1SbnFk6gUDc6t6/swi2rD8nqRlYPin2fX3tuOf6sX3uuTT2UmQwLlcP0m1NNZWnm8nlwJ7VVM5W9tqOr8/7HYBrOIyfNw4R9Xeo+QaOhnfo1avMJyO5SlVeo9/DiJr4qJ1lvPpmj2bsQ7RIdxQkaVXs/Rj7X6ZD2XOtzpREtCytaD9PVjSht/iji7DTUDZ332Qb3Fc+D6n4sls8H1OeiI4x7AQAAzp25wNmY/wu20Wa+qbPaTAZmn1F5j+z1Qjjl/ar32QvKKMdpMFll71jVcXCfCV7zYYRpKX8ucXyC9902mJh3AqvJxow1t+/bMFaTwX58Dk6X58IOjue2qsQ10cY52Mdt5bTnXHiDTSH7Ak35XM6HkHsvOGZTOFvzUWGfctCxfM6PUQ67Kp6xsogdS+u8wtHXjTwv862YpzXhlPOvJm7uPVXdmG/MNeUunFJd3eVJdV5UxaH+WKHsuNutpn00tJ3ycdxW1wZradJVXRaljzj1db6mPMMtCPBUeejfKx6nbV+Xx7Ucx2Iees19gq6O+eM1tNM8TYVwqsOul7a8XLpLdbMu33we7ZdXVX7m3HtB+Cnyeaup/hjNaa/Jx1btVFcWdflZSFeSumHp87Apf1RxDtTVjTounFJev582aGWfqY1vJtKPtcnnfN8wrCLf7zYmIxIfAACAP82F/Y8Z+Kisp9fSH1/JvGL9yDi7QH/3H3VI79ziAwDnLEWf2RyGu8NJ6JPPx9uVlxtvPN9V/hDW34m2k6NuAAAA4Bzp12Bd3Et/LDJZdZlcBQAgWzcV78QblVc+3vjOBNoObcehbgAAAOBMKe9gXcj9xVBkvjlgTcZzu2P03OIDAOeMPhPHtVujcSCTVdXaqvhbUTcAAABw7lotEQAAAAAAAAAA2NEvEQAAAAAAAAAAKGCCFQAAAAAAAAA6YoIVAAAAAAAAADpighUAAAAAAAAAOmKCFQAAAAAAAAA6YoIVAAAAAAAAADpighUAAAAAAAAAOmKCFQAAAAAAAAA6YoIVAAAAAAAAADpighUAAAAAAAAAOmKCFQAAAAAAAAA6YoIVAAAAAAAAADpighUAAAAAAAAAOmKCFQAAAAAAAAA6YoIVAAAAAAAAADpighUAAAAAAAAAOmKCFQAAAAAAAAA6YoIVAAAAAAAAADpighUAAAAAAAAAOmKCFQAAAAAAAAA6YoIVAAAAAAAAADpighUAAAAAAAAAOmKCFQAAAAAAAAA6YoIVAAAAAAAAADo64QTrWqbXF3Jxv8j+fl/W02u5uHi/8QcAAAAAAACQ3naCdTuBeD2VdfZaa+upXJswDp2D3MYl266nnWOU3OCyn/0LAAAAAAAAwN8um2Bdy8/npYwmExksn+XnG85nLu4vpD8Wmaw2stn47bt8PnjS9lC9hxcXl5eHXvYKAAAAAAAAgL+dn2Bd/5Tn5UAub2/lbrCU5zebYV3Ij5nIYPJdwnlMO7n5dJP9AQAAAAAAAABnwk2wrn8+y3JwJ7e9ntzeDWT5/DNYJqB67VR7p2n+2vaR/v5Ylubv2XD3eP/Fxb2Ubz4tLAFQsSTB8tcq+1eDxX1wDLOVb3G177uwF3If7LfdzX3+WvZWH8iWOdguSxA7TsDlyXbfirBbhAUAAAAAAADg/H2wE6h2eYDB3a3Ym0Z7t3etlwnIH5/frCYyMH+P5rvH+zebJyncfDobSv/5TlbuvbmMlmP5vJ2JvJEvExOC2adygjJnJyqHIvPtMUw49jPlCUsTdt/v6PZbmbBnw2zC9+aTjGQp42/Fz7jJZvPOY34L7c1TdoyV2KhV85O4w9dJli67fRf5GYStjTMAAAAAAACAd+NDvjzA3W02odj7KFdyxGUCBhNZvTy4yVw7ofppVLxj1U3WuonapYz7/k7P4o9crWX6dWaC+RJM3OYTsz/27pa1k7358gJu8lhe5bcLruozfrJZRp+CsOPW068yk5HMt+myevLwkIfSLs4AAAAAAAAA3ocP/o7NK/m4nRnMJj0LywQkdPUxmISs0XuQl+Cu0eW4H0yyruTX0r8WPm7fH9vFCcpG8imcKXXhvmzXd/UTrjP5kc9wZpPNky9tpldNjGyEGidl28QZAAAAAAAAwHvxwd2xKTMZBhN/w5l5qeUyAcfRk4eXjczthO/4W+FOz+IyBPlWWo4gpvcgjybsWTbDuluL1v2ptJbfr9k/I5LEGQAAAAAAAMDZ+OCeiN+b+Ju79UnrlwnQTyqm0L8MFz/ti/0znxQ91I29Xdc9pu+XBxg9ho/5a/Tk45X5v8ZH/dPGGQAAAAAAAMB5+GB/0KnwGL3jJwT9MgE9ub1zs4PZBOJaptd9qXy63a3fesBEov0F//KPPpnXPpuD7dYvzeMzlCS/D+V+7GomP6Z2eYCqvIi7+WLXjJ3JsBAhk0/T/O/EcQYAAAAAAABwFj7I4FL62R872YRgtkxA7+G7TAb5MgJ9eb5buV/k33cjT/YHquyv42+XHMh+tV/DrpH66UfwWbP1x3I138hLvnCqYX8Iyx5/Ngz2s1un2Uv/Y1Oz8VhkO4m7s55eZ+Fnk8rbtF3LdllYt7brXEaFdH8Wud2FljbOAAAAAAAAAM7BxcauCQAAAAAAAAAAaO1D9v8AAAAAAAAAgJaYYAUAAAAAAACAjphgBQAAAAAAAICOmGAFAAAAAAAAgI6YYAUAAAAAAACAjphgBQAAAAAAAICOmGAFAAAAAAAAgI6UE6wLub+4kPtF9ieAdtZTub64luk6+xsAAAAAAAB/hO0E63p6LRcXF3JROYt6I18mA5kNayZZF/fus9fl2SM3qVQXJgAAAAAAAAC8bx/ySdDP8iiTQfZqhd7Di6zcJOu97E2X3jzJfCSyHH8O7tBby/TzWJYykvnTTfYaAAAAAAAAAPw5Ptz3n+VutZGXh372Ur3ew6OMZCbDijtSb57m5r2ljL9l7y2+yXgpMpo/CdOr+HutZXp9IRd9+2WDaR998++Lii8pAAAAAAAA8C59eNq8yEMv+yvKLxUgsx8VE0T5e0O5Xyzkfjizs6uyu3nVTzTZZQS2yxHY7Xpq3ikqvG+3woRuNmFVmuRd3O+/li9dUB1O9pnC8f1as23DUSuHUxHW4WlX7OPiUTXJ59PvlnrIl3co7ZfHb285iIimdPn3KtYnzeLgdq3Ku2ArJLexvLT5E3y+tO12M3831h/7d1/GV3PZrCYyMP+brDYyH81kGOSrph66PKraJ4iP1b7+7L+miY9mHwAAAAAAgL+B8keudnq3dzKQmfyomEfpPXx3ywzMhkOzR/XSAMtxX/rPd7LabGSzWclExtIPJ2UW9/JZvpv37Pt2m8toNmw9oWfDuRiKzEvhNE0ALe5tvEs6hFNn/fvV/NfkiwvHpL28JEOqtKfQe5AXNyk4k6/58ddT+TxeymCykhf9rHw0Xf7O6KU8/yymc/FtLMvBRL7YanTztPt8MFmZv7atainKS3usknL9WU+/VrYDf7d3kK8llfWwwE5mmn1M3th2FKb9GPUnHh/dPgAAAAAAAH+i1hOs0ruVu4HI6++qSZue3No3rdGn6qUB7KTQy4PZ08r2D++IvXkqTd7dyCe7vuuvVfa3xlqmX2fmUF+CODTdfWss7sXedFvUIZyYwaXULsaQJO0J2UnW+ShbW3ch9/Yx99G83eSqFU1X9vfzz8IdkT9MeYwe87qicYTy0qqoP6tfy5ry7suliVJluVbWw1AwubptR5lj1J9ofAzNPgAAAAAAAH+o9hOsmepJm4V8swuvWrOv+498W1cfC5NCvY9X5r+vEs7XusePg8ecKydv7F2JtfusxM5t2btlw336edz25BNz89JdpW3DaeYm3CIOT3smuo99TD1/v+Lx/NyN/QEzu3aovUOx+w+WxdJ182Uig+VY8iV8ZfHDHe9Tq8O1KC9NHqrV1R+jVN+9nrhqv6chHMvkT79ucjWjqj9qkfg4mn0AAAAAAAD+XJ0nWAeX+/fl+ceE7ePU9hHopYw/h2s06tgJouEsf4zeb/NR9mZoNA8eha7eZzTfvb/b9n90azX9LGOZyPeaH/rShtNsLW6FgMoJNy9l2uP77I6zmoiM+3U/vJTF+wCqdGV3Rs+ytScWP+ykXXgnqp6qvDR5qNRYf15/V7SB6jyN1UOTITK3s5jhRHRAXX+UovExNPsAAAAAAAD8ydpPsK5/yvPSzhOWpgnzx4RHj/LQu5EnO7NTMxEU8uuSXokPzj8WXru8gJp/BDufrGtk4jgcL2seRW8RTpS/u3JUe0tmqrS3V3UXcW5tJ9CWdtLOrxs6LPywkYY2XT15eDR1xj3Kbz8zkse2SxEkLS+lhvrT9+sAmJIvq6gLjfVwp//wIqvJQGbD0g97pa4/mvgo4wwAAAAAAPAnaz3Buv75LMu9R7f9Y8Ji74rMHyG/+eIeGZ4N6+6MNLY/mpTfqegnyMK7/vxdedkfavnarsPSJFSN0bzmh4tahtPA393b9Mh7qrS3t3Azc/kkd2Bx7x6vH83t3Z+7SfPPrX40qUW6bj75SVz7GHynicJ05dVKTf3xP95l0lOKjKsLg+zHu0K19bCo9/Di7kwtTrIeof5o4qOMMwAAAAAAwJ/qg52E8es19mVsl6rcrk1ZtS7nWn7a21dLk1+Le/9ZPxGXy+5ILE8whWtf9sdyNd8EP8xjPvPdr8XZz/b5erlyd+y1ZSeh8jv9tsez297MWzApXEEfTp21TK/zia5w3dMgv11Y6dKus4vLcGaXdSg9Qr+wv8ZvIh1OoLn1WO0ca7/FBGabdGU/SGWXmdibfdQ5vLzaaqo/N/KU/ZK/retLu2xG3+T3a9Uaqs31sOzmyT/+b9N57Rpqi3wO2+BePcxp4tMuzgAAAAAAAH+ii41dqFFpPb2W/vhK5q3XH7XsRGNfxldz2fxVkzLN6XZ3Gcrflif1XB17vqv9Ead3az2V6/6z3K1epPXKB0f3t7ZNAAAAAACAw+mXCHCPi8v+nY6IqPvFeOzJ69h31vR8C1U/XAcAAAAAAIBmygnWhdwPZzKan+Pdd+fPPs5dd2dg03t/i+0yFcNXmZzlHZ5/up48vIRLdQAAAAAAAECr1RIBAAAAAAAAAIAd/RIBAAAAAAAAAIACJlgBAAAAAAAAoCMmWAEAAAAAAACgIyZYAQAAAAAAAKAj5QTrQu4vLuR+kf0J4M+wuJeLi3vTwoGd9fTa1IuL7Xb6vn8t02tzbE46fyHGGwAAAADeHzfBurjfXUhXX0zfyJfJQGbDhoue9VSugzB227VM19k+AM6HbbPDmQwmX0wLBzKLe+mPRSarjWw2fnuigvzB/GT2dX6ifvMvXRTjDQAAAAA4Mx/s5OpQ5tsL6c18VHlh03t4kZW76Gm+8BrNdxflfnuRh172JoAzsZD7/liWo7m80EARWPyYiQzu5JZq8ZfoycPjSJbjvv9SdDgz5/GnN/3SRTveAAAAAIBz8eHmaSOb8Pakmy9irmtk9mP/sqb38CgjmcmQ20qAd209/Wpa8kjm3JqIKlcfhfnVv8jNU+GL0XPoFhhvAAAAAHhPWv7IlX90T2Y/ut9V4h4/DJYQKFw8Va+755YwKF9kKcKxjzwW1hK8npp3isprDcbjs/+ai18hbL+GXDTOVfsk0pyuneLyENXLOUT3aSyLzF7aK+5M0uzTpCp/gy2MVix/3PtVZVoKpznt+vqsqofh+27renfXQr6NlwcsDaCPT6d0hfm+XXokDHv3uTC4+mOV2qMLc1ePff224acqLx0XrqbfiLF10IWzq6N22wumsa4qpTxWeZ+a+lzI60J+aSRuO3txNlspbaq6UbWkTrBfVZ0r0tfVWFlE66H7fJZfhbbj9ysE13SsFm3ZSzDeAAAAAIATqZhgXcmvpcjgsp/9XdS7vZOBzKTiBtc4e/E1FJlv75SZy2g23L8gjFGGYx957D/fycrts5KJjKUf7mPC+SzfszB24WzXoutocT80OVTi4mwfvcyPZeJjrh2PQpUuf3E8fJ1k+WO37yI/wzxU7KMpC3thXUi73UqPoGr2iQnvwlpNTD0dVK4jaSdA+uOrFvXQ5oMp04HPh+3dXcp6GKOOzyhYysPVn5kMW084GYsfpn4O5O7QZ8Aj8YmnqycPL/l7wT7LsXzO6+rqlyxtSZqwt33O4puMTR8Vaj7WjTzZ+mD+3isaU4bD2ch8Tl/X2tcfncp+Q8vkWd9XRhenvcerY3XVvu8mv0x7t5Gw72V/701qHnosS9vezed2fXipbrSRqO2sf7+a/9r6kofjX98yaVedU7J6nfdP81H2emqasijpXA9jx1K25dBB4w0AAAAAOKG9CVZ/cdUw+dK7lTtzUfn6u/WlqUy/ln9Qp8sdKi3CsRNiLw/Zo649ubURD/e5eSqtP3kjn8yF7vLXKvu7A3OR6SYoSvIL80/aWZxDKNK1fUR8mz9WTx4edhGM76Msi+zCumbO3tPsk4S/e7O4xuCNPNkZjtnXijt4g8nVQj6kqs9t41PS4VFuXxev5GPbD2ps43Ngugqu5M603dlXPyFm1wgdTOZucsv3Q4pj9R7kxfxdXNPRlK2b5KuY2KuVMl2Bmn6jDTtZmU/++4mpV/HdtKKuBl9O2KSYwLZ/bwr13jvoWJa2vRfaXYL+OdR1GYTBpdRGu9U55UhtcKtDH9W5HmqPFWvLJZ3HGwAAAABwWoUJVvuooL24Gky+R3+Yqv1Frr8zdvtDGtnWH1fcvmLvegn2KV7wtQindAHd+3hl/ptPBHju8cggnMMmOfKLTH/BGPLHPt2dOLF0rWwmjj4FF8P74vsoy8Kt67uUcd++X70MgWqfFLK7N/cmdvqX5tWlFKp1dqfe/uSqlag+t4lPIZy+jK/mxfWT22iaJNJqio86XabNFB7h9ndGFiapTFxv7STe8ll+LqbydWa/AAoC1h7r5knmo5kM7Y97mf+N+6ZsR/P99SZTlZdafb+hV/ryxk4ob39gsEVdVUlwLG17T7UWbKK24/rECM05xX3JEWuDpXpYuaxBU11tXe6H1EPlsWJtuUaySXUAAAAAOJLtBKt97NVenA0mK9WvitctIRBTfCQ030p3kBUe56x+fFIVToSfUM4f9/Rb1bG0VtPPMpaJfH+oyBt7h9hqIq/D/OLTXOTHr9U7iadrLe4mxkaafbx4WeSPgttHausmVTT7nNhgInM707Acy7eaifFU9VmlHI7YyZWKSReN5S85eMoiSXzKywTMRWwbyR4r9nfbGr0HeRyZejEcy3L0GP0CqJqv04PRSOzyEaORuzXOvFqSqryUGvuNhFL0mVpp+oSEktTVrE9smPTVnlPcRG1s8nivHs5M0yjFWVFXteWeoh42HeuQttx1vAEAAAAAp+InWBf3/k4Tc7EWnVxd/5Rnd23YdoajL5cDkdnBt3B2D6f4aPRCfti7fSJ3caotxzI0eTh63H+c1lvIvb1zbntBXLF+XxKadPXE31Db9Ci7Zp+2ZVGaVKmctdTsc4C6Ow3dI8v7Szj0H16yNSbLP8KSqD63jE/oxj57XLojW6PqTu4UCvHpnC7/SHXVxOfNl2xd3S/2w75+ujvblMda5xNIXy7d35dfHtuv6XlAeVWK9hsppOp7NY7RJ6TXre34uzRHtYWsPadkE/0tJw3bx7lFWRxcD9uVe21bLus83gAAAACA0/pgJ1ftjy+5O2EUj0yufz53m0gwF1F+DdSKH5pppWM466l8NheQuzXi/AVhOJHj7z7K/ujC5GFdFvr1TPMLymPSpctf4M5kWMjEtUynu7/j+3QtUz9R0TzBoNmnA3f3lI1yeCeYX4uzuH7gTu/hxd0ZVpxkTVSfO8QnZ9cv3H1h0MLNJ9OCl/L8s9XsUlQhPp3TlU1SZXf3Fe70M2HuHkUPaI6Vtf/iBJJfO3U5/qy/c/KA8qrV0G+kkarv1Thmn5BOl7bj1ydvOvcpzynuh53a/8ici/PgTvQfa1kWB9XD+LFUbbmk+3gDAAAAAE5sMpCN+b/KbTTflKw2bv/9N8xbk425vKr4TNFqMtg/1vZD1eHPR/uvqcIpvb8XtyzO+fuDycqHGwlnu2X7ufjJaLMLvpSO/DiFCDTk5aGi6crNN6NgP3P1vjG7lsT3aS6L6vdtnEKafVpxeVCVHs+XWf2xXHwGE1NKO/lnwn2b066vz83xqamHpfi1sV9n29DHp1O6grypyqucey84Zv2xsjqch1OqG7u8SFVeOrvj5qqPHzUflcKpFmunuar0biU6Vry968uimb6u1qsJI9zyOEX63rzelOtLOV35foWtEGd9/sTKwh+roR66Mg8+W9rCwzUdqypuOffeXplUpxEAAAAAztGF/Y+5CFKx67T2x1cyP9K6femsZXp94I8ANTp2+MCxLeTe/oCX8s514O/V3N+7u1SFdpTa+xlvAAAAAEDwI1dRbp1WkcmKi50cP7yB9+tGnlYTGcyGcv2mvyQGnLtsPWqcDuMNAAAAAO+M8g5Wf7ebzDdHXiswFe4wBVTcGsy2aTORAeAcvLfxBgAAAACoJ1gBAAAAAAAAAGX6JQIAAAAAAAAAAAVMsAIAAAAAAABAR0ywAgAAAAAAAEBHTLACAAAAAAAAQEfKCVb7q74Xcr/I/gTO2Hp6LRemvtqtrs6m2qc1+6v9F/emRQE4O659+jZvt+vpOnsDOBeMxwAAAIBz9KF8QXlxcS3715Q38mUykNnwkEG9vygoHivfqo4JdNN7eJHNZiOb+cjV2YuKSptqn1bWU7kezmQw+WJaFE5vLdPrYNKMyW4EFvemjQ9fZbIybd62e7O9PPSyd4FzkWI8BgAAACC1C3MRucn+7di79vpjMReZL1K+tvTvXcl889RhgshOsA7FfFiewg/bSQ53Ubt/POBgmvqVap9Gvv7PRnPZFBoATsqV4yz7Q2RU7o/wd+I8hHfmsPEYAAAAgNT2lgjoPTzKSJbya5W9EPDvzWTIbRN4L/qXMqipz1up9mmwnn41LWckc2bz3tbN0/buRLtRHLAWP2Yio0cmV/FuMB4DAAAAzsv+Gqzr3/Ka/XOffzRNZj+O9Fjt7hHecP3Li+upeaeo8L7dChcZPpzC+26reBzY3rkU7lMRTiw+7r3Ca7vlEMLgmuOsUI5raWtzLG2cNflTDts9alt1vFg44ftuO/zx7fXPZ1nKQC772QsVUu1TbyHfxubTBywN4PK0qrxK+WwyWq7L+Rjsow4n4vA6Xzqui/duqRAXz7D8q+p+/ln3XlVd8cfIlwRIlfacj2O+VSxzcnDfomsXbdIVjXOjuviYLTuWT0tFuFm9LEepNj7Kvs59viKd7azltznpDUzjLsQnyNNW6Wqqq7mmuqFMexuxcq9vp8a2Twnr3a4u6OMTrz/5Pu9tDOA0lbuyTNvV52OPxwAAAAC0sTfBuvg2luVgIl9qZoJ6t3cykJn8OOKIfjnuS//5TlbuLrOVTGQs/eCiw17o+Efj8jvR5jKaDfcvTOzj2Nt9TDiDmQzDCyN70eNWLWgOJxafIju5MZSZyUO7//YOOXOsz/I9O87uWPnkj0p4991qYsphIOF6gfmx1PmzVR9nTf7EJCsvtd3FdX+8NMFWPfabah+FxQ/TYgZyd5vu9rjFvSmv7N8Fq19uIjivF/NR9nqN2nBa6VLnb+TJ1mHz9151Mp8bzkamvuwefV3bGTB7B/C2bvjXD9E97X4Cc/jq0+vT9l3kZ5CQlH1Ly3ZRnS5FnLUK8SnWsfwJiOefxdjtn1ci8VH2dWms5NfSl8VQ8rQVy0KfLkVdjdWNpGnX1dXGc9P/3969o7WttAEcf8larBQ8rMCswKahoqUzpd2ko6RLY5e4o6VKg70CvAKeFLH34jMXSR7dR+OxISf/3/fofAGENHdLL6NROqYMVbvLP/fXP0UNiWFa2k/mr7sGMMdZqtO550p/pp2oPZ/jegwAAACAHxtg1TcH6iZMb+OluvB/mUpjKGhwI3fqxuHjT9PtfQQ6UPOepWEgN/qE+SwNOxtwsnLXHRvJs75LWz51z8i6+p4edyeLp/ILhxpmhLSmx+UEmvL9U+oGq/jClJHcqiRvQp85b9S3fJrS3KN8WsWqrwDpzXXrzWusfVrYgMuVfA/OSInqr84yojU8z9V5HB9HtPnBVN5VO1iO3Vll6ngmUFGzruDwUoImENc5Iu/5cg+F/A5kOs1SfIqxpaSpXzTkqzvNsaR1/PrmBIDXYp/AP5z7fOnpQffzvJOrtDy6Y5RfvnKNbTXWuOrHq5y9Ppuu5E61zeWTDU7qJRWG85UJIp7kWqC1X3y9a4AsqH7rFOtZnON6DAAAAIAXG2AtzK64k9fk8Fhtk/iBQUcpeDD4fqX++yHmHiKdDVh5VLtujUw9EyUNHF9cJDK7cm+gD7OWDvvYmYoVbenJbGaSNAWaUsXHNHUwO/1BTH3KpzXNPcqnUM6lfEWrr/70I79dYu3TKVpwMAsK2OBGmbnR9zpX+3G8xGjzauxZTZYyTmaqNWxklqjjTVaVYPZWN8ZW6hj5eboefT8u7yYtk1snKFMWeWzx7hfN+epOczyjH3MZqrbxM4s+mTGgGHyKmp7S+FO/XES3Sj8vjVE++dLa22qPthGBbzl39lM1ptzo2ZKbV3lbL+RpqWfkxxnRav1l1wD260gzSQPa80mvxwAAAAB4qa7BOpiKnrhTnKlTFSXodGrpzMNsW4m+cSnerBwe6XO3mtlzXYZzWemohnsD7tA3sPax58N59ISbT9WRZs2rfMrlHJovj/ryMxBzv9sq1j6eNr/V7fzxtot7mclcXqb1/c8EVErBgDpdx/ESpc2n619OJqIfm51M1PE+/pTGHrtPe74O59nORWZJc7s5Lu9pWjxEG1s8+0VzvvzTHEU6q26ZRpvsbEd3lmDk9FTGHx1s7zNuJHKp0tupM1+aT1uN2DZa+ZVzVz+1szMVc22wkdl4Jpu/5YVg57oG0H+kVgPPxzgLiiYRl1Dobs9/xfUYAAAA8D9XDbB22b3Jq4nhnO/uqvCIdd0sFc2sE9f+iN5IP/eYzzqxN9XZzXIfTY98J9N32c6HslQ3WcUl3OyjpGeZQdazfJrTHF4+BdHqq5/R87702GtVrH261M5KDLGZyVjdtdc+kmzYgErnzXbncfwd2+Z3WVDwx6X5+vLHo0xU+u4LU1DtTLNJW2NxtJb30XlPg+6tj3PHH1tctf2iNV8+aY4pe7xen0+3g4k8FvrQadPTf9yw6SnPArQvtnPHqK58aV1tNdK46sWnnPt9NplZvOp/c7PobH25ncLXvwZYy4OehZ8HR2vW3g3U2p4/4XoMAAAAQL1qgDVdw68pAFG96Tyx3ULuZ84b2NMZtnXrNlZnExXpGUeHm6JsHbWal+y0KaenZDB9N7N/igEneyPnzsyzs4bSL2IKKJ/6NAeWT1m0+upDHb/z0cpY+3gY3aoeU31BThB1A9+4aoJ58Yzny7TajtNTcJtP+1JxrLFrKW5m9/lj/valTf5jTme7OTLvNsi0lHGhY+xksci+Ps3YkmnMX0u+utMcmWnzeuadXvKhGrw7ZXpM+QzvpM875Ux63PpqqouOfHW31Ujjqqfucu7up4VZ8Wo8f98Hvuwv1F9wDWDXus0Cz3G1teezX48BAAAAaLaayF79n7NN9qt9k+1+PlT7TJr3aLbaq3uifeVXVxN1zuF+vtVfpMcvpKfmd5Ryuof2AKn646g7IvWTou18WN0vP6FfeswxSsfO0penazvfq1u5/Bj6++b3gspSMcfLyq2qvXw806x4lU8pD+Y4dd9zjhFaX35sW2tvy7H28WPzH36c6u8Xy76u7rRyXXQdx9fxbT4t2+y8pfZsjzXcD+vahbvp3zdjiPv97Dj2HFl6YuXdytpG+ZwHXn2n9PNiUvz6hX++utPcrv645vw1ZWjz33YOz/S0jHVZmytsoeNGqR3VZMmoz1dDXbmbc8D2tuHoGOf9dJRzaz9trl/N/My7vH3aT3051p2+XPfFsa+hPmrSenQ/zcqv+M3avBrR2nPLOQAAAACc3YX+j7qI97JbXEsyu5JV9LXiMjtZXB//cqN4vlp68PfSs2HtC5xoS77a+5+ZaSd/a3n+/8cW83nxetf4ArS/VX2+/s9t9Zy4BvB1+usxAAAAAH34r8G6flAX8yLzLRfzQH8jed7ax5Cv219xj1y6hiT+Ptnnxcv/K7janC/aKs6I6zEAAADgy/EMsNr1zSarM6+9Bvyf6PULV3p90Z/Hren6D9EvGWuaOdb2M3wOPVPTvEV9/CHz7f/n88InX7RVnAfXYwAAAMBX1GuJAAAAAAAAAADAgf8SAQAAAAAAAACAAgKsAAAAAAAAABCIACsAAAAAAAAABCLACgAAAAAAAACBCLACAAAAAAAAQCACrAAAAAAAAAAQiAArAAAAAAAAAAQiwAoAAAAAAAAAgQiwAgAAAAAAAEAgAqwAAAAAAAAAEIgAKwAAAAAAAAAEIsAKAAAAAAAAAIEIsAIAAAAAAABAIAKsAAAAAAAAABCIACsAAAAAAAAABCLACgAAAAAAAACBCLACAAAAAAAAQCACrAAAAAAAAAAQiAArAAAAAAAAAAQiwAoAAAAAAAAAgQiwAgAAAAAAAEAgAqwAAAAAAAAAEIgAKwAAAAAAAAAEIsAKAAAAAAAAAIEIsP6ldotrubi4kIuHdfodAAAAAAAAAOeWBlh3sri+sAE7s13LYmd/Et1uIdfqHF8mLuiRnjyYmW7XJyuc/oaXSfovAAAAAAAAAOf2TWQtDxeJzGQu2/1e9mZ7Efm5kK8TRvw864cLSWYi821WNnt5kftPDxAPpu8mLe/TQfodAAAAAAAAAOf2bf0wluVwLtv3qRxCdQOZPrtf/6vW8mspMpy/iBvH1MHN51H6BQAAAAAAAIB/1jcTQLy76Qymlh+TL679aZcY0I/OF/a7PsyCzb+fzGSjvl6O033M9iD50dYP6e/pmbWHfcozRtvTc6BnoB72Oyx94J0eZfN7m/6rhU53/vtqK6enK1/m92uWZkiXMMiXJeg6j6Mp77kexwIAAAAAAABQ9e1D/efqe3t4VQcjk9mVrPIlBFYyWY4rAbnNLJHk9+Nhn81M7tOoXvZI+347l6H6erLKjqW3ZylMCFW/l1yMRZ3Q/Hw7H8pyXAzC3suL8/s2PcW1UW0gc/xRWvrgzR7FLz0j+aHOrU5eH6DM6EClSW72+/Xl05qv0a1MZCOzn8Xf2b29qu9O5DGbQjt6Ts+xFZ20eu15N3zTDAAAAAAAAKDRNz17s91afs42Mlm5QdCRPK8mIsunYtBRLzWQPzs/klu1i9fszxo64JkdanBzJ0P5kD/ZuUbPpbVHq+faLZ5kKRNZlZc+mBZCuZ1MINYEYTcyS+xMz2IgdyeLp6XK+o9C+djA7K9DUDjVnK+639nJ26uqocmtc+xu3Xnvl2YAAAAAAAAA9b6l/99s/UuWMpTKy+qTSxN0LMRPr753LjXgZyK3bkRxMJX3/XthHdTi4+8XMl6mP0htf/cPTDYy5z/MGtUzdQ9B1q3oU+nvuelJZnWh6/Z82YDrUn5lEc7dm7xuhjL/0S8X3Xnvk2YAAAAAAAAATb7pp8w/8qmhfwcdXB0vJ87j7XvRE2oPdvJHr30Q3UCm7/Zcm9nPwkzP4hID2VZa+qDLYCqPemJwGmE1ywMM7+SmV9TaP+9R0gwAAAAAAAD8w77d6RmZr2/SGGKtm6mqbX+btUELMzLPwr7Zv32G5kC+X6n/O9Hj7smlDktnEtFfZkHRY430Wgcm3XZ5gMmj+5i/D5+8x00zAAAAAAAA8K/6Nn2Zy1C/fKnwcqOdLB70G++VbFal+5Ip9a+HcXkNT0+D72Ljf6HBPRsclI8/eVDYzmhNv0iNfuh1U5cyLudrUTpvW3r0G/zLL31S37ufbZy8D+RGR6mXY4nyfijzsqul/Fro5QHCAtjdeY+cZgAAAAAAAOAf9c2uA5q+QT5fj/Ne5Mdh5uToWT8Wv5Rx/vOxfMy3pRdN+RrJs35pVOF8bvC2y0DyoHD6+0+XW/NG/oKmfN2UI5Yt6dHHuP3lfF9tyUyuVvtC3vWLsPT5l2NnP70FRS/ty6aWs5lITQB7t7hOj5+IWTI1T/f14YVjHnmPm2YAAAAAAADg33Sx1wtvAgAAAAAAAAB6+5b+PwAAAAAAAACgJwKsAAAAAAAAABCIACsAAAAAAAAABCLACgAAAAAAAACBCLACAAAAAAAAQCACrAAAAAAAAAAQiAArAAAAAAAAAATyDLCu5eHiQh7W6ZcAgAY7WVxfyAUD5tewfpAL9fmVby31sltcd+4DAAAAAEBZHmBtv7EcyY/5UJbjY4KsadDBvdHlRhbAV1IOxmXb9UKNYI7dQq7V9xm+6uWfJ+l2vSiU3nmNnmW/36ttK+pjzMvwMkn/BQAAAABAt29ZoOBeHltvPgfTd9maIOuDHBVTmKzSm121becyXI4JsgL4QiayysaobHufyiD9KdqtHy4kmYnMt4fye1GfMH/DMK8/53R636fUNgAAAADA37eH5FXu1I3w+7R7xs5g+igTWco41p3yYCovOqq7fJLPnOAEAIhhLb+WIsP5i7gxSh24fB6lXwAAAAAA8D/z7Xn/XrgRbmeXCpDlr+NmsToG36/Sfx2UHy8tznBtWGqg8Ahvwz4X1dm3PufSj7cW9is/Lqy0H8euYVt+TFbP9HKPVf46+73DseLmq/i99PzO97rTk+qxxmETk966c6nNPdzR+Wp6BDzd7G6x6t0jX17psbzy7v7cbH1nnMc6zoEp//w419U/prS1H8/y8W6rR8rrIJnJRn2tl005pKejH9a0n9a8a/rn5vcO7UZvlWy1HsezX+jzZMfR/06fbgip+83vbfqvFh5pjtEHvbSm5SDKuQAAAAAA/zueL7k6GNzcyVCW8ivSfeXuz4f675V8z4K86kb3Xl4Oj+buVzJZjp3g5ECm74dHT/N9NjO5L0du3OUIzPp7Sxk7N+j6ZjmZXTmPA9tzlW+aN7NEktc72WbHkZkk7j6daQ6zfhirkq7Rka+zpkcHJsbSWYb96GCSOtdwbso8m/nmW1+t8vUY1aaXqFD/cx9ldmfZxa/3mnx5psc7711tw1eU49ig4PjD5tce60XkrViGre2nR325GvvOkbJHyG1adDEd0rLfP0shOSofh/aj8lUeo3z7jvq9xO5o9qss1RKrD+rzPF3KVudt8yr397/l0eSzz3if/RFOnb8umJ7xTHNXH4wyJmg+67T27u8AAAAAgH9F7wCrDG7kTt2AfvyJcFO5W8j9bCPD+Y9DYELd6BbXvxvJ7UTdaPvMiPJx9T1dS3EtP9W5Jys3KDKS55U6WXnJAh0Qy9dgHMiNLgB3Fu8p0qxu5sd9IkR5vpSzpWcni6dlsf7Uv46b5ewEIQvrXvaor1ii1ntTvnwcmXe3bRyj53F2iydZ6vVMC/kdyHSa5eIU7Ufp23cqljJ2ZymGzlQs1HW5bfTLuw7kZsFk+0euD7FDcNwynDxm6d2I3KljDr5L9RmDdiYIbQKzG5kltvyKQcgeaW7tg2ceE0792QQAAAAA+Gv1D7Cmgm8qzcymNGiRzORqVX2hSPGR4ov6wF7hMWY7u6t8nMK5LhKZXa1kn0Up1r9E3eJL5WXRyaUJDBSyVwos2WUNsgCH1Z7m9EZ89tMz4JEFIFb1s6na8pXqLkOlcJyGfYym9Gzl90bnKykcJ5nph6cDpDP1aoOQferLO18djq73VFu+fATnvb5teIlwnK1uHJNbJ/hVFrn9GB19x0vNS65CyrA1IN0n7xO5dU8/mMp7vrRLzDIstrGr/LGCACaNuuzsjFCdvkOQtUea2/pgn34RiVd/BwAAAAD8c4IDrMPKXa2nwqPH1Ud89Q3seFkMcOgJSUXlZQJWInotxPIss9K5VqKDRuFrSTbxSfPoWX+vODOu6eZ8u7iXmczlpenFYx358itDpXycun2UrvQUH5POttLj0j6Gc1nZaIz8PKaSPPN1LO9yjpUvH7Ha/NHH2YlZ/cNDtPajdPadLyZW3mOWYVx2rNb9ovwHpq+b5nre/R0AAAAA8M/pH2Ddvcnr5sjZTY3sG6jbZ73VsTNE5eOPtD0VOrI72dlPTbOctr/Vd0szxkqK68b6p1kHWd1gQu3N+WYm45lKQf6obrdCvoLLsEFrehK5HIosYy3IqyTT93SNydKLfI6or1hC611rzJePI/JebBvh+h9nIGayYetj6pHbT0Df+Tyx8h56HP8AeAyJTmQuPO+FPnjWMSHyuAoAAAAA+F/pHWDdvb2eMKBlb7zdQKmdNZR+0Si9+e1YI3Jtd7I354OpPE7UTb77shj1rwd1suLagCWVdWND09xismp8eU+dQr7Omp5sTcRx/6BhC72Gow4+F4KRofUVS4R6r82XjyPyXmwb4UKOM/phX5A0LmR2J4tFXqnx20/PvhMsXZs0PEAaK+8+xymvXarq4DoR1ZzjU/3kupyQSt8JzHv5OGcdE04wrgIAAAAA/je+6ZtE+8h6esOtbnrt13VvgN7Jm56+erJZPAOZvug3WOs1K226ni63ZubfgQ4OZGnOtrEs9SPN5chKnhe72beZHx5BrT62P5aP+bZ9LdfKurE+ae5jIquuCFFrvs6bHh00zGZmumkKeimQw9aNzurhBTne9RXLCeq9Ll8+gtqq2spt3luM45h1ONO3uufHuhe5ORwlbvvx6Dteikt5mO16kQfWrJE86xc5FfLWZwmFeHn3Oc5g+iLzYZavRF7vjhkTWug6v/1VTEfNWtveeW/tg379Yre4Tn/W/BnXvU/scRUAAAAA8H9ysdfPqnvSN6HJ7EpWX3idvLjSmV6hLwrCX4p6Bz4XfRAAAAAA8PfwXyJg/SDJTGS+/VeCqwAAAAAAAADQzjPAate1m6zepfxEMgAAAAAAAAD8q3otEQAAAAAAAAAAOPBfIgAAAAAAAAAAUECAFQAAAAAAAAACEWAFAAAAAAAAgEAEWAEAAAAAAAAgkGeAdS0PFxfysE6/BD7T+kEuVHvMtuvFLv0BAAAAAAAAcF4mwLp+OASr9FYNpI7kx3woy3GcIOtucW3Pdb0QQmPow7TV8YfMt3vZ7+32Ph2kPwUAAAAAAADO65sOWI1llQer9qtJbSB1MH2XrQmyPshxMdadvL1uZDKfy3DzKm9EWOFr/SDj5VDm23chpgoAAAAAAICv4GKvo6oFO1lcJzK7Wsn+eZR+L6OXChjLclL3M0+7hVwnr3K3fRG5T+T1bssMRHjJ/xgQ2vYAAAAAAACAyHq+5MouFSDLX8GzWHdvr7IZ3snNYCA3d0PZvL45ywTo4G5xuQK7ObNmS+tvljd35m2+FEG2FX8o1+b77ozcw/m9j+OZHvNoe2FJBLuu7eFY9uvyeqLV31PK53TT4zC/m+93Le6hTZ7q0qM277xnPNPTpf1cO/nzITK8TIr5KuQhrb/S+c3+pe91nauzHWbyduRs5fy3lo9fmqvtoNx+UpHqQmtsP55tXju279jfL7ZdIy33avbdY1R/L1q9dzDnObp/ebQNr7qwx9FjS+F85XFFaU+PR75itQ0AAAAAAP4iNQHWrfze2EBWncHNnQxlKb+C7oXt8gDDuxvRc1bNseqWCdAzZLMlC/ZbmQ+XMs5u6kfPh59t5yot+pHxbN+9ZJMb9c17MruSVbbvfiWT5fhwE7/9LSolMlTHzvOy/ikzlfeC9YPcy0t+/Ow4eSDUMz1l64exKsUAOoAxluZ8GTboMf6Yyzbf70XkranS9P4qPUO7v3cZal7p6dZ9LtsuN7PEWdJCtQ2ZSRL9XKm2dphJ21FW56tJ+v1MpPIpq20/0c7V0X5823yEvjOYPspElfBraZBY/5zJRrXXH3n/6m7zUeu9lyP6V5ce44/uO8nrXVo+NX2nq74qavIVq20AAAAAAPAXqQRYbeBmKHc3DY/tD27kbijy8SfgRnj3Jq8b59iD73JVEzypdfXdBGX9rOXnbCOT1bMc4gsjedbRr+WTM6vtSu5UZpZPNniy/qVyPl+JnqSb52/0XFrCYCS36jCb39v06wBrvZZo+u9edrJ40mn8UchXeVbxbvGk6nAiq/epU2YDmU6daEvOCZIU9vcpQ7/0dPOtL6WwPIXK02PNPq16nKtObTu8ku+1jTNW+ZTUtp945+rXflpE6Tvp7xRmuq9FdVWZPB7S153mU9S7j2P6V2SFNNgnCApto1d9NeXL0ynGVQAAAAAAPkkhwKofPdWBm+H8pfMlQiE3wmZ5gEIwqi54ouhZXNljoxdN68G2WP8yQeLKJNzkUn13I3nSh5dyk82iXS/kaamDv9WZu8XHjm0ZhcsCYTaQe5CWxeznIeBRcZjF6aYnmRWn3W71TpNbdcQOm5kkTUESrzL0S08n3/pSKjOra/Yptp9SffU4l0873Nl1C6TaarQe5dOW5oKm9hOpLhTv9uMhRt8Z/ZirPjqTn1nHMHU4kVsngZ1pjlzvXo7uXynvttGhFCQefL9S//0Q929lXvXVlq8e4o6rAAAAAAB8njzAqh9X1Te4w7nfS6ealhBoZpcHEFnKuHxTXV4moPCI7l5WogMM/ddBbGMCY9pgKo+TjczGM9lMHiuBZRt0njiP8dY8Bt7DdnEvM5nLy7RafqNnfeya8imZrA5pOWzZTDi7VqmX4VxWOkrnBq8CtKcnlkQuCwHFFuX2E1pfHu3QBPY6Zjd6lY9nmtvaj3Z8XfRoPx2i9Z101vwyXcvDzjR3Z+rGS7MRa/yJ1L9828axvOsrQr5ij6sAAAAAAHwmG2BdP9iZbupGvjO4ah7z1zGlnvOW0t+rBoBWtWssukZ6amdpplWrullgmlkvszjzTTMz5NT/5mZBx4HoiV12hq59FDnWbD4dkBircnYfbS7TQVa3fIpBBxtkzAJN9Wz6fR8LT6bvsp0PZTkuvTDIqwx90uPB61xuvRzYWdHVOm3Us224qu3w8OKtepHKJ9PafmKdq1/7aRaz72RLQeg06eNO5LEwTnmkOWq9+zuuf52W/SNT9kRBv/pqzJeXyOMqAAAAAACf7JsOrl7oaZJ6lpTHY7C9A1qZxsCBDQxVlglw6Blrh0CABzMrVdTNvzvrbC0PKp/ZzLfCzEO1//v+vWZZBJs2+fiTp83OvEq/CKHKOeRpYytbN3HcGtSwAeOljAs77WSxqP+lwfTdBHILwRKPMvRNTyevc6X5cs+1W8j9bFPYp5PnuepU2qF5KVrLesWxysfV2H7inatv+6kXue+MbtXooWd3j2VZE5jrTHPMeu8pvH+dUKXv9K+v2nx5OcG4CgAAAADAJ/qm13M0lsV1/vRWvWlOH/MPmHlkghS1a1WmgSF3mYBSWuybwfs9cl593H4sH57LHxjm5n8g05e5Wf8xSY/zdLk1M7fCTGQVHl01dFAjmzmWlY/Z3Moa6IBx+kbyfJ97kZvmc9vyssGS7E3ePmXolR4PXvWl86USmZ8rmcnVau9fpynvttHSDnVASP9homu94ljlY7W3n2jnCmg/VbH7TvrCLslmmpd4pDlGvYcK7V9Rufmq9J2w+qrLV7fYbQMAAAAAgM91sdfPoXvS67QmsytZHRlsAIC+zPjzenfUi5X+TTtZXB/xsi4AAAAAANAqf8lVJ7NOq8h8S3AVwJll488LwVUAAAAAAPC1eAZY7dqAk1XdOqUAcBpmKQb9GPn4Q+Zbxh8AAAAAAPD19FoiAAAAAAAAAABw4L9EAAAAAAAAAACggAArAAAAAAAAAAQiwAoAAAAAAAAAgQiwAgAAAAAAAEAgzwDrWh4uLuRhnX4JAAAAAAAAAJBvsn6Qi4sLZ7uWxS79aW4kP+ZDWY6PCbLaIG3xXNlWd078W3ayuL6Q66whmHb5oFoNQNsAAAAAAABf18VeSf9t7BbXksxE5tt3mQ7Sb6bsz65ktX+WUfo9fzrAOhb1y/Ls/rIOlow/as+Hf4xpC8v0C5FJua3g30XbAAAAAAAAX1RliYDB9FEmspHf2/QbDvuzpYxZKwCnMHoWHe/PNgJoyNE2AAAAAADAF1Vdg3X3Rz7Sf1bZpQJk+etEj+ceHgXWs2XzJQSuF+onJeYxYXeZAbVlgd/dQq7N99zHiO2x9X5ufLhwHvcYrvK5egeYD+cubvXpK2w1ee9K8/qh/Hvp8gznKp+6/TrKsDPNDrNvfixneYm6dDibPZRPXfRIj0/ePTXmq4+8bp2tlJ7uOm1YzsMpD5/yMeep20dt7imPbs9e/Opda0+PTz/1OZfdx2esa02PaX/pcU3dp+3G/XemtQ+maa4re+d75+sXPuVsdbUf40z9QgtqPzXtsJ1ffWle5ePB9zgmDfl+bhuMlWb/MvQ6Tkd6fNq8zz7ePPpOV12Yn9elR216V/v7NZ8xaT8xh8v7THXcyo6TO3Zsqcuzs7m/GqtttGs6jtry89l9gq5XS2VhRKj3jCnbfD+nnj+jnD3G3vby8Wg/PvuYc9S1A9s3zBJEtW1ef9uWRb5MkSefMjy+/fiUT+rYNha5/Rx9/dNnjAIA4EwqAdb1z5lshnP50TBDbHBzJ0NZyq8TfnBtZokkr3eyNbPVtjKXmSTlD/nx0jwmbGe0qX2G6c+07W/ZqFQOh0461z9ltkn/ndIf3HbJg+w4K5ksx9ULCrOyQcs+viar9Bh602leyji/oBjI9D37Wbapc21mcu9e1Kn03MtLcR+VnrYLv/XDWNWYI2b5KLs/OiQ/Sfcr1YUWUIaVNBv2Qnj8MU/bht5eRN7S47izHLdznUOZb7P9SrMeW+uiqjY9Xe3QW0e++kjrNsv3apJ+P+Vbp9ohX+n2PlWttF59fbl0HtU+amzReczqok96Mt3natFR793p8eynmkcb8xnr+vb3WjHHMcfp+kXk8fBM/cL7OD3Hn2CR2o9fvuKMY9HKMFbfKfEZf44Zo7o+T/u0Vas69mZPKr2+FcuicP3neZ2gy/noscXzs/vs/atwnOq4ofldr3aXT5x6j3SN5Nt3fMq5Y+yN0n5iGUzl3ZTLUp6yvO4Wcq8a/XC+lfc+65h5lmGs9uPD51q9Nc2R+2lX3juP4ztGAQBwRjbAqj/A1UWZ3sZL9YH50hxIkcGN3KkP5Y8/pQutmPSNQH7TOpAbfUJn1mx2kXCbXQzWupI79XvLJ3uxt/61VIddmQsKm/a1/FSfwpOVu57sSJ711d/yKf2L/04WT/r3fhT2iTqL9+p7c1nXURc4xYu8kdyqJG/q1nTQVN06S1c6YpSPY3gpSfrPooAybEjzbvGkLnvVxWEh0DeQ6bS1Ifhrqoum9Hi1w27x83Ul3+sz0q9OfTW2sYxzg1/IY0B6Os8VIK/3E5WPq9zGOsa63v291onGsRP3Cy+9yufU/eLI4/T9LPARpf345SvOOBaxDKPkvcRn/IkxRjV+nvYtn6axNy2L1zfz+W+tRV0GyOTR3a/rOuEM10i5L9i/tNYxvGf5HFnv0a4ljuk7teXcNPaes/140kFWVa6b2b0qV9V/kplsJqtSeXjwLcOY7cdHYxtTzvh5YbTm3fc4XWMUAADnZQOs6kM1+wvkfnsnr0n3ozBH3aR0KV2gDb5fqf9+SPZZab/umEWrLiJu9Gzbzau8rRfytBzK3Y1zWbH+pY4wlMvylUZyqb6brUG7ld8blddZkgeg9ZaoD/0g+i+v+XESmV2tZJ9PGdDUxVT6aIvdzJ+tKxd2xce/dFA8/UFFdnFmLzYKopSPtdWF1KhvGTan2ZxncutcbB2hsy4yzenxaoceYubLBLeaLqB71Km/5vIxNjNJam/wld7p6TiXj7Z6906PSodHP/VqYx1jnebf35v06IOFNIeNLbH6hW85+5TPWfpFn+N4jz8dPOrr6PbjmS/vcawtzZHL0CvvEdr8gc8+7Vo/T/uUT9vYq4x+zNXn/0x+Zv3UHLv0h5Gu64STjC0NPqN/+Wgdw/3LJ0a9x7yW6N936su5deyN3X4691nKOP95zRIZGXVPtJpsZJao/qMD1oFtx6sMI7Ufn/JpbWOpc31eGG159z1O5xgFAMB5VddgHUzlUf/FsjCzoWpY+dQ7Ix0Q3s7lY5xdBKgLO+e6wc6gUkxe1EXSWP8F+lHK8Q9flUdCzeb+VdVT+XEz0RdE7tpB5cdiV6KuBguP1eiLn/FSXfC5x1H1VWe7uJeZzOVlWqyruOWzE3O40oVSmW8ZNqU5P08snXVhNadH6WiHfuLmy1xAd9RFTK3lo6mb+5WONLg38oE6z+XDs97bdfdTI8K5+vT3Ll59sJzmnmOLEaVfaPHGw3P3i05R2qHSUV8x20+7HuOYZxvr1FGG3nmP0eZTx49Rfp+nXrrG3vRppGX6lxA78+swU67PdULMsSWKjrZxbt3lE6Pe411LBPedmnL2GXujtZ/OfQ55Uh9RMkua2sTxZfn1Pru729j5Pi/iiH2vBwBADNUAa5fdm7ya66XzfYLZD1H3EaPDYzv2IqBmLaGUmaWh/jc3i4oNRP+B1My+rftrqmbW9MlmcSRy6dyAxDbSz96UZqsV2cdz5OOPujTS7CN8XjMU1E3VeKZyUnjcr+q48tHsX9gnjc8D9yjD1jTbtB0eH4qrti46y9C/HTaLmS97Ad34xw/vOvXk2caS6bu6mRnKclx66UCf9Hieq69CvQeXT7mf1uvu7+Wxrkd/bxV5HDtLv6gTOh6eqV8ccRyfttFfpPbjla9I41i0MozVd1I+40+UMarj87Rn+TSOvcZApvqv6abOdHlN5LEhMtF4nXDia6SCL9e/6hXHcN/yiVHvsa4lwvtOtZw7xt5ztp+SuqdFMjv9h5KNDjSuVOmGrN8bXoZh7cdH17X6OT8v6hXy3vM4zWMUAADnVQ2wpuuHNd0k7N5eOz8ko8oXmHdmVph1prIP0qrCX8wHU3nfv1f/omn+4qkuXMbuX7DX8qAyfzhXtibQ+CRvo1ybqxk3cFyWXvDkf3G2F1tuIMf+xTn9omyyOry0wBGvfPT57SNUze2hZxk2pFmzF1DqYrdwoJ0sFsdXTmNdtKSnqx36ipYvs7i/fjyqoUF51mkvLeXjGqgbfT0TonCj3zc9nufqo1DvweVT7qf1Ovt7Zazr2d8bnWAcO0O/qAocD8/VL444TvdnQYhI7cczX1HGsWhlGKvvOHzGnyPHqM7P04DyqR17M6NbdTb92LQ6bymw4nWdcIqxpcmX6181KmO4X/nEqvc41xLhfadSzl1j7znbT0ljm1D3QPoR/IlZ+zNd83NT8xLLVoFlGNh+fHRfq5/386KinHeP4/iNUQAAnJm6dtir/3O2yX61b7Ldz4dqn0nzHs1We/VZua/86mqizjncz7f6i/T4hfSUfmc736trgFIaiukyeWpIo/nZcK5+w/naOdfQJqRgOx8W9jFbw/Hr1efLTUfjPuXzZPlPN51ekz5nP5sntx5PUT4N6XU35xxdZdiV5gPbjg7HydpOiSmnup/51IVHejzaYT+e+WqQ1VO5/Zrvl9LTXKeZhr7q8KkvU+e15Vo8Z1d6fM7Vza/etfb0NBynkBafc9XvU8lSV38342fxGMXtUG7tfbC+TE1ZON/rrIto/aKhDMvH6CifrC5r21TpWO31rnX3C639OA35qmmH7fzqq6t8+uguH61tHPNMsxKlDDvz7pcem5b28cdnn3YNeXK3yvkOW7kuTD49xl7NjgvVz5tyObjMz5zj22Mc0mO2/Hf9yjln6q3586897w3leJL+VX+u+iw1lU/cereOvUZSfPuOs4/ZnHLO0lpOY129H99+PPapfFZmebflZdKZ7VN3HPX90rfbBZZh3TmOK5+GunK37Hc70+w4QT+tO03bcQr1W2J+1rvfAwBwvAv9H/Wh5WW3uJZkdiWr8to/0exkcX3iFxIgkva6Mn/5FuoRqHeGsW79IBdPl7UvuAHwlXze56m5rnu9Y5zoLcYYznXUv+sM1wDGV2xj58o7AADn578Gq3lsRmS+PVVwFX+XdL0vAABwhE/6PM2u614Irn4OrqNwarQxAADOyXMG61oeLsYiq330NRCL+KsmgH8BYx2Az3FYW3Eo8y3rFoZhDMcx/uX2Q98BAPx/9VoiAAAAAAAAAABw4L9EAAAAAAAAAACggAArAAAAAAAAAAQiwAoAAAAAAAAAgQiwAgAAAAAAAEAgAqwAAAAAAAAAEIgAKwAAAAAAAAAEIsAKAAAAAAAAAIEIsAIAAAAAAABAIAKsAAAAAAAAABCIACsAAAAAAAAABCLACgAAAAAAAACBCLACAAAAAAAAQCACrAAAAAAAAAAQiAArAAAAAAAAAAQiwAoAAAAAAAAAgQiwAgAAAAAAAEAgAqwAAAAAAAAAEIgAKwAAAAAAAAAEIsAKAAAAAAAAAIEIsAIAAAAAAABAIAKsAAAAAAAAABCIACsAAAAAAAAABCLACgAAAAAAAACBCLACAAAAAAAAQCACrAAAAAAAAAAQiAArAAAAAAAAAAQiwAoAAAAAAAAAgQiwAgAAAAAAAEAgAqwAAAAAAAAAEIgAKwAAAAAAAAAEIsAKAAAAAAAAAIEIsAIAAAAAAABAIAKsAAAAAAAAABCIACsAAAAAAAAABCLACgAAAAAAAACBCLACAAAAAAAAQCACrAAAAAAAAAAQiAArAAAAAAAAAAQiwAoAAAAAAAAAgQiwAgAAAAAAAEAgAqwAAAAAAAAAEIgAKwAAAAAAAAAEIsAKAAAAAAAAAIEIsAIAAAAAAABAIAKsAAAAAAAAABCIACsAAAAAAAAABCLACgAAAAAAAACBCLACAAAAAAAAQCACrAAAAAAAAAAQiAArAAAAAAAAAAQiwAoAAAAAAAAAgQiwAgAAAAAAAEAgAqwAAAAAAAAAEIgAKwAAAAAAAAAEIsAKAAAAAAAAAIEIsAIAAAAAAABAEJH/AFhmRMIV3bpUAAAAAElFTkSuQmCC;" parent="1" vertex="1">
          <mxGeometry x="-748" y="-550" width="1368" height="591" as="geometry" />
        </mxCell>
        <mxCell id="VZpro6ToBIl4rwPmgdCC-1" value="RentContracts" style="swimlane;fontStyle=0;childLayout=stackLayout;horizontal=1;startSize=30;horizontalStack=0;resizeParent=1;resizeParentMax=0;resizeLast=0;collapsible=1;marginBottom=0;whiteSpace=wrap;html=1;" vertex="1" parent="1">
          <mxGeometry x="740" y="-227" width="140" height="330" as="geometry" />
        </mxCell>
        <mxCell id="VZpro6ToBIl4rwPmgdCC-2" value="RentContractId" style="text;strokeColor=none;fillColor=none;align=left;verticalAlign=middle;spacingLeft=4;spacingRight=4;overflow=hidden;points=[[0,0.5],[1,0.5]];portConstraint=eastwest;rotatable=0;whiteSpace=wrap;html=1;" vertex="1" parent="VZpro6ToBIl4rwPmgdCC-1">
          <mxGeometry y="30" width="140" height="30" as="geometry" />
        </mxCell>
        <mxCell id="VZpro6ToBIl4rwPmgdCC-3" value="ContractStatusId" style="text;strokeColor=none;fillColor=none;align=left;verticalAlign=middle;spacingLeft=4;spacingRight=4;overflow=hidden;points=[[0,0.5],[1,0.5]];portConstraint=eastwest;rotatable=0;whiteSpace=wrap;html=1;" vertex="1" parent="VZpro6ToBIl4rwPmgdCC-1">
          <mxGeometry y="60" width="140" height="30" as="geometry" />
        </mxCell>
        <mxCell id="VZpro6ToBIl4rwPmgdCC-4" value="UserId" style="text;strokeColor=none;fillColor=none;align=left;verticalAlign=middle;spacingLeft=4;spacingRight=4;overflow=hidden;points=[[0,0.5],[1,0.5]];portConstraint=eastwest;rotatable=0;whiteSpace=wrap;html=1;" vertex="1" parent="VZpro6ToBIl4rwPmgdCC-1">
          <mxGeometry y="90" width="140" height="30" as="geometry" />
        </mxCell>
        <mxCell id="VZpro6ToBIl4rwPmgdCC-5" value="CarId" style="text;strokeColor=none;fillColor=none;align=left;verticalAlign=middle;spacingLeft=4;spacingRight=4;overflow=hidden;points=[[0,0.5],[1,0.5]];portConstraint=eastwest;rotatable=0;whiteSpace=wrap;html=1;" vertex="1" parent="VZpro6ToBIl4rwPmgdCC-1">
          <mxGeometry y="120" width="140" height="30" as="geometry" />
        </mxCell>
        <mxCell id="VZpro6ToBIl4rwPmgdCC-6" value="StartDate&lt;div&gt;&lt;br&gt;&lt;/div&gt;" style="text;strokeColor=none;fillColor=none;align=left;verticalAlign=middle;spacingLeft=4;spacingRight=4;overflow=hidden;points=[[0,0.5],[1,0.5]];portConstraint=eastwest;rotatable=0;whiteSpace=wrap;html=1;" vertex="1" parent="VZpro6ToBIl4rwPmgdCC-1">
          <mxGeometry y="150" width="140" height="30" as="geometry" />
        </mxCell>
        <mxCell id="VZpro6ToBIl4rwPmgdCC-7" value="EndDate" style="text;strokeColor=none;fillColor=none;align=left;verticalAlign=middle;spacingLeft=4;spacingRight=4;overflow=hidden;points=[[0,0.5],[1,0.5]];portConstraint=eastwest;rotatable=0;whiteSpace=wrap;html=1;" vertex="1" parent="VZpro6ToBIl4rwPmgdCC-1">
          <mxGeometry y="180" width="140" height="30" as="geometry" />
        </mxCell>
        <mxCell id="VZpro6ToBIl4rwPmgdCC-8" value="DepositAmount" style="text;strokeColor=none;fillColor=none;align=left;verticalAlign=middle;spacingLeft=4;spacingRight=4;overflow=hidden;points=[[0,0.5],[1,0.5]];portConstraint=eastwest;rotatable=0;whiteSpace=wrap;html=1;" vertex="1" parent="VZpro6ToBIl4rwPmgdCC-1">
          <mxGeometry y="210" width="140" height="30" as="geometry" />
        </mxCell>
        <mxCell id="VZpro6ToBIl4rwPmgdCC-9" value="TotalCost" style="text;strokeColor=none;fillColor=none;align=left;verticalAlign=middle;spacingLeft=4;spacingRight=4;overflow=hidden;points=[[0,0.5],[1,0.5]];portConstraint=eastwest;rotatable=0;whiteSpace=wrap;html=1;" vertex="1" parent="VZpro6ToBIl4rwPmgdCC-1">
          <mxGeometry y="240" width="140" height="30" as="geometry" />
        </mxCell>
        <mxCell id="VZpro6ToBIl4rwPmgdCC-10" value="CreatedAt" style="text;strokeColor=none;fillColor=none;align=left;verticalAlign=middle;spacingLeft=4;spacingRight=4;overflow=hidden;points=[[0,0.5],[1,0.5]];portConstraint=eastwest;rotatable=0;whiteSpace=wrap;html=1;" vertex="1" parent="VZpro6ToBIl4rwPmgdCC-1">
          <mxGeometry y="270" width="140" height="30" as="geometry" />
        </mxCell>
        <mxCell id="VZpro6ToBIl4rwPmgdCC-11" style="text;strokeColor=none;fillColor=none;align=left;verticalAlign=middle;spacingLeft=4;spacingRight=4;overflow=hidden;points=[[0,0.5],[1,0.5]];portConstraint=eastwest;rotatable=0;whiteSpace=wrap;html=1;" vertex="1" parent="VZpro6ToBIl4rwPmgdCC-1">
          <mxGeometry y="300" width="140" height="30" as="geometry" />
        </mxCell>
        <mxCell id="VZpro6ToBIl4rwPmgdCC-12" value="Cars" style="swimlane;fontStyle=0;childLayout=stackLayout;horizontal=1;startSize=30;horizontalStack=0;resizeParent=1;resizeParentMax=0;resizeLast=0;collapsible=1;marginBottom=0;whiteSpace=wrap;html=1;" vertex="1" parent="1">
          <mxGeometry x="990" y="-90" width="140" height="240" as="geometry" />
        </mxCell>
        <mxCell id="VZpro6ToBIl4rwPmgdCC-13" value="CarId" style="text;strokeColor=none;fillColor=none;align=left;verticalAlign=middle;spacingLeft=4;spacingRight=4;overflow=hidden;points=[[0,0.5],[1,0.5]];portConstraint=eastwest;rotatable=0;whiteSpace=wrap;html=1;" vertex="1" parent="VZpro6ToBIl4rwPmgdCC-12">
          <mxGeometry y="30" width="140" height="30" as="geometry" />
        </mxCell>
        <mxCell id="VZpro6ToBIl4rwPmgdCC-14" value="CompanyRepId" style="text;strokeColor=none;fillColor=none;align=left;verticalAlign=middle;spacingLeft=4;spacingRight=4;overflow=hidden;points=[[0,0.5],[1,0.5]];portConstraint=eastwest;rotatable=0;whiteSpace=wrap;html=1;" vertex="1" parent="VZpro6ToBIl4rwPmgdCC-12">
          <mxGeometry y="60" width="140" height="30" as="geometry" />
        </mxCell>
        <mxCell id="VZpro6ToBIl4rwPmgdCC-15" value="BrandId" style="text;strokeColor=none;fillColor=none;align=left;verticalAlign=middle;spacingLeft=4;spacingRight=4;overflow=hidden;points=[[0,0.5],[1,0.5]];portConstraint=eastwest;rotatable=0;whiteSpace=wrap;html=1;" vertex="1" parent="VZpro6ToBIl4rwPmgdCC-12">
          <mxGeometry y="90" width="140" height="30" as="geometry" />
        </mxCell>
        <mxCell id="VZpro6ToBIl4rwPmgdCC-16" value="ClassId" style="text;strokeColor=none;fillColor=none;align=left;verticalAlign=middle;spacingLeft=4;spacingRight=4;overflow=hidden;points=[[0,0.5],[1,0.5]];portConstraint=eastwest;rotatable=0;whiteSpace=wrap;html=1;" vertex="1" parent="VZpro6ToBIl4rwPmgdCC-12">
          <mxGeometry y="120" width="140" height="30" as="geometry" />
        </mxCell>
        <mxCell id="VZpro6ToBIl4rwPmgdCC-17" value="FuelTypeId" style="text;strokeColor=none;fillColor=none;align=left;verticalAlign=middle;spacingLeft=4;spacingRight=4;overflow=hidden;points=[[0,0.5],[1,0.5]];portConstraint=eastwest;rotatable=0;whiteSpace=wrap;html=1;" vertex="1" parent="VZpro6ToBIl4rwPmgdCC-12">
          <mxGeometry y="150" width="140" height="30" as="geometry" />
        </mxCell>
        <mxCell id="VZpro6ToBIl4rwPmgdCC-18" value="TransmissionTypeId" style="text;strokeColor=none;fillColor=none;align=left;verticalAlign=middle;spacingLeft=4;spacingRight=4;overflow=hidden;points=[[0,0.5],[1,0.5]];portConstraint=eastwest;rotatable=0;whiteSpace=wrap;html=1;" vertex="1" parent="VZpro6ToBIl4rwPmgdCC-12">
          <mxGeometry y="180" width="140" height="30" as="geometry" />
        </mxCell>
        <mxCell id="VZpro6ToBIl4rwPmgdCC-19" value="CarName" style="text;strokeColor=none;fillColor=none;align=left;verticalAlign=middle;spacingLeft=4;spacingRight=4;overflow=hidden;points=[[0,0.5],[1,0.5]];portConstraint=eastwest;rotatable=0;whiteSpace=wrap;html=1;" vertex="1" parent="VZpro6ToBIl4rwPmgdCC-12">
          <mxGeometry y="210" width="140" height="30" as="geometry" />
        </mxCell>
        <mxCell id="VZpro6ToBIl4rwPmgdCC-20" style="edgeStyle=orthogonalEdgeStyle;rounded=0;orthogonalLoop=1;jettySize=auto;html=1;entryX=0;entryY=0.5;entryDx=0;entryDy=0;" edge="1" parent="1" source="VZpro6ToBIl4rwPmgdCC-5" target="VZpro6ToBIl4rwPmgdCC-13">
          <mxGeometry relative="1" as="geometry" />
        </mxCell>
        <mxCell id="VZpro6ToBIl4rwPmgdCC-21" style="edgeStyle=orthogonalEdgeStyle;rounded=0;orthogonalLoop=1;jettySize=auto;html=1;exitX=0;exitY=0.5;exitDx=0;exitDy=0;entryX=0;entryY=0.5;entryDx=0;entryDy=0;" edge="1" parent="1" source="wSm0zEwbOU0qCLXST5qM-28" target="VZpro6ToBIl4rwPmgdCC-2">
          <mxGeometry relative="1" as="geometry" />
        </mxCell>
      </root>
    </mxGraphModel>
  </diagram>
</mxfile>
